<svg width="1271" height="939" viewBox="0 0 1271 939" fill="none" xmlns="http://www.w3.org/2000/svg">
<path opacity="0.7" d="M45.5 569.548L19 550.048C45.5 512.048 108.5 415.579 139.5 408.548C178.3 399.748 210.5 398.048 235 402.048L230.5 424.548C230.5 424.548 168.5 420.048 147.5 432.548C127.795 444.277 73.5 531.548 45.5 569.548Z" fill="#FF8A5C"/>
<path opacity="0.7" d="M1151.12 77.0947L1161.67 67.7344C1175.32 82.2095 1210.34 117.167 1210.56 130.771C1210.83 147.799 1208.69 161.431 1204.84 171.333L1195.77 167.448C1195.77 167.448 1203.15 141.89 1199.75 131.986C1196.56 122.693 1164.64 92.1978 1151.12 77.0947Z" fill="#FF8A5C"/>
<path opacity="0.7" d="M1058.57 140.8L1079.27 144.598C1077.09 175.023 1073.88 251.001 1059.28 264.32C1041 280.99 1024.02 291.489 1009.39 296.327L1004.59 281.61C1004.59 281.61 1039.79 266.02 1047.19 252.393C1054.14 239.606 1055.57 171.667 1058.57 140.8Z" fill="#5CA7FF"/>
<circle opacity="0.7" cx="1127.5" cy="193.5" r="16.5" fill="#5CA7FF"/>
<circle opacity="0.7" cx="161.5" cy="520.5" r="19.5" fill="#5CA7FF"/>
<circle opacity="0.7" cx="428.5" cy="65.5" r="14.5" fill="#5CA7FF"/>
<circle opacity="0.7" cx="119" cy="854" r="17" fill="#FF8A5C"/>
<circle opacity="0.7" cx="972.5" cy="137.5" r="30.5" fill="#FF8A5C"/>
<path opacity="0.7" d="M205.308 322.953C207.983 323.926 209.307 326.934 208.218 329.564L188.775 376.539C187.818 378.851 185.299 380.1 182.879 379.461L167.296 375.35C164.453 374.6 162.868 371.569 163.873 368.805L181.744 319.698C182.689 317.103 185.558 315.765 188.153 316.71L205.308 322.953Z" fill="#80EF8B"/>
<path opacity="0.7" d="M462.021 1.28512C464.627 0.983055 466.976 2.87174 467.241 5.48157L472.518 57.5783C472.712 59.4921 471.618 61.3039 469.834 62.0235C467.187 63.0909 464.251 61.3466 463.922 58.5118L457.893 6.49685C457.594 3.9175 459.442 1.58413 462.021 1.28512Z" fill="#FF8A5C"/>
<path opacity="0.7" d="M1265.31 270.905C1267.98 271.879 1269.31 274.884 1268.22 277.514L1242 340.942C1241.04 343.254 1238.52 344.504 1236.11 343.867L1213.43 337.906C1210.58 337.158 1209 334.125 1210 331.36L1234.19 264.901C1235.13 262.306 1238 260.968 1240.6 261.912L1265.31 270.905Z" fill="#80EF8B"/>
<path opacity="0.7" d="M156.267 884.518C157.935 882.093 161.325 881.625 163.587 883.508L187.778 903.652C189.701 905.252 190.144 908.027 188.817 910.147L174.009 933.801C172.499 936.213 169.283 936.881 166.938 935.269L140.12 916.832C137.845 915.267 137.268 912.155 138.833 909.879L156.267 884.518Z" fill="#5CA7FF"/>
<path opacity="0.7" d="M60.401 377.872L9.68447 414.417C7.81302 415.765 7.10694 418.219 7.97541 420.356L16.8624 442.223C17.933 444.857 20.9819 446.069 23.569 444.89L77.6012 420.251C79.9708 419.17 81.1142 416.452 80.2292 414.003L68.0264 380.23C66.898 377.107 63.095 375.931 60.401 377.872Z" fill="#EF95F7"/>
<path opacity="0.7" d="M499.271 56.5334L480.796 71.9694C479.128 73.3631 478.552 75.6751 479.37 77.6889L483.593 88.0796C484.673 90.738 487.765 91.9436 490.36 90.7184L510.656 81.1359C513.004 80.027 514.113 77.3049 513.207 74.8709L507.163 58.6268C505.96 55.3926 501.919 54.3208 499.271 56.5334Z" fill="#EF95F7"/>
<path opacity="0.7" d="M1095.66 258.912L1093.42 275.789C1093.3 276.65 1093.41 277.526 1093.74 278.33L1113.95 328.047C1115.21 331.154 1119.11 332.161 1121.72 330.055L1128.28 324.757C1129.99 323.378 1130.6 321.047 1129.78 319.01L1105.26 257.713C1103.35 252.937 1096.34 253.812 1095.66 258.912Z" fill="#EF95F7"/>
</svg>
