<svg width="1440" height="852" viewBox="0 0 1440 852" fill="none" xmlns="http://www.w3.org/2000/svg">
<path opacity="0.7" d="M52.5375 610.025L24.1436 599.981C41.7526 563.739 82.4657 472.645 110.084 460.373C144.651 445.013 174.389 436.776 198.009 434.769L198.029 453.841C198.029 453.841 139.311 463.444 122.053 477.986C105.86 491.63 71.5466 573.463 52.5375 610.025Z" fill="#FF8A5C"/>
<path opacity="0.7" d="M1340.62 11.0952L1352.85 1.7349C1368.67 16.21 1409.27 51.1676 1409.52 64.772C1409.83 81.7993 1407.36 95.4319 1402.89 105.334L1392.38 101.448C1392.38 101.448 1400.94 75.8906 1396.99 65.9865C1393.29 56.6934 1356.28 26.1983 1340.62 11.0952Z" fill="#FF8A5C"/>
<path opacity="0.7" d="M1254.46 59.808L1278.46 63.6057C1275.93 94.0304 1272.22 170.009 1255.28 183.328C1234.09 199.998 1214.41 210.497 1197.45 215.335L1191.89 200.618C1191.89 200.618 1232.69 185.028 1241.27 171.401C1249.32 158.614 1250.98 90.6747 1254.46 59.808Z" fill="#5CA7FF"/>
<ellipse opacity="0.7" cx="1321.17" cy="128.5" rx="19.1282" ry="16.5" fill="#5CA7FF"/>
<ellipse opacity="0.7" cx="177.182" cy="541.236" rx="22.606" ry="19.5" fill="#5CA7FF"/>
<ellipse opacity="0.7" cx="105.415" cy="767" rx="19.7078" ry="17" fill="#FF8A5C"/>
<g opacity="0.7" filter="url(#filter0_d)">
<ellipse cx="1367.99" cy="315.236" rx="35.3581" ry="30.5" fill="#FF8A5C"/>
</g>
<path opacity="0.7" d="M214.045 358.167C216.77 359.023 218.013 361.906 216.771 364.493L194.167 411.601C193.076 413.875 190.415 415.156 187.948 414.595L168.487 410.166C165.617 409.513 164.131 406.647 165.266 403.955L186.086 354.607C187.159 352.063 190.165 350.671 192.8 351.498L214.045 358.167Z" fill="#80EF8B"/>
<path opacity="0.7" d="M1434.99 184.12C1437.72 184.975 1438.96 187.857 1437.72 190.444L1407.26 254.004C1406.17 256.278 1403.51 257.56 1401.04 257.001L1373.36 250.723C1370.49 250.071 1369 247.204 1370.13 244.511L1398.27 177.81C1399.35 175.266 1402.35 173.874 1404.99 174.701L1434.99 184.12Z" fill="#80EF8B"/>
<path opacity="0.7" d="M148.819 797.268C150.647 794.973 154.245 794.455 156.599 796.145L185.527 816.923C187.538 818.367 187.947 820.951 186.485 822.967L169.03 847.018C167.366 849.31 163.928 850.011 161.476 848.557L129.424 829.55C127.049 828.141 126.519 825.249 128.24 823.089L148.819 797.268Z" fill="#5CA7FF"/>
<path opacity="0.7" d="M90.0144 404.092L30.0344 441.373C28.082 442.586 27.4042 444.967 28.4058 447.092L38.7713 469.093C39.9797 471.658 43.1686 472.93 45.7968 471.896L109.712 446.756C112.126 445.806 113.213 443.234 112.212 440.843L97.9112 406.702C96.649 403.689 92.7411 402.397 90.0144 404.092Z" fill="#EF95F7"/>
<path opacity="0.7" d="M1290.22 183.409L1287.25 202.738C1287.11 203.629 1287.25 204.558 1287.65 205.415L1311.19 255.369C1312.59 258.349 1316.57 259.479 1319.2 257.645L1327.95 251.552C1329.74 250.302 1330.33 248.029 1329.39 245.994L1300.08 182.806C1297.97 178.251 1290.95 178.681 1290.22 183.409Z" fill="#EF95F7"/>
<defs>
<filter id="filter0_d" x="1328.63" y="284.736" width="78.7163" height="69" filterUnits="userSpaceOnUse" color-interpolation-filters="sRGB">
<feFlood flood-opacity="0" result="BackgroundImageFix"/>
<feColorMatrix in="SourceAlpha" type="matrix" values="0 0 0 0 0 0 0 0 0 0 0 0 0 0 0 0 0 0 127 0"/>
<feOffset dy="4"/>
<feGaussianBlur stdDeviation="2"/>
<feColorMatrix type="matrix" values="0 0 0 0 0 0 0 0 0 0 0 0 0 0 0 0 0 0 0.25 0"/>
<feBlend mode="normal" in2="BackgroundImageFix" result="effect1_dropShadow"/>
<feBlend mode="normal" in="SourceGraphic" in2="effect1_dropShadow" result="shape"/>
</filter>
</defs>
</svg>
