<svg width="252" height="280" viewBox="0 0 252 280" fill="none" xmlns="http://www.w3.org/2000/svg">
<g opacity="0.75">
<path d="M84.1476 0.647461L0.78125 101.689L124.163 247.144L206.418 150.545L84.1476 0.647461Z" fill="black"/>
<path opacity="0.1" d="M84.1476 0.647461L0.78125 101.689L124.163 247.144L206.418 150.545L84.1476 0.647461Z" fill="#48A59A"/>
<path d="M4.11572 102.799C5.95974 99.4836 8.24641 96.4337 10.9129 93.7334L87.4819 16.1921C87.4819 16.1921 114.159 11.7507 119.717 25.0748L21.9005 105.02L4.11572 102.799Z" fill="#F2F2F2"/>
<path d="M0.225586 101.134L113.604 274.349C113.604 274.349 124.719 282.121 135.834 277.68L251.991 199.4L128.609 12.8613L17.4546 99.4685L0.225586 101.134Z" fill="black"/>
<path d="M114.748 39.8927L43.6035 90.9609L44.6547 92.4222L115.8 41.354L114.748 39.8927Z" fill="white"/>
<path d="M42.6598 110.076L41.1572 111.068L134.527 252.083L136.03 251.09L42.6598 110.076Z" fill="white"/>
<path d="M221.437 199.774L145.869 255.313L146.937 256.763L222.504 201.224L221.437 199.774Z" fill="white"/>
<path d="M128.237 42.3268L126.759 43.3545L223.464 182.148L224.942 181.12L128.237 42.3268Z" fill="white"/>
<path d="M98.3663 15.0915L10.4097 95.7285L11.1608 96.5461L99.1175 15.9091L98.3663 15.0915Z" fill="white"/>
<path d="M105.694 15.7828L13.7676 96.8486L14.5035 97.6814L106.43 16.6155L105.694 15.7828Z" fill="#3F3D56"/>
<path d="M111.444 17.3981L16.0161 96.8555L16.7282 97.7088L112.156 18.2514L111.444 17.3981Z" fill="#3F3D56"/>
</g>
</svg>
