<svg width="262" height="262" viewBox="0 0 662 658" fill="none" xmlns="http://www.w3.org/2000/svg">
<path d="M659.618 315.471C659.753 318.76 659.838 322.061 659.874 325.374L658.374 325.391C658.392 327.04 658.397 328.692 658.39 330.346C658.383 332.001 658.364 333.653 658.332 335.302L659.832 335.331C659.769 338.643 659.656 341.944 659.494 345.232L657.996 345.158C657.833 348.459 657.622 351.746 657.361 355.02L658.856 355.139C658.594 358.439 658.283 361.725 657.923 364.996L656.432 364.832C656.07 368.115 655.66 371.384 655.201 374.637L656.687 374.846C656.224 378.127 655.713 381.392 655.153 384.641L653.675 384.386C653.115 387.634 652.508 390.866 651.852 394.081L653.322 394.38C652.66 397.629 651.949 400.86 651.191 404.073L649.731 403.728C648.974 406.934 648.17 410.121 647.319 413.29L648.768 413.679C647.908 416.879 647.001 420.06 646.047 423.221L644.611 422.787C643.659 425.943 642.66 429.078 641.615 432.192L643.037 432.669C641.985 435.805 640.886 438.921 639.741 442.014L638.334 441.494C637.19 444.586 636 447.656 634.765 450.703L636.156 451.267C634.913 454.333 633.625 457.376 632.293 460.396L630.92 459.79C629.59 462.804 628.216 465.794 626.798 468.759L628.151 469.406C626.723 472.391 625.251 475.352 623.735 478.287L622.402 477.599C620.892 480.524 619.339 483.423 617.743 486.295L619.054 487.024C617.447 489.917 615.797 492.783 614.106 495.621L612.817 494.853C611.132 497.681 609.404 500.482 607.636 503.254L608.901 504.061C607.123 506.849 605.303 509.608 603.443 512.338L602.204 511.493C600.35 514.214 598.456 516.906 596.522 519.567L597.736 520.449C595.792 523.124 593.809 525.768 591.787 528.382L590.601 527.464C588.587 530.067 586.534 532.639 584.444 535.179L585.602 536.133C583.501 538.685 581.362 541.206 579.186 543.694L578.057 542.706C575.89 545.183 573.687 547.627 571.447 550.037L572.546 551.058C570.295 553.479 568.009 555.867 565.687 558.22L564.619 557.166C562.308 559.508 559.962 561.815 557.581 564.087L558.617 565.172C556.225 567.454 553.799 569.7 551.34 571.91L550.337 570.794C547.89 572.993 545.41 575.155 542.897 577.28L543.866 578.425C541.342 580.559 538.786 582.656 536.198 584.714L535.265 583.54C532.69 585.588 530.084 587.598 527.447 589.569L528.345 590.77C525.7 592.748 523.023 594.687 520.316 596.587L519.455 595.359C516.762 597.248 514.04 599.098 511.289 600.908L512.113 602.161C509.354 603.977 506.565 605.751 503.749 607.485L502.962 606.208C500.163 607.931 497.335 609.614 494.48 611.255L495.228 612.555C492.363 614.202 489.471 615.807 486.553 617.369L485.845 616.047C482.948 617.598 480.026 619.106 477.078 620.572L477.746 621.915C474.789 623.385 471.807 624.812 468.8 626.196L468.173 624.833C465.187 626.207 462.177 627.538 459.143 628.824L459.728 630.205C456.691 631.493 453.63 632.737 450.546 633.936L450.002 632.538C446.938 633.729 443.852 634.876 440.743 635.977L441.245 637.391C438.135 638.493 435.005 639.549 431.854 640.56L431.396 639.132C428.268 640.134 425.121 641.092 421.953 642.003L422.368 643.445C419.195 644.357 416.002 645.224 412.79 646.044L412.419 644.59C409.241 645.401 406.044 646.166 402.829 646.884L403.156 648.348C399.935 649.067 396.696 649.739 393.44 650.364L393.157 648.891C389.935 649.509 386.695 650.08 383.44 650.603L383.678 652.084C380.424 652.608 377.154 653.083 373.869 653.511L373.675 652.023C370.417 652.448 367.143 652.824 363.856 653.152L364.005 654.645C360.73 654.971 357.442 655.251 354.14 655.481L354.036 653.985C350.759 654.214 347.47 654.394 344.167 654.527L344.227 656.025C340.938 656.157 337.637 656.241 334.324 656.276L334.308 654.776C332.659 654.793 331.006 654.799 329.352 654.792C327.697 654.785 326.044 654.766 324.395 654.734L324.367 656.234C321.054 656.171 317.754 656.06 314.466 655.901L314.538 654.403C311.237 654.243 307.949 654.034 304.675 653.778L304.558 655.274C301.258 655.015 297.972 654.709 294.701 654.355L294.862 652.863C291.577 652.508 288.307 652.104 285.052 651.652L284.846 653.138C281.565 652.683 278.299 652.18 275.049 651.63L275.3 650.151C272.049 649.6 268.815 649.002 265.597 648.357L265.303 649.827C262.052 649.176 258.819 648.476 255.604 647.73L255.943 646.269C252.734 645.524 249.544 644.733 246.372 643.895L245.989 645.345C242.784 644.499 239.599 643.606 236.434 642.666L236.86 641.228C233.701 640.291 230.561 639.307 227.442 638.278L226.972 639.702C223.829 638.665 220.708 637.583 217.608 636.455L218.121 635.045C215.022 633.918 211.945 632.745 208.891 631.529L208.336 632.922C205.262 631.697 202.212 630.428 199.185 629.115L199.782 627.738C196.759 626.427 193.76 625.071 190.786 623.672L190.147 625.03C187.152 623.621 184.182 622.169 181.237 620.674L181.917 619.336C178.981 617.846 176.072 616.313 173.188 614.738L172.469 616.055C169.564 614.468 166.686 612.839 163.835 611.168L164.593 609.874C161.752 608.209 158.939 606.503 156.154 604.756L155.357 606.027C152.555 604.27 149.781 602.472 147.037 600.633L147.872 599.387C145.136 597.554 142.429 595.682 139.753 593.77L138.881 594.99C136.19 593.068 133.53 591.107 130.901 589.107L131.809 587.913C129.188 585.92 126.599 583.888 124.042 581.819L123.099 582.985C120.528 580.905 117.99 578.787 115.484 576.632L116.462 575.495C113.967 573.349 111.505 571.166 109.077 568.948L108.065 570.055C105.624 567.825 103.217 565.558 100.845 563.256L101.889 562.18C99.5278 559.888 97.2008 557.561 94.9093 555.2L93.8329 556.245C91.5307 553.873 89.2642 551.466 87.0343 549.026L88.1416 548.014C85.9221 545.585 83.739 543.123 81.5932 540.628L80.456 541.606C78.3008 539.101 76.183 536.562 74.1034 533.992L75.2696 533.048C73.2004 530.491 71.1693 527.902 69.1771 525.282L67.9831 526.189C65.9832 523.559 64.0224 520.898 62.1015 518.207L63.3224 517.336C61.4111 514.658 59.5395 511.951 57.7085 509.214L56.4618 510.048C54.6249 507.303 52.8286 504.529 51.0737 501.726L52.3451 500.93C50.6001 498.143 48.8962 495.328 47.2344 492.486L45.9395 493.243C44.2717 490.39 42.646 487.511 41.0633 484.605L42.3806 483.887C40.8089 481.001 39.2798 478.089 37.7941 475.152L36.4555 475.829C34.9648 472.881 33.5175 469.909 32.1145 466.911L33.4731 466.275C32.0798 463.298 30.7304 460.297 29.4257 457.273L28.0484 457.867C26.7412 454.836 25.4788 451.782 24.2619 448.706L25.6567 448.154C24.4474 445.096 23.2832 442.016 22.165 438.915L20.7539 439.423C19.6353 436.321 18.5625 433.196 17.5363 430.051L18.9623 429.585C17.9434 426.463 16.9708 423.319 16.045 420.156L14.6054 420.578C13.6781 417.409 12.7977 414.221 11.9649 411.014L13.4168 410.637C12.5924 407.461 11.8149 404.267 11.0851 401.055L9.62238 401.387C8.89105 398.168 8.20745 394.931 7.57234 391.677L9.04456 391.39C8.41612 388.17 7.83538 384.933 7.30311 381.68L5.82279 381.923C5.29048 378.67 4.80643 375.4 4.37138 372.116L5.85839 371.919C5.42699 368.662 5.044 365.39 4.71015 362.104L3.21783 362.255C2.88522 358.981 2.60118 355.693 2.36642 352.391L3.86264 352.285C3.62971 349.009 3.44553 345.72 3.3108 342.418L1.81204 342.479C1.67784 339.19 1.59249 335.889 1.55669 332.575L3.0566 332.559C3.03878 330.91 3.03328 329.258 3.04021 327.604C3.04714 325.949 3.06646 324.297 3.09809 322.648L1.59836 322.619C1.6619 319.306 1.77489 316.006 1.93661 312.718L3.4348 312.792C3.59717 309.491 3.80888 306.204 4.06923 302.93L2.57395 302.811C2.83634 299.511 3.1479 296.225 3.5079 292.954L4.9989 293.118C5.36025 289.835 5.77062 286.566 6.22927 283.313L4.74395 283.104C5.20649 279.823 5.71789 276.558 6.27742 273.309L7.75565 273.564C8.31513 270.316 8.92295 267.084 9.57833 263.869L8.10857 263.57C8.77088 260.321 9.48156 257.09 10.2398 253.877L11.6997 254.222C12.4563 251.016 13.2605 247.828 14.1115 244.66L12.6629 244.271C13.5224 241.071 14.4295 237.89 15.3833 234.729L16.8193 235.163C17.7715 232.007 18.7705 228.872 19.8154 225.758L18.3933 225.281C19.4458 222.144 20.5448 219.029 21.6893 215.936L23.0961 216.456C24.2402 213.364 25.4302 210.294 26.6651 207.246L25.2749 206.683C26.5175 203.617 27.8055 200.573 29.1379 197.554L30.5102 198.16C31.8402 195.146 33.2147 192.156 34.6329 189.191L33.2797 188.544C34.7077 185.558 36.1798 182.598 37.6952 179.663L39.028 180.351C40.5382 177.426 42.0917 174.527 43.6875 171.654L42.3762 170.926C43.9832 168.033 45.6329 165.167 47.3245 162.329L48.6131 163.097C50.2986 160.269 52.026 157.468 53.7942 154.696L52.5296 153.889C54.3079 151.101 56.1274 148.342 57.9872 145.612L59.2268 146.457C61.0807 143.736 62.9749 141.044 64.9084 138.383L63.6949 137.501C65.6383 134.826 67.6213 132.181 69.6431 129.568L70.8295 130.486C72.8435 127.883 74.8962 125.311 76.9867 122.77L75.8285 121.817C77.9295 119.264 80.0685 116.744 82.2446 114.256L83.3736 115.244C85.5402 112.767 87.7438 110.323 89.9835 107.913L88.8847 106.892C91.135 104.47 93.4216 102.083 95.7436 99.73L96.8112 100.784C99.1223 98.4419 101.469 96.1347 103.849 93.8629L102.814 92.7777C105.205 90.4958 107.631 88.2496 110.091 86.0398L111.093 87.1556C113.54 84.9572 116.02 82.7951 118.533 80.6701L117.565 79.5247C120.088 77.3909 122.644 75.2943 125.232 73.2358L126.166 74.4097C128.74 72.362 131.346 70.3521 133.983 68.3809L133.085 67.1795C135.731 65.2017 138.407 63.2626 141.114 61.3632L141.976 62.591C144.668 60.7015 147.391 58.8515 150.142 57.0416L149.318 55.7884C152.077 53.9733 154.865 52.1984 157.682 50.4646L158.468 51.742C161.268 50.0186 164.095 48.3361 166.95 46.6951L166.203 45.3947C169.067 43.748 171.959 42.143 174.878 40.5805L175.586 41.9029C178.482 40.3523 181.405 38.8437 184.352 37.3781L183.684 36.035C186.641 34.5648 189.624 33.1375 192.63 31.7541L193.257 33.1168C196.243 31.7428 199.254 30.4122 202.288 29.1259L201.702 27.7449C204.74 26.4569 207.801 25.2131 210.885 24.0142L211.428 25.4122C214.492 24.2209 217.579 23.0741 220.687 21.9727L220.186 20.5588C223.295 19.4571 226.425 18.4005 229.577 17.39L230.035 18.8183C233.162 17.8154 236.31 16.858 239.477 15.9468L239.063 14.5053C242.236 13.5925 245.429 12.7259 248.64 11.9063L249.011 13.3598C252.19 12.5487 255.387 11.7839 258.601 11.0661L258.274 9.60216C261.496 8.8829 264.735 8.21062 267.991 7.58608L268.273 9.05922C271.496 8.44112 274.735 7.86998 277.99 7.34656L277.752 5.86558C281.006 5.34233 284.276 4.86655 287.562 4.43896L287.755 5.92642C291.014 5.50232 294.287 5.12585 297.575 4.79774L297.426 3.30516C300.7 2.97839 303.988 2.69936 307.29 2.46879L307.395 3.96515C310.671 3.73635 313.961 3.55548 317.263 3.42324L317.203 1.92444C320.492 1.79272 323.794 1.70903 327.107 1.67406L327.123 3.17398C328.772 3.15657 330.424 3.15129 332.079 3.15821C333.734 3.16514 335.386 3.18426 337.035 3.21547L337.063 1.71574C340.376 1.77844 343.677 1.88976 346.965 2.04901L346.892 3.54725C350.193 3.70713 353.481 3.91554 356.756 4.17175L356.873 2.67633C360.172 2.93453 363.458 3.24107 366.73 3.59524L366.568 5.08653C369.853 5.44214 373.123 5.846 376.378 6.29736L376.584 4.81157C379.866 5.26664 383.132 5.76978 386.381 6.32026L386.131 7.79919C389.382 8.34984 392.616 8.94807 395.833 9.59313L396.128 8.12241C399.379 8.77418 402.612 9.47355 405.827 10.2197L405.488 11.6809C408.696 12.4256 411.887 13.2171 415.058 14.0548L415.441 12.6045C418.646 13.4509 421.831 14.3442 424.997 15.2835L424.57 16.7215C427.73 17.6591 430.87 18.6429 433.988 19.6719L434.458 18.2475C437.601 19.2844 440.723 20.3671 443.822 21.4948L443.309 22.9044C446.408 24.0318 449.485 25.2044 452.539 26.4213L453.094 25.0279C456.168 26.2526 459.218 27.522 462.245 28.8354L461.648 30.2114C464.671 31.5231 467.67 32.8788 470.645 34.2777L471.283 32.9203C474.278 34.3289 477.248 35.7811 480.193 37.276L479.514 38.6135C482.449 40.1037 485.359 41.6366 488.242 43.2115L488.961 41.895C491.866 43.4819 494.745 45.111 497.596 46.7817L496.837 48.0758C499.678 49.7406 502.492 51.4468 505.277 53.1935L506.074 51.9227C508.876 53.68 511.649 55.4782 514.393 57.3163L513.558 58.5626C516.294 60.3954 519.001 62.2682 521.678 64.1801L522.55 62.9596C525.24 64.8816 527.901 66.843 530.53 68.8429L529.622 70.0367C532.242 72.0299 534.831 74.0616 537.388 76.1308L538.332 74.9647C540.902 77.0448 543.441 79.1627 545.946 81.3176L544.968 82.4548C547.463 84.6008 549.925 86.7836 552.354 89.0023L553.365 87.8949C555.806 90.1253 558.213 92.3917 560.586 94.6935L559.541 95.77C561.903 98.0617 564.23 100.388 566.521 102.749L567.597 101.705C569.9 104.077 572.166 106.484 574.396 108.924L573.289 109.936C575.508 112.365 577.691 114.827 579.837 117.322L580.974 116.343C583.13 118.849 585.247 121.388 587.327 123.958L586.161 124.901C588.23 127.459 590.261 130.048 592.253 132.668L593.447 131.76C595.447 134.39 597.408 137.052 599.329 139.743L598.108 140.614C600.019 143.292 601.891 145.999 603.722 148.736L604.969 147.902C606.805 150.647 608.602 153.421 610.357 156.224L609.085 157.02C610.83 159.807 612.534 162.622 614.196 165.464L615.491 164.707C617.159 167.559 618.784 170.439 620.367 173.345L619.05 174.063C620.621 176.949 622.151 179.861 623.636 182.798L624.975 182.121C626.466 185.068 627.913 188.041 629.316 191.039L627.957 191.675C629.351 194.651 630.7 197.653 632.005 200.677L633.382 200.083C634.689 203.114 635.952 206.168 637.169 209.244L635.774 209.796C636.983 212.853 638.147 215.933 639.265 219.035L640.677 218.526C641.795 221.629 642.868 224.754 643.894 227.899L642.468 228.364C643.487 231.487 644.46 234.63 645.385 237.793L646.825 237.372C647.752 240.541 648.633 243.729 649.466 246.936L648.014 247.313C648.838 250.489 649.616 253.683 650.345 256.895L651.808 256.563C652.539 259.782 653.223 263.018 653.858 266.272L652.386 266.56C653.014 269.78 653.595 273.017 654.127 276.269L655.608 276.027C656.14 279.28 656.624 282.549 657.059 285.834L655.572 286.031C656.003 289.288 656.386 292.56 656.72 295.846L658.213 295.694C658.545 298.969 658.829 302.257 659.064 305.559L657.568 305.665C657.801 308.941 657.985 312.23 658.12 315.532L659.618 315.471Z" stroke="black" stroke-width="3" stroke-dasharray="10 10"/>
<text fill="#EF3900" xml:space="preserve" style="white-space: pre" font-family="Halant" font-size="64" font-weight="600" letter-spacing="0em"><tspan x="176" y="347.796">Klicke Hier</tspan></text>
</svg>
