<svg width="377" height="274" viewBox="0 0 377 274" fill="none" xmlns="http://www.w3.org/2000/svg">
<path d="M131.349 162.165H73.2559V177.033H131.349V162.165Z" fill="#9DCAFF"/>
<path d="M332.523 162.165H312.083V177.033H332.523V162.165Z" fill="#9DCAFF"/>
<path d="M373.402 162.165H352.962V177.033H373.402V162.165Z" fill="#9DCAFF"/>
<path d="M290.567 162.165H151.789V177.033H290.567V162.165Z" fill="#9DCAFF"/>
<path d="M58.195 258.235H0.102051V273.103H58.195V258.235Z" fill="#9DCAFF"/>
<path d="M259.368 258.235H238.928V273.103H259.368V258.235Z" fill="#9DCAFF"/>
<path d="M300.248 258.235H279.808V273.103H300.248V258.235Z" fill="#9DCAFF"/>
<path d="M217.412 258.235H78.6348V273.103H217.412V258.235Z" fill="#9DCAFF"/>
<path d="M298.097 195.333H240.004V210.201H298.097V195.333Z" fill="#9DCAFF"/>
<path d="M376.63 195.333H318.537V210.201H376.63V195.333Z" fill="#9DCAFF"/>
<path d="M20.5421 195.333H0.102051V210.201H20.5421V195.333Z" fill="#9DCAFF"/>
<path d="M61.4225 195.333H40.9824V210.201H61.4225V195.333Z" fill="#9DCAFF"/>
<path d="M220.639 195.333H81.8618V210.201H220.639V195.333Z" fill="#9DCAFF"/>
<path d="M119.515 242.224H177.607V227.356H119.515V242.224Z" fill="#9DCAFF"/>
<path d="M40.9818 242.224H99.0747V227.356H40.9818V242.224Z" fill="#9DCAFF"/>
<path d="M0.101398 242.224H20.5415V227.356H0.101398V242.224Z" fill="#9DCAFF"/>
<path d="M356.19 242.224H376.63V227.356H356.19V242.224Z" fill="#9DCAFF"/>
<path d="M196.972 242.224L335.75 242.224V227.356L196.972 227.356V242.224Z" fill="#9DCAFF"/>
<g opacity="0.5">
<path opacity="0.5" d="M197.5 121C230.913 121 258 93.9132 258 60.5C258 27.0868 230.913 0 197.5 0C164.087 0 137 27.0868 137 60.5C137 93.9132 164.087 121 197.5 121Z" fill="url(#paint0_linear)"/>
</g>
<path d="M197.618 119.338C230.326 119.338 256.842 92.8224 256.842 60.1138C256.842 27.4052 230.326 0.889648 197.618 0.889648C164.909 0.889648 138.394 27.4052 138.394 60.1138C138.394 92.8224 164.909 119.338 197.618 119.338Z" fill="#F5F5F5"/>
<path d="M197.673 119.571C209.246 119.59 220.568 116.202 230.227 109.829C228.045 97.9022 219.74 97.2227 219.74 97.2227H173.94C173.94 97.2227 166.103 97.8658 163.655 108.837C173.614 115.843 185.498 119.592 197.673 119.571Z" fill="#BADFDB"/>
<path d="M197.044 87.4509C212.832 87.4509 225.63 74.6526 225.63 58.8651C225.63 43.0776 212.832 30.2793 197.044 30.2793C181.257 30.2793 168.458 43.0776 168.458 58.8651C168.458 74.6526 181.257 87.4509 197.044 87.4509Z" fill="#333333"/>
<path opacity="0.1" d="M187.818 82.6748H206.135V97.3283C206.135 99.7566 205.17 102.086 203.454 103.803C201.737 105.52 199.408 106.486 196.98 106.487C194.551 106.487 192.222 105.522 190.504 103.804C188.787 102.087 187.822 99.7572 187.822 97.3283V82.6748H187.818Z" fill="black"/>
<path d="M188.399 81.9961H205.561C205.715 81.9961 205.863 82.0573 205.972 82.1662C206.08 82.2751 206.142 82.4228 206.142 82.5768V96.6496C206.142 97.8527 205.905 99.0441 205.445 100.156C204.984 101.267 204.309 102.277 203.459 103.128C202.608 103.978 201.598 104.653 200.486 105.113C199.375 105.573 198.183 105.81 196.98 105.81C194.551 105.81 192.222 104.845 190.504 103.127C188.787 101.41 187.822 99.0802 187.822 96.6513V82.5768C187.822 82.4234 187.882 82.2762 187.991 82.1674C188.099 82.0586 188.246 81.997 188.399 81.9961Z" fill="#FDB797"/>
<path opacity="0.1" d="M187.851 89.592C193.754 91.7975 200.252 91.8153 206.167 89.6422V87.3887H187.851V89.592Z" fill="black"/>
<path d="M197.044 90.818C211.544 90.818 223.299 79.0636 223.299 64.5638C223.299 50.064 211.544 38.3096 197.044 38.3096C182.544 38.3096 170.79 50.064 170.79 64.5638C170.79 79.0636 182.544 90.818 197.044 90.818Z" fill="#FDB797"/>
<path opacity="0.1" d="M178.343 40.6823C178.343 40.6823 189.408 63.1418 220.62 50.0988L213.353 38.7044L200.471 34.0811L178.343 40.6823Z" fill="black"/>
<path d="M178.343 40.3528C178.343 40.3528 189.408 62.8123 220.62 49.7658L213.353 38.3714L200.471 33.748L178.343 40.3528Z" fill="#333333"/>
<path d="M178.246 38.8309C178.992 36.5214 180.281 34.4246 182.006 32.7168C187.17 27.6116 195.637 26.535 199.979 20.7139C201.019 22.3295 200.215 24.8137 198.419 25.5071C202.579 25.4793 207.4 25.1153 209.753 21.6933C210.334 23.0467 210.519 24.5373 210.287 25.9919C210.055 27.4464 209.414 28.8052 208.44 29.9102C212.128 30.0836 216.068 32.5798 216.3 36.2636C216.46 38.7182 214.913 41.0412 212.904 42.4488C210.895 43.8564 208.447 44.503 206.046 45.0317C199.036 46.5798 173.671 53.058 178.246 38.8309Z" fill="#333333"/>
<path d="M170.779 69.1189C172.128 69.1189 173.222 67.0684 173.222 64.539C173.222 62.0095 172.128 59.959 170.779 59.959C169.43 59.959 168.337 62.0095 168.337 64.539C168.337 67.0684 169.43 69.1189 170.779 69.1189Z" fill="#FDB797"/>
<path d="M223.295 69.1189C224.644 69.1189 225.738 67.0684 225.738 64.539C225.738 62.0095 224.644 59.959 223.295 59.959C221.946 59.959 220.853 62.0095 220.853 64.539C220.853 67.0684 221.946 69.1189 223.295 69.1189Z" fill="#FDB797"/>
<defs>
<linearGradient id="paint0_linear" x1="197.5" y1="121" x2="197.5" y2="0" gradientUnits="userSpaceOnUse">
<stop stop-color="#808080" stop-opacity="0.25"/>
<stop offset="0.54" stop-color="#808080" stop-opacity="0.12"/>
<stop offset="1" stop-color="#808080" stop-opacity="0.1"/>
</linearGradient>
</defs>
</svg>
