<svg width="605" height="316" viewBox="0 0 605 316" fill="none" xmlns="http://www.w3.org/2000/svg">
<path opacity="0.1" d="M302.5 316C469.566 316 605 308.247 605 298.682C605 289.118 469.566 281.365 302.5 281.365C135.434 281.365 0 289.118 0 298.682C0 308.247 135.434 316 302.5 316Z" fill="#9DCAFF"/>
<path d="M274.911 150.05C273.485 142.598 271.892 135.129 271.629 127.549C271.473 123.08 271.786 118.533 271.21 114.075C270.925 111.885 270.427 109.734 269.935 107.584L267.955 98.9753C268.18 97.3251 268.116 95.6485 267.765 94.0203C267.567 93.1617 267.304 92.3195 266.977 91.5009C268.825 88.9029 270.348 86.0889 271.512 83.1216C272.037 81.7809 272.49 80.3564 272.283 78.9375C271.881 76.2171 269.242 74.4239 266.787 73.0832C265.3 72.2732 263.734 71.4911 262.034 71.3627C260.845 71.3148 259.662 71.542 258.575 72.0265C257.489 72.511 256.53 73.2397 255.772 74.1558C255.359 71.9535 255.497 69.6833 256.174 67.5473C254.715 66.8937 253.244 66.2792 251.763 65.6815C251.548 63.7509 251.474 61.8075 251.539 59.8662C251.572 57.5368 251.612 55.185 251.746 52.85C255.722 51.4001 259.159 48.7697 261.596 45.3117C264.033 41.8537 265.353 37.7338 265.378 33.5049C265.378 33.2647 265.378 33.0301 265.378 32.7955C266.462 30.8492 267.147 28.7071 267.395 26.4937C267.642 24.2803 267.447 22.0398 266.82 19.9025C265.182 14.3163 260.899 9.71326 255.738 6.86988C250.577 4.0265 244.594 2.82547 238.673 2.6132C236.686 2.49699 234.692 2.62267 232.735 2.98747C230.64 3.50241 228.611 4.25199 226.685 5.22196C223.727 6.585 220.747 8.0765 218.532 10.4283C214.691 14.523 213.83 20.5393 214.249 26.0697C214.808 33.3317 217.235 40.3592 220.042 47.1185C220.976 49.353 221.971 51.621 223.509 53.5259C224.7 54.9951 226.769 55.0844 228.412 54.0566C228.282 55.841 228.241 57.6308 228.289 59.4193C225.253 59.3132 222.295 59.8104 219.857 61.5198C218.739 62.3186 217.677 63.5755 217.923 64.9273C218.67 64.9472 219.385 65.2299 219.944 65.7256C220.503 66.2212 220.868 66.8981 220.976 67.6367C221.099 68.8265 220.5 69.9605 219.919 70.9884C219.667 71.4464 219.416 71.9101 219.159 72.3682C216.754 74.9378 214.288 78.1555 214.07 81.3452C213.678 81.3824 213.288 81.4402 212.902 81.5184C210.721 81.9206 208.551 82.6635 206.41 83.2222L190.91 87.3001L187.08 88.3615L180.929 89.9815C177.015 91.0093 173.029 92.0651 169.556 94.132C166.084 96.1989 163.137 99.4445 162.438 103.355C162.092 105.299 162.304 107.321 161.879 109.248C161.879 109.338 161.846 109.421 161.823 109.505C161.468 110.725 160.99 111.906 160.397 113.03C156.925 120.343 154.454 128.314 154.918 136.364C155.203 141.308 156.595 146.128 157.948 150.888C159.369 155.755 160.77 160.623 162.153 165.49C163.065 168.975 164.222 172.391 165.614 175.713C168 181.035 171.539 185.761 175.975 189.55C177.22 190.666 178.613 191.605 180.113 192.343C182.401 193.331 184.899 193.737 187.382 193.522C188.053 193.477 188.713 193.405 189.367 193.298C194.17 192.539 198.649 190.226 202.759 187.623C204.477 186.535 206.155 185.39 207.791 184.187C207.999 186.064 208.373 187.918 208.909 189.729C209.273 190.975 209.72 192.254 209.575 193.544C209.373 195.343 208.065 196.818 207.388 198.505C205.951 202.069 207.428 206.041 207.668 209.861C207.897 213.442 207.025 216.995 206.326 220.52C205.159 226.399 204.469 232.362 204.263 238.351C204.257 240.619 204.107 242.884 203.815 245.133C203.295 248.306 202.077 251.367 201.864 254.573C201.54 259.568 203.698 264.456 203.502 269.455C203.273 275.326 199.823 281.03 201.025 286.772C201.176 287.493 201.584 288.325 202.244 288.51L201.92 288.806C200.93 289.722 199.969 291.415 201.092 292.158C201.351 292.311 201.638 292.41 201.937 292.448C203.676 292.811 205.426 293.141 207.176 293.448C207.137 295.063 207.341 296.675 207.78 298.23C208.099 298.459 208.423 298.665 208.747 298.861C208.501 299.52 208.518 300.157 209.099 300.537C209.358 300.69 209.645 300.789 209.944 300.827C224.347 303.796 239.057 305.016 253.753 304.458C256.381 304.358 259.127 304.168 261.369 302.827C263.611 301.486 265.126 298.632 264.058 296.28C263.113 294.202 260.642 293.303 258.422 292.61L255.816 291.806C256.15 291.214 256.345 290.555 256.386 289.877C256.426 289.2 256.312 288.522 256.051 287.895C255.106 285.817 252.635 284.918 250.415 284.225L244.415 282.365C243.626 282.178 242.883 281.83 242.235 281.343C241.805 280.916 241.409 280.456 241.049 279.968C240.184 278.98 239.046 278.267 237.778 277.918C237.711 276.648 237.739 275.375 237.862 274.108L239.54 253.881C239.914 249.3 240.283 244.63 239.215 240.155C238.785 238.34 238.097 236.48 238.516 234.659C239.171 231.687 242.302 230.033 244.438 227.827C247.658 224.475 248.659 219.71 249.397 215.174C252.454 196.455 253.414 177.455 252.26 158.524C258.973 156.634 265.881 155.524 272.848 155.217C274.033 155.167 274.615 154.608 274.984 153.502C275.353 152.396 275.129 151.195 274.911 150.05ZM241.446 151.039C241.485 150.843 241.53 150.648 241.564 150.452L242.028 151.044L241.446 151.039Z" fill="url(#paint0_linear)"/>
<path d="M230.543 48.5043C230.398 50.4483 229.71 52.3141 229.458 54.2525C229.173 56.3864 229.425 58.5595 229.285 60.7102C229.145 62.8608 228.525 65.1233 226.886 66.5254C236.408 67.3493 245.787 69.3765 254.799 72.5585C252.076 69.2068 252.003 64.5255 252.07 60.2242C252.16 53.8615 252.272 47.3759 254.352 41.3707C248.148 39.9853 241.724 39.9016 235.486 41.1249C234.133 41.393 230.034 41.2254 229.425 42.4879C228.983 43.4152 230.644 47.0965 230.543 48.5043Z" fill="#A1616A"/>
<path opacity="0.1" d="M230.543 48.5043C230.398 50.4483 229.71 52.3141 229.458 54.2525C229.173 56.3864 229.425 58.5595 229.285 60.7102C229.145 62.8608 228.525 65.1233 226.886 66.5254C236.408 67.3493 245.787 69.3765 254.799 72.5585C252.076 69.2068 252.003 64.5255 252.07 60.2242C252.16 53.8615 252.272 47.3759 254.352 41.3707C248.148 39.9853 241.724 39.9016 235.486 41.1249C234.133 41.393 230.034 41.2254 229.425 42.4879C228.983 43.4152 230.644 47.0965 230.543 48.5043Z" fill="black"/>
<path d="M241.816 279.997C242.152 280.492 242.526 280.961 242.934 281.399C243.564 281.887 244.29 282.235 245.064 282.421L250.924 284.281C253.099 284.974 255.515 285.868 256.437 287.946C257.477 290.292 255.996 293.147 253.804 294.482C251.612 295.817 248.928 296.012 246.362 296.113C231.992 296.666 217.608 295.448 203.536 292.488C203.246 292.445 202.967 292.347 202.714 292.197C201.596 291.443 202.552 289.756 203.52 288.845C207.294 285.27 211.398 281.522 216.537 280.695C219.237 280.254 221.949 280.432 224.633 279.79C226.562 279.326 228.385 278.528 230.308 278.053C233.893 277.176 239.255 276.863 241.816 279.997Z" fill="#46455B"/>
<path opacity="0.1" d="M241.816 279.997C242.152 280.492 242.526 280.961 242.934 281.399C243.564 281.887 244.29 282.235 245.064 282.421L250.924 284.281C253.099 284.974 255.515 285.868 256.437 287.946C257.477 290.292 255.996 293.147 253.804 294.482C251.612 295.817 248.928 296.012 246.362 296.113C231.992 296.666 217.608 295.448 203.536 292.488C203.246 292.445 202.967 292.347 202.714 292.197C201.596 291.443 202.552 289.756 203.52 288.845C207.294 285.27 211.398 281.522 216.537 280.695C219.237 280.254 221.949 280.432 224.633 279.79C226.562 279.326 228.385 278.528 230.308 278.053C233.893 277.176 239.255 276.863 241.816 279.997Z" fill="black"/>
<path d="M212.393 153.648C209.502 161.271 209.324 169.656 211.89 177.395C209.939 177.183 209.094 179.819 209.145 181.786C209.214 184.523 209.629 187.241 210.38 189.874C210.738 191.126 211.174 192.399 211.034 193.684C210.833 195.483 209.558 196.958 208.893 198.639C207.495 202.198 208.932 206.164 209.172 209.979C209.396 213.56 208.541 217.107 207.853 220.627C206.714 226.499 206.041 232.452 205.84 238.43C205.836 240.695 205.688 242.959 205.398 245.206C204.895 248.379 203.721 251.434 203.497 254.635C203.178 259.618 205.286 264.506 205.096 269.5C204.873 275.36 201.495 281.058 202.675 286.817C202.843 287.627 203.296 288.583 204.129 288.594C212.561 288.7 220.439 286.359 228.782 287.583C229.632 268.299 230.459 248.926 234.262 229.995C237.616 213.141 243.303 196.477 242.772 179.294C242.464 169.468 240.127 159.832 238.707 150.101C229.792 148.123 220.464 149.381 212.393 153.648Z" fill="#BBBDC8"/>
<path opacity="0.1" d="M212.393 153.648C209.502 161.271 209.324 169.656 211.89 177.395C209.939 177.183 209.094 179.819 209.145 181.786C209.214 184.523 209.629 187.241 210.38 189.874C210.738 191.126 211.174 192.399 211.034 193.684C210.833 195.483 209.558 196.958 208.893 198.639C207.495 202.198 208.932 206.164 209.172 209.979C209.396 213.56 208.541 217.107 207.853 220.627C206.714 226.499 206.041 232.452 205.84 238.43C205.836 240.695 205.688 242.959 205.398 245.206C204.895 248.379 203.721 251.434 203.497 254.635C203.178 259.618 205.286 264.506 205.096 269.5C204.873 275.36 201.495 281.058 202.675 286.817C202.843 287.627 203.296 288.583 204.129 288.594C212.561 288.7 220.439 286.359 228.782 287.583C229.632 268.299 230.459 248.926 234.262 229.995C237.616 213.141 243.303 196.477 242.772 179.294C242.464 169.468 240.127 159.832 238.707 150.101C229.792 148.123 220.464 149.381 212.393 153.648Z" fill="black"/>
<path d="M249.644 288.377C249.98 288.872 250.354 289.341 250.762 289.779C251.392 290.266 252.118 290.615 252.892 290.801L258.752 292.661C260.927 293.354 263.343 294.248 264.266 296.326C265.306 298.672 263.824 301.527 261.632 302.862C259.44 304.197 256.756 304.392 254.19 304.493C239.82 305.046 225.436 303.828 211.364 300.867C211.074 300.825 210.795 300.727 210.542 300.577C209.424 299.823 210.38 298.136 211.348 297.225C215.122 293.65 219.226 289.902 224.365 289.075C227.065 288.634 229.777 288.812 232.461 288.17C234.39 287.706 236.213 286.907 238.137 286.433C241.721 285.556 247.083 285.243 249.644 288.377Z" fill="#46455B"/>
<path d="M215.301 154.201C213.142 156.994 212.505 160.681 212.796 164.178C213.087 167.675 214.266 171.033 215.424 174.345C213.886 175.758 214.205 178.194 214.406 180.272C215.139 187.992 212.455 195.696 212.846 203.438C213.008 206.695 213.718 209.907 213.886 213.164C214.071 216.722 213.618 220.281 213.193 223.817C210.478 246.454 208.985 269.221 208.72 292.019C208.72 294.119 208.686 296.253 209.279 298.264C213.344 301.253 218.449 301.655 223.369 300.538C228.29 299.42 232.78 296.929 237.192 294.471C239.608 293.221 241.9 291.744 244.036 290.058C244.689 289.596 245.172 288.933 245.411 288.17C245.881 285.935 242.772 284.924 240.988 283.477C238.394 281.371 238.433 277.472 238.701 274.143L240.323 253.943C240.692 249.368 241.05 244.703 240.01 240.234C239.585 238.425 238.93 236.564 239.322 234.743C239.959 231.783 243.023 230.129 245.109 227.922C248.263 224.571 249.236 219.817 249.962 215.292C253.388 193.826 254.117 172.016 252.132 150.369C248.022 151.794 243.152 151.017 238.819 151.352C234.485 151.687 230.18 153.134 225.79 153.252C222.134 153.335 217.549 151.319 215.301 154.201Z" fill="#BBBDC8"/>
<path d="M244.908 54.5654C256.334 54.5654 265.596 45.3116 265.596 33.8965C265.596 22.4813 256.334 13.2275 244.908 13.2275C233.482 13.2275 224.219 22.4813 224.219 33.8965C224.219 45.3116 233.482 54.5654 244.908 54.5654Z" fill="#A1616A"/>
<path d="M256.599 67.894C249.97 64.852 243.057 62.4683 235.961 60.7772C230.962 59.5873 225.253 58.8723 221.077 61.8609C219.958 62.6597 218.946 63.9166 219.187 65.2685C219.924 65.2928 220.628 65.5781 221.174 66.0734C221.72 66.5686 222.072 67.2416 222.167 67.9722C222.29 69.1565 221.708 70.2905 221.138 71.3239L216.313 80.2619C215.388 81.872 214.593 83.5532 213.936 85.2895C212.963 88.1273 212.751 91.1662 212.544 94.1604L211.985 102.272C211.638 107.383 211.286 112.517 211.75 117.617C212.097 121.466 212.902 125.331 212.354 129.158C211.912 132.236 210.609 135.124 209.877 138.152C208.501 143.85 209.128 150.095 206.46 155.324C207.544 154.824 208.766 154.714 209.922 155.011C218.018 156.502 224.387 162.887 232.248 165.329C234.233 162.435 236.923 160.301 239.143 157.609C240.794 155.59 241.887 153.175 242.313 150.603C243.991 152.838 245.416 154.581 246.417 157.173C246.595 157.776 246.9 158.334 247.312 158.81C248.369 159.837 250.108 159.441 251.522 159.011C258.458 156.921 265.628 155.706 272.865 155.396C274.028 155.346 274.593 154.787 274.956 153.681C275.32 152.575 275.118 151.38 274.9 150.24C273.508 142.794 271.954 135.336 271.696 127.767C271.54 123.298 271.847 118.768 271.283 114.31C271.003 112.126 270.517 109.975 270.036 107.83L266.043 90.1048C265.82 89.116 264.757 88.468 264.304 87.5575C262.47 83.8482 258.965 81.1668 257.153 77.4464C255.785 74.4422 255.587 71.0359 256.599 67.894Z" fill="#46455B"/>
<path d="M227.574 42.1693C227.55 41.8799 227.618 41.5904 227.77 41.3425C227.991 41.1105 228.268 40.9393 228.575 40.8454C229.409 40.4499 230.091 39.7936 230.517 38.9761C230.944 38.1586 231.093 37.2243 230.94 36.3149L232.897 35.9072L232.959 29.0976C235.866 27.4888 239.831 28.7065 242.565 26.8128C244.103 25.7403 244.891 23.9192 245.83 22.2992C246.77 20.6792 248.168 19.048 250.035 18.9139C249.393 20.546 249.118 22.2992 249.229 24.0493C249.34 25.7994 249.835 27.5038 250.678 29.0417C252.636 28.0517 254.271 26.5248 255.392 24.6398L256.365 30.226C256.384 30.5704 256.532 30.8951 256.779 31.1365C257.287 31.5108 257.975 31.0416 258.422 30.5779L260.955 28.0921C262.021 30.7643 262.752 33.5582 263.13 36.4099C267.291 32.3767 268.582 25.8967 266.983 20.3328C265.384 14.769 261.196 10.1604 256.152 7.31697C251.109 4.4736 245.26 3.27814 239.473 3.06586C237.53 2.95228 235.581 3.07799 233.669 3.44014C231.618 3.95566 229.633 4.70543 227.753 5.67463C224.862 7.03208 221.944 8.52359 219.785 10.8698C216.028 14.9589 215.183 20.9697 215.597 26.5112C216.156 33.7732 218.516 40.7839 221.261 47.5321C222.173 49.7665 223.146 52.0289 224.65 53.9338C226.914 56.7996 232.478 54.4198 231.768 48.7554C231.276 44.711 227.574 46.2696 227.574 42.1693Z" fill="#3F3D56"/>
<path d="M235.402 152.827C228.424 167.071 217.708 179.157 204.397 187.797C200.377 190.394 196.01 192.707 191.307 193.467C190.664 193.573 190.021 193.645 189.367 193.69C186.942 193.891 184.506 193.478 182.283 192.489C180.811 191.749 179.449 190.809 178.234 189.696C173.883 185.891 170.426 181.174 168.108 175.881C166.746 172.559 165.616 169.147 164.725 165.67C163.354 160.806 161.985 155.94 160.621 151.073C159.285 146.313 157.937 141.498 157.658 136.549C157.205 128.51 159.62 120.55 163.014 113.249C163.593 112.124 164.06 110.945 164.407 109.729C164.407 109.646 164.446 109.562 164.462 109.472C164.865 107.545 164.658 105.528 165.022 103.584C165.704 99.6741 168.589 96.4342 171.977 94.3728C175.366 92.3115 179.246 91.2557 183.099 90.2279L189.099 88.6135L192.823 87.6135L207.97 83.5412C210.067 82.9826 212.186 82.2396 214.316 81.8653C216.693 81.4184 216.676 81.653 216.86 83.9769C217.201 88.1889 217.09 92.3283 217.979 96.5012C218.823 100.484 220.31 104.322 221.429 108.232C224.252 118.103 224.722 128.493 226.947 138.521C227.456 140.805 228.161 143.241 230 144.665C232.108 146.341 235.659 146.755 236.218 149.38C236.425 150.548 235.905 151.743 235.402 152.827Z" fill="#9DCAFF"/>
<path opacity="0.1" d="M191.307 193.444C190.664 193.551 190.021 193.623 189.367 193.668C186.944 193.876 184.508 193.47 182.283 192.489C180.811 191.749 179.449 190.809 178.234 189.696C173.883 185.891 170.426 181.174 168.108 175.881C166.746 172.56 165.616 169.148 164.725 165.67C163.354 160.806 161.985 155.941 160.621 151.073C159.285 146.314 157.937 141.498 157.658 136.549C157.205 128.51 159.62 120.55 163.014 113.249C163.593 112.124 164.06 110.946 164.407 109.73C164.407 109.646 164.446 109.562 164.462 109.473C173.588 111.076 184.536 128.516 190.183 151.369C194.343 168.457 194.522 184.194 191.307 193.444Z" fill="black"/>
<path opacity="0.1" d="M207.802 133.314L206.276 133.576C204.705 129.454 203.139 125.326 201.3 121.315C200.343 119.22 199.309 117.153 198.504 114.991C195.484 106.69 195.999 96.8415 190.402 90.004C190.002 89.4962 189.546 89.0352 189.043 88.6298L192.767 87.6299C196.028 92.7809 198.328 98.4797 199.555 104.45C200.159 107.366 200.5 110.349 201.484 113.153C202.321 115.28 203.279 117.358 204.352 119.376C206.477 123.728 208.076 128.482 207.802 133.314Z" fill="black"/>
<path d="M222.665 70.374C226.685 66.9329 232.17 65.0448 237.376 65.905C240.44 66.4022 243.286 67.782 246.031 69.2568C251.382 72.0945 256.655 75.3625 260.513 80.027C262.827 82.9688 264.748 86.1987 266.228 89.6352C266.954 91.1368 267.516 92.7118 267.905 94.3332C269.27 100.646 265.92 106.919 262.694 112.516L256.487 123.275C253.636 128.219 250.762 133.196 247.049 137.537C245.338 139.537 243.459 141.386 241.586 143.235L233.361 151.346C233.213 151.52 233.019 151.65 232.802 151.72C232.622 151.73 232.443 151.7 232.276 151.634C232.109 151.567 231.958 151.465 231.835 151.335L229.117 149.173C231.62 147.445 233.946 145.475 236.062 143.291C239.618 139.615 242.542 135.386 245.45 131.174L254.497 118.069C257.142 114.231 259.904 110.008 259.608 105.36C259.468 103.126 258.629 101.026 257.751 98.9754C256.197 95.3295 254.508 91.7413 252.685 88.2108C250.639 84.2501 248.402 80.3398 245.455 76.9937C242.509 73.6475 238.785 70.8488 234.496 69.6366C233.217 69.2191 231.861 69.0894 230.526 69.2568C227.585 69.7428 225.494 72.2677 223.632 74.6139L217.962 81.876C216.67 83.5239 215.485 85.4344 215.407 82.3061C215.273 77.8428 219.79 73.2453 222.665 70.374Z" fill="#9DCAFF"/>
<path d="M224.421 119.365C225.539 123.667 227.188 128.549 231.332 130.18C234.267 131.337 237.706 130.398 240.244 128.504C242.783 126.611 244.583 123.94 246.239 121.242C247.639 118.818 249.184 116.478 250.863 114.237C254.178 110.081 258.691 106.785 260.927 101.948C261.587 100.506 262.046 98.9645 262.795 97.5791C263.596 96.3018 264.501 95.0929 265.501 93.9648C268.076 90.7783 270.134 87.2081 271.602 83.3845C272.116 82.0494 272.558 80.6194 272.356 79.206C271.959 76.4856 269.382 74.698 266.983 73.3629C265.524 72.5529 263.997 71.7652 262.336 71.6423C259.91 71.4524 257.522 72.7596 256.029 74.6756C254.592 76.6575 253.789 79.0275 253.726 81.4741C253.558 84.4515 254.139 87.5462 253.166 90.3617C252.652 91.6751 251.941 92.9032 251.058 94.0039C247.918 98.202 244.03 101.787 239.59 104.579C239.469 102.466 239.01 100.386 238.232 98.417C237.807 97.3333 229.475 98.417 228.39 98.5958C226.243 98.9086 222.083 99.1544 220.73 101.199C219.377 103.244 221.054 106.679 221.602 108.74L224.421 119.365Z" fill="#A1616A"/>
<path d="M224.219 72.4245C222.981 73.4461 221.829 74.567 220.775 75.7762C218.292 78.7648 217.079 82.6528 216.766 86.5241C216.452 90.3953 216.984 94.2833 217.649 98.1099C218.253 101.544 218.967 104.953 219.791 108.338C220.02 105.785 222.089 103.674 224.487 102.752C226.886 101.83 229.52 101.931 232.075 102.305C235.364 102.792 238.572 103.718 241.614 105.059L242.794 88.5407C243.042 86.3123 243.029 84.0626 242.755 81.8373C242.383 79.7723 241.576 77.81 240.386 76.0811C239.196 74.3522 237.652 72.8962 235.855 71.81C231.371 69.084 228.245 68.9108 224.219 72.4245Z" fill="#46455B"/>
<path d="M435.455 152.804C434.924 148.322 433.619 143.965 431.596 139.928C430.361 137.47 428.857 135.119 428.079 132.487C427.448 130.348 427.325 128.097 426.821 125.924C426.318 123.751 425.429 121.673 424.713 119.55C419.653 104.467 423.455 87.9654 421.823 72.1564C421.213 66.3244 419.424 59.9282 414.363 56.8893C411.355 55.085 407.743 54.8057 404.204 54.6548L402.588 54.5822L399.993 54.4537C396.236 54.2694 392.467 54.1297 388.81 54.9174C384.337 55.895 379.036 59.04 377.627 63.6039C376.856 63.2073 376.078 62.8554 375.363 62.5258C372.482 61.2493 369.463 60.3119 366.366 59.7327C369.023 59.0641 371.588 58.0736 374.004 56.7832C379.596 53.532 380.893 44.0355 382.033 37.6839C383.174 31.3324 382.134 24.7686 380.239 18.5959C379.613 16.4055 378.76 14.2862 377.694 12.2723C376.223 9.6196 374.219 7.29861 371.809 5.45432C369.399 3.61003 366.634 2.28207 363.687 1.55338C360.74 0.824684 357.675 0.710929 354.682 1.21921C351.689 1.72748 348.833 2.84688 346.293 4.50746C341.076 7.92063 336.228 12.8868 332.247 17.6853C331.688 18.3445 329.35 20.6795 330.128 21.6627C330.564 22.2213 332.001 21.7744 333.51 21.1041C332.349 23.7254 331.751 26.5609 331.755 29.4275C331.758 33.028 332.7 36.5656 334.487 39.6922C336.274 42.8187 338.846 45.4264 341.948 47.2587L342.507 52.398V52.4371C342.569 54.1521 342.597 55.8671 342.619 57.5764C342.619 58.7775 342.619 60.0064 342.585 61.2354C340.265 63.8581 337.424 65.9698 334.243 67.4361C336.871 67.8718 339.376 67.2573 341.814 66.2071C341.417 67.5792 340.752 68.859 339.857 69.9722C340.528 69.7376 341.199 69.5253 341.87 69.3019C341.519 69.8647 341.207 70.4508 340.936 71.0559C340.522 72.0125 340.22 73.0134 340.036 74.039C338.612 76.1174 337.379 78.3198 336.351 80.6195C335.881 81.6642 335.462 82.7255 335.082 83.8037V83.8763C334.709 84.9488 334.379 86.0363 334.092 87.1386C333.958 87.6675 333.835 88.1982 333.723 88.7307C333.723 88.7698 333.723 88.8089 333.723 88.848C333.499 89.9261 333.315 91.0099 333.164 92.1048C333.164 92.1774 333.164 92.25 333.164 92.3282C333.102 92.8366 333.046 93.3505 333.007 93.8644C333.007 93.8644 333.007 93.9147 333.007 93.9426C332.962 94.5012 332.929 95.0319 332.912 95.5794C332.912 95.652 332.912 95.719 332.912 95.7917C332.912 96.2553 332.912 96.7245 332.912 97.1882V97.5066C332.912 98.5568 332.979 99.6126 333.08 100.668C333.08 100.797 333.08 100.931 333.119 101.059C333.164 101.49 333.214 101.92 333.276 102.355C333.276 102.456 333.276 102.557 333.315 102.652C333.387 103.171 333.471 103.685 333.566 104.199C333.566 104.311 333.617 104.428 333.639 104.54C333.717 104.953 333.801 105.361 333.896 105.774L333.997 106.199C334.12 106.713 334.248 107.221 334.394 107.735C334.478 108.025 334.562 108.294 334.651 108.601C334.918 109.66 335.105 110.737 335.21 111.824L332.152 111.925C325.606 112.111 319.066 112.407 312.531 112.813C311.715 109.668 308.93 107.852 305.424 107.422C304.868 107.355 304.308 107.322 303.747 107.322C304.352 106.813 304.889 106.229 305.346 105.584C305.954 104.748 306.388 103.798 306.621 102.791C305.72 103.304 304.932 103.993 304.306 104.819C304.099 105.098 303.915 105.378 303.747 105.635V103.959C303.748 103.923 303.741 103.888 303.728 103.855C303.715 103.822 303.695 103.792 303.67 103.767C303.645 103.742 303.615 103.723 303.582 103.709C303.549 103.696 303.514 103.69 303.478 103.691H302.919C302.884 103.69 302.849 103.696 302.816 103.709C302.783 103.723 302.753 103.742 302.728 103.767C302.703 103.792 302.683 103.822 302.67 103.855C302.657 103.888 302.65 103.923 302.651 103.959V107.372H302.539H302.349C301.98 107.405 301.622 107.45 301.27 107.517C297.462 108.227 294.672 110.668 294.672 114.779C294.673 116.074 294.955 117.353 295.5 118.528C296.044 119.702 296.838 120.745 297.825 121.583C297.99 122.864 298.28 124.125 298.692 125.348C299.078 126.56 299.581 127.879 300.711 128.482C301.401 128.795 302.157 128.933 302.914 128.884C309.131 128.884 315.014 126.019 321.204 125.533C325.028 125.225 328.869 125.818 332.705 125.7C333.264 125.7 333.824 125.644 334.383 125.6C329.138 151.548 322.792 177.825 326.107 204.036C326.325 205.778 326.666 207.667 327.969 208.851C329.697 210.426 332.359 210.169 334.679 209.968C341.047 209.388 347.467 209.9 353.662 211.482C354.533 211.723 355.449 211.755 356.335 211.577C356.524 211.534 356.711 211.48 356.894 211.415L357.051 211.354C357.168 211.309 357.28 211.264 357.386 211.214L357.548 211.13L357.822 210.962C357.867 210.929 357.917 210.901 357.956 210.868C358.054 210.801 358.145 210.726 358.23 210.644L358.309 210.577C358.413 210.475 358.512 210.366 358.605 210.253L358.672 210.152C358.737 210.069 358.797 209.981 358.851 209.89C358.879 209.845 358.907 209.801 358.929 209.756C358.952 209.711 359.019 209.588 359.058 209.504C359.097 209.421 359.103 209.404 359.119 209.354C359.136 209.303 359.192 209.169 359.226 209.074C359.259 208.979 359.226 208.985 359.27 208.935C359.315 208.884 359.349 208.655 359.377 208.516V208.426C359.377 208.309 359.421 208.186 359.438 208.069C359.455 207.951 359.438 207.946 359.438 207.884C359.438 207.823 359.438 207.7 359.438 207.611V207.41C359.438 207.32 359.438 207.231 359.438 207.142V206.644C359.438 206.588 359.438 206.527 359.438 206.466C359.438 205.968 359.382 205.466 359.332 204.985C359.732 205.101 360.139 205.189 360.551 205.248C360.935 205.309 361.325 205.337 361.714 205.332H361.77C361.954 205.332 362.139 205.332 362.329 205.287C362.491 205.262 362.651 205.228 362.81 205.186H362.883C363.029 205.143 363.171 205.087 363.308 205.019L363.375 204.98C363.491 204.915 363.601 204.84 363.705 204.756L363.755 204.717C363.86 204.62 363.953 204.511 364.034 204.393L364.085 204.309C364.168 204.175 364.233 204.03 364.28 203.879C364.599 202.801 363.872 201.583 365.035 200.594C366.154 204.175 367.272 207.762 367.456 211.465C367.518 212.817 367.456 214.258 368.25 215.376C368.767 215.985 369.328 216.557 369.928 217.085C371.639 218.934 371.678 221.722 371.561 224.224C371.51 225.235 371.454 226.246 371.382 227.257C370.458 240.75 367.712 254.056 363.218 266.813C362.78 268.171 362.207 269.481 361.507 270.724C360.372 272.483 358.953 274.042 357.308 275.338C354.977 277.316 352.479 279.09 349.843 280.639C348.497 281.35 347.225 282.194 346.047 283.159C346.002 283.03 345.952 282.907 345.918 282.773C345.856 282.516 345.773 282.215 345.521 282.12C345.33 282.076 345.13 282.108 344.962 282.209C342.339 283.36 339.717 284.51 337.195 285.857C335.922 286.436 334.801 287.302 333.919 288.387C333.113 289.505 332.873 291.18 333.706 292.298C334.439 293.275 335.753 293.599 336.966 293.817C338.52 294.091 340.08 294.286 341.64 294.432C340.839 294.901 340.138 295.523 339.577 296.264C338.772 297.381 338.532 299.057 339.365 300.174C340.097 301.152 341.411 301.476 342.625 301.694C352.538 303.442 362.704 302.252 372.768 301.956C376.039 301.85 379.383 301.828 382.481 300.766C383.092 300.586 383.662 300.288 384.158 299.889C385.567 298.649 385.427 296.471 385.181 294.621L384.158 287.069C384.007 287.069 383.862 287.119 383.716 287.153C384.574 280.058 386.111 273.062 388.307 266.26C391.718 255.674 396.795 245.245 396.728 234.168C396.728 233.899 396.728 233.609 396.728 233.363C396.633 229.894 396.012 226.464 395.61 223.012C394.978 217.236 395.05 211.409 395.09 205.605C395.041 203.329 395.2 201.054 395.565 198.807C395.565 198.729 395.598 198.656 395.615 198.578L404.903 198.332C405.932 198.384 406.959 198.193 407.9 197.773C408.345 197.578 408.702 197.226 408.902 196.783C409.102 196.341 409.132 195.84 408.984 195.377C412.943 197.17 418.238 194.729 419.407 190.573C419.488 190.28 419.554 189.984 419.603 189.685C419.6 189.662 419.6 189.64 419.603 189.618C419.642 189.338 419.67 189.059 419.681 188.785C419.681 188.741 419.681 188.69 419.681 188.646C419.739 186.727 419.441 184.814 418.803 183.004C416.902 177.624 413.883 172.725 411.042 167.77C409.577 165.206 408.157 162.608 406.776 160L407.989 161.558C408.415 162.194 408.974 162.729 409.628 163.128C411.892 164.295 414.263 161.944 416.567 160.86C419.625 159.419 423.204 160.268 426.581 160.508C429.958 160.748 434.029 159.877 435.237 156.748C435.628 155.471 435.703 154.117 435.455 152.804ZM377.23 68.8494C377.23 70.0448 377.309 71.257 377.404 72.4748C376.269 70.6217 374.958 68.882 373.49 67.2797L377.23 68.8494Z" fill="url(#paint1_linear)"/>
<path d="M304.177 105.824C304.797 105.005 305.574 104.32 306.464 103.808C306.237 104.814 305.81 105.764 305.206 106.601C304.233 107.925 303.21 108.835 302.925 108.617C302.64 108.399 303.193 107.148 304.177 105.824Z" fill="#99D55C"/>
<path opacity="0.1" d="M304.3 105.925C304.753 105.316 305.323 104.805 305.978 104.422C305.808 105.166 305.49 105.869 305.044 106.489C304.317 107.472 303.557 108.165 303.367 107.991C303.177 107.818 303.574 106.908 304.3 105.925Z" fill="black"/>
<path d="M302.819 104.713H303.378C303.413 104.713 303.448 104.72 303.481 104.733C303.513 104.747 303.543 104.767 303.568 104.791C303.593 104.816 303.612 104.846 303.626 104.878C303.639 104.911 303.646 104.946 303.646 104.981V111.31H302.584V104.981C302.583 104.915 302.607 104.852 302.65 104.802C302.694 104.753 302.754 104.721 302.819 104.713Z" fill="#F6987E"/>
<path d="M312.565 115.779C312.565 118.149 311.622 120.422 309.944 122.099C308.267 123.775 305.991 124.716 303.618 124.716C301.246 124.716 298.97 123.775 297.292 122.099C295.614 120.422 294.672 118.149 294.672 115.779C294.672 111.684 297.428 109.259 301.192 108.55C301.992 108.402 302.804 108.33 303.618 108.332C304.179 108.331 304.739 108.365 305.296 108.433C309.433 108.947 312.565 111.416 312.565 115.779Z" fill="#FC4A4A"/>
<path opacity="0.1" d="M305.296 108.433C305.133 108.74 304.256 108.992 303.193 108.992C302.5 109.042 301.806 108.897 301.191 108.573C301.992 108.425 302.804 108.352 303.618 108.355C304.178 108.347 304.739 108.373 305.296 108.433Z" fill="black"/>
<path opacity="0.1" d="M305.111 124.505C302.738 124.505 300.463 123.563 298.785 121.887C297.107 120.211 296.165 117.937 296.165 115.567C296.165 111.545 298.821 109.137 302.478 108.383C302.046 108.416 301.617 108.472 301.192 108.55C297.428 109.26 294.672 111.684 294.672 115.779C294.672 118.149 295.614 120.423 297.292 122.099C298.97 123.775 301.246 124.717 303.618 124.717C304.294 124.718 304.968 124.641 305.626 124.488C305.452 124.499 305.296 124.505 305.111 124.505Z" fill="black"/>
<path d="M344.548 289.94C345.784 291.057 347.674 291.029 349.351 290.906L356.995 290.348C363.067 289.901 369.346 289.398 374.703 286.51C375.27 286.251 375.772 285.869 376.174 285.393C376.599 284.662 376.821 283.831 376.817 282.985C377.54 274.711 379.187 266.543 381.726 258.635C385.081 248.105 390.113 237.726 390.046 226.704C390.046 226.436 390.046 226.145 390.046 225.905C389.951 222.453 389.342 219.04 388.967 215.604C388.346 209.856 388.408 204.063 388.452 198.287C388.405 196.022 388.562 193.758 388.922 191.522C389.274 189.706 390.6 187.885 389.789 186.288C388.218 183.187 382.52 182.048 379.456 181.936C375.329 181.791 371.27 182.869 367.283 183.941C366.07 184.271 364.8 184.623 363.883 185.478C362.653 186.628 362.301 188.433 362.256 190.114C362.044 197.572 366.344 204.51 366.685 211.956C366.746 213.297 366.685 214.749 367.468 215.867C367.984 216.475 368.545 217.045 369.145 217.57C370.823 219.408 370.873 222.179 370.755 224.671C370.705 225.676 370.649 226.682 370.582 227.687C369.669 241.107 366.955 254.344 362.514 267.042C362.085 268.398 361.524 269.708 360.836 270.952C359.714 272.7 358.313 274.251 356.687 275.544C354.384 277.509 351.917 279.273 349.312 280.818C347.573 281.845 345.717 282.829 344.526 284.46C343.335 286.091 343.072 288.566 344.548 289.94Z" fill="#FDA8A8"/>
<path opacity="0.1" d="M344.548 289.94C345.784 291.057 347.674 291.029 349.351 290.906L356.995 290.348C363.067 289.901 369.346 289.398 374.703 286.51C375.27 286.251 375.772 285.869 376.174 285.393C376.599 284.662 376.821 283.831 376.817 282.985C377.54 274.711 379.187 266.543 381.726 258.635C385.081 248.105 390.113 237.726 390.046 226.704C390.046 226.436 390.046 226.145 390.046 225.905C389.951 222.453 389.342 219.04 388.967 215.604C388.346 209.856 388.408 204.063 388.452 198.287C388.405 196.022 388.562 193.758 388.922 191.522C389.274 189.706 390.6 187.885 389.789 186.288C388.218 183.187 382.52 182.048 379.456 181.936C375.329 181.791 371.27 182.869 367.283 183.941C366.07 184.271 364.8 184.623 363.883 185.478C362.653 186.628 362.301 188.433 362.256 190.114C362.044 197.572 366.344 204.51 366.685 211.956C366.746 213.297 366.685 214.749 367.468 215.867C367.984 216.475 368.545 217.045 369.145 217.57C370.823 219.408 370.873 222.179 370.755 224.671C370.705 225.676 370.649 226.682 370.582 227.687C369.669 241.107 366.955 254.344 362.514 267.042C362.085 268.398 361.524 269.708 360.836 270.952C359.714 272.7 358.313 274.251 356.687 275.544C354.384 277.509 351.917 279.273 349.312 280.818C347.573 281.845 345.717 282.829 344.526 284.46C343.335 286.091 343.072 288.566 344.548 289.94Z" fill="black"/>
<path d="M344.548 289.94C345.784 291.057 347.674 291.029 349.351 290.906L356.995 290.348C363.067 289.901 369.346 289.398 374.703 286.51C375.27 286.251 375.772 285.869 376.174 285.393C376.599 284.662 376.821 283.831 376.817 282.985C377.54 274.711 379.187 266.544 381.726 258.635C385.081 248.105 390.113 237.726 390.046 226.704C383.584 227.418 377.084 227.739 370.582 227.665C369.669 241.085 366.955 254.322 362.514 267.02C362.085 268.375 361.523 269.685 360.836 270.93C359.714 272.677 358.313 274.229 356.687 275.522C354.384 277.487 351.917 279.251 349.312 280.795C347.573 281.823 345.717 282.806 344.526 284.437C343.335 286.069 343.072 288.566 344.548 289.94Z" fill="#EEEFF3"/>
<path opacity="0.1" d="M344.548 289.94C345.784 291.057 347.674 291.029 349.351 290.906L356.995 290.348C363.067 289.901 369.346 289.398 374.703 286.51C375.27 286.251 375.772 285.869 376.174 285.393C376.599 284.662 376.821 283.831 376.817 282.985C377.54 274.711 379.187 266.544 381.726 258.635C385.081 248.105 390.113 237.726 390.046 226.704C383.584 227.418 377.084 227.739 370.582 227.665C369.669 241.085 366.955 254.322 362.514 267.02C362.085 268.375 361.523 269.685 360.836 270.93C359.714 272.677 358.313 274.229 356.687 275.522C354.384 277.487 351.917 279.251 349.312 280.795C347.573 281.823 345.717 282.806 344.526 284.437C343.335 286.069 343.072 288.566 344.548 289.94Z" fill="black"/>
<path d="M361.434 287.583C363.271 286.925 365.036 286.083 366.701 285.069L375.128 280.321C375.889 279.828 376.737 279.485 377.627 279.31L378.634 286.823C378.885 288.666 379.02 290.834 377.627 292.068C377.13 292.465 376.56 292.761 375.95 292.94C372.891 293.996 369.592 294.018 366.355 294.119C356.413 294.437 346.371 295.599 336.575 293.856C335.378 293.644 334.081 293.297 333.359 292.348C332.537 291.231 332.772 289.611 333.566 288.477C334.437 287.399 335.545 286.536 336.804 285.957C339.298 284.616 341.886 283.477 344.475 282.332C344.635 282.237 344.824 282.205 345.006 282.242C345.258 282.326 345.336 282.633 345.403 282.89C345.856 284.723 347.333 286.169 349.016 287.035C349.038 287.035 357.71 288.767 361.434 287.583Z" fill="#BBBDC8"/>
<path opacity="0.1" d="M361.434 287.583C363.271 286.925 365.036 286.083 366.701 285.069L375.128 280.321C375.889 279.828 376.737 279.485 377.627 279.31L378.634 286.823C378.885 288.666 379.02 290.834 377.627 292.068C377.13 292.465 376.56 292.761 375.95 292.94C372.891 293.996 369.592 294.018 366.355 294.119C356.413 294.437 346.371 295.599 336.575 293.856C335.378 293.644 334.081 293.297 333.359 292.348C332.537 291.231 332.772 289.611 333.566 288.477C334.437 287.399 335.545 286.536 336.804 285.957C339.298 284.616 341.886 283.477 344.475 282.332C344.635 282.237 344.824 282.205 345.006 282.242C345.258 282.326 345.336 282.633 345.403 282.89C345.856 284.723 347.333 286.169 349.016 287.035C349.038 287.035 357.71 288.767 361.434 287.583Z" fill="black"/>
<path d="M350.139 297.761C351.375 298.878 353.265 298.85 354.942 298.727L362.586 298.169C368.658 297.722 374.938 297.219 380.294 294.331C380.861 294.072 381.364 293.69 381.765 293.214C382.191 292.483 382.413 291.652 382.408 290.806C383.131 282.532 384.778 274.365 387.317 266.456C390.672 255.926 395.705 245.547 395.637 234.525C395.637 234.257 395.637 233.967 395.637 233.726C395.542 230.274 394.933 226.861 394.558 223.425C393.938 217.677 393.999 211.884 394.044 206.108C393.996 203.844 394.153 201.579 394.514 199.343C394.866 197.528 396.191 195.707 395.38 194.109C393.809 191.009 388.111 189.869 385.047 189.757C380.921 189.612 376.861 190.69 372.874 191.763C371.661 192.092 370.392 192.444 369.475 193.299C368.245 194.45 367.892 196.254 367.848 197.936C367.635 205.393 371.935 212.331 372.276 219.778C372.338 221.118 372.276 222.571 373.059 223.688C373.575 224.296 374.136 224.866 374.736 225.392C376.414 227.23 376.464 230 376.347 232.492C376.296 233.497 376.241 234.503 376.173 235.508C375.26 248.928 372.546 262.165 368.105 274.863C367.677 276.219 367.115 277.529 366.427 278.773C365.306 280.521 363.904 282.072 362.279 283.365C359.975 285.33 357.508 287.095 354.903 288.639C353.164 289.667 351.308 290.65 350.117 292.281C348.926 293.912 348.663 296.387 350.139 297.761Z" fill="#FDA8A8"/>
<path d="M350.139 297.76C351.375 298.877 353.265 298.85 354.942 298.727L362.586 298.168C368.658 297.721 374.938 297.218 380.294 294.33C380.861 294.071 381.364 293.69 381.765 293.213C382.191 292.482 382.413 291.651 382.408 290.805C383.131 282.531 384.778 274.364 387.317 266.455C390.672 255.925 395.704 245.546 395.637 234.524C389.175 235.238 382.675 235.559 376.173 235.485C375.26 248.905 372.546 262.142 368.105 274.84C367.677 276.196 367.115 277.506 366.427 278.75C365.306 280.498 363.904 282.049 362.278 283.342C359.975 285.307 357.508 287.071 354.903 288.616C353.164 289.643 351.308 290.627 350.117 292.258C348.926 293.889 348.663 296.386 350.139 297.76Z" fill="#EEEFF3"/>
<path d="M367.026 295.403C368.863 294.746 370.627 293.903 372.293 292.889L380.72 288.141C381.481 287.648 382.329 287.305 383.219 287.13L384.226 294.643C384.477 296.487 384.611 298.654 383.219 299.889C382.722 300.285 382.152 300.581 381.542 300.76C378.483 301.816 375.184 301.838 371.947 301.939C362.005 302.257 351.963 303.419 342.166 301.676C340.97 301.464 339.673 301.118 338.951 300.168C338.129 299.051 338.364 297.431 339.158 296.297C340.028 295.219 341.136 294.357 342.396 293.777C344.889 292.437 347.478 291.297 350.067 290.152C350.227 290.057 350.416 290.026 350.598 290.063C350.85 290.146 350.928 290.454 350.995 290.711C351.448 292.543 352.924 293.99 354.607 294.856C354.63 294.856 363.302 296.587 367.026 295.403Z" fill="#BBBDC8"/>
<path d="M339.298 71.1619C342.021 67.8101 342.094 63.1289 342.027 58.8275C342.027 57.1517 341.976 55.4199 341.915 53.7161V53.677C341.839 50.5457 341.508 47.4257 340.925 44.3481C340.631 42.8712 340.239 41.4156 339.751 39.9908C340.12 39.907 340.489 39.8288 340.869 39.7618C346.73 38.6054 352.761 38.6054 358.622 39.7618C359.634 39.9629 362.195 39.9182 363.654 40.4154C364.07 40.5145 364.432 40.7682 364.666 41.1248C364.952 41.7226 364.365 43.4543 363.94 44.9905C363.706 45.6828 363.574 46.4054 363.548 47.1356C363.605 47.8217 363.709 48.503 363.861 49.1746C364.124 50.4091 364.471 51.6325 364.633 52.8838C364.918 55.0177 364.666 57.1908 364.806 59.3414C364.946 61.4921 365.567 63.7545 367.205 65.1567C357.686 65.972 348.309 67.9898 339.298 71.1619Z" fill="#FDA8A8"/>
<path opacity="0.1" d="M366.092 48.9293C365.348 48.9908 364.61 49.0634 363.856 49.1472C356.408 49.9416 349.058 51.4761 341.915 53.7279V53.6888L340.925 44.3598C340.925 43.8012 340.925 43.2426 340.925 42.656C340.925 41.7008 340.897 40.7343 340.875 39.7735C346.736 38.6172 352.766 38.6172 358.628 39.7735C359.64 39.9746 362.2 39.9299 363.66 40.4271C363.66 41.3377 363.66 42.2482 363.693 43.1588C363.73 43.7787 363.814 44.395 363.945 45.0022C364.213 46.5103 364.967 47.8895 366.092 48.9293Z" fill="black"/>
<path d="M351.985 51.4932C363.411 51.4932 372.673 42.2394 372.673 30.8242C372.673 19.4091 363.411 10.1553 351.985 10.1553C340.559 10.1553 331.296 19.4091 331.296 30.8242C331.296 42.2394 340.559 51.4932 351.985 51.4932Z" fill="#FDA8A8"/>
<path d="M333.813 108.757C330.139 95.7695 333.494 81.8207 342.267 71.5644C344.218 69.2797 346.181 66.9335 348.742 65.5648C351.789 63.9448 355.396 63.889 358.846 63.8555C361.893 63.8555 365.036 63.8555 367.837 65.0677C371.622 66.6821 374.234 70.1902 376.437 73.6704C378.785 77.3797 380.91 81.3962 381.268 85.7757C381.458 88.3733 380.999 91.01 381.385 93.5964C381.877 96.8755 383.706 99.8139 384.455 103.043C384.863 104.786 384.947 106.59 385.21 108.366C385.606 110.796 386.181 113.194 386.932 115.539C392.488 133.968 400.095 151.717 409.611 168.452C412.407 173.384 415.398 178.261 417.277 183.607C418.127 186.026 418.742 188.635 418.049 191.126C416.891 195.26 411.663 197.69 407.755 195.908C407.899 196.367 407.87 196.863 407.672 197.302C407.474 197.741 407.121 198.092 406.681 198.288C405.752 198.707 404.736 198.898 403.718 198.846L369.184 199.762C368.277 199.785 367.376 199.907 366.495 200.125C362.436 201.164 363.962 202.919 363.526 204.382C362.995 206.17 360.428 206.024 358.639 205.499C358.913 208.108 358.974 211.298 355.603 212.058C354.728 212.235 353.824 212.204 352.964 211.968C346.845 210.394 340.501 209.883 334.21 210.46C331.906 210.672 329.272 210.929 327.567 209.343C326.281 208.164 325.945 206.287 325.727 204.555C322.289 177.183 329.362 149.771 334.674 122.729C335.389 119.081 335.132 113.171 334.059 109.607L333.813 108.757Z" fill="#F75842"/>
<path d="M379.663 89.8926C380.474 92.2276 381.486 94.5236 381.76 96.9815C381.978 98.9478 381.715 100.937 381.832 102.908C382.047 105.098 382.499 107.257 383.18 109.349C384.256 113.418 385.584 117.416 387.155 121.321C387.905 123.08 388.771 125.019 388.168 126.834C387.564 128.65 385.69 129.773 385.154 131.577C384.595 133.482 385.713 135.487 387.139 136.878C388.564 138.269 390.348 139.258 391.668 140.738C393.105 142.353 393.904 144.414 394.916 146.324C396.354 148.851 398.001 151.253 399.843 153.503L406.603 162.267C407.024 162.899 407.577 163.433 408.224 163.832C410.461 164.994 412.804 162.653 415.079 161.597C418.099 160.161 421.633 161.005 424.971 161.245C428.309 161.485 432.329 160.62 433.52 157.502C433.914 156.237 433.997 154.896 433.761 153.592C433.237 149.135 431.947 144.801 429.947 140.783C428.728 138.336 427.241 135.996 426.475 133.376C425.849 131.247 425.726 129.007 425.228 126.845C424.73 124.684 423.852 122.617 423.148 120.505C418.149 105.5 421.907 89.0826 420.291 73.3519C419.692 67.5478 417.92 61.1851 412.921 58.163C409.952 56.3698 406.385 56.0905 402.856 55.9285L401.263 55.8558L398.696 55.7274C394.984 55.543 391.26 55.4034 387.642 56.191C382.554 57.3083 376.431 61.2577 376.23 66.9333C376.011 74.7287 377.173 82.5014 379.663 89.8926Z" fill="#9DCAFF"/>
<path opacity="0.1" d="M398.724 55.7051C399.41 59.5062 399.753 63.3614 399.747 67.2238C399.848 78.251 401.039 89.2335 402.236 100.182L403.024 107.445C403.169 108.785 403.343 110.193 404.142 111.271C404.942 112.349 406.619 112.913 407.676 112.081C408.325 109.517 408.196 106.824 408.067 104.182C407.788 98.5625 407.51 92.9409 407.234 87.3174C406.966 81.8429 406.675 76.3629 406.01 70.9219C405.488 66.7075 404.719 62.5275 403.706 58.4032C403.514 57.5488 403.247 56.7132 402.907 55.9062L401.313 55.8335L398.724 55.7051Z" fill="black"/>
<path d="M362.189 60.4307C358.762 59.9392 355.172 59.6878 351.918 60.8776C348.809 62.0228 346.326 64.3746 344.09 66.8493C342.565 68.444 341.304 70.2712 340.355 72.2623C338.448 76.6419 339.192 81.6918 340.355 86.3284C343.525 99.0985 349.821 111.416 359.925 119.846C363.001 122.342 366.275 124.584 369.716 126.549C374.189 129.169 378.807 131.577 383.756 133.091C385.137 133.515 386.607 133.873 388.022 133.571C389.437 133.269 390.773 132.124 390.818 130.677C382.71 126.125 375.441 120.242 368.223 114.388C366.244 112.863 364.391 111.182 362.681 109.36C360.121 106.483 358.314 103.009 355.832 100.065C353.595 97.4226 350.799 95.1937 349.122 92.1716C348.069 90.1076 347.365 87.8842 347.036 85.591C346.209 80.9154 346.052 75.9492 347.909 71.5752C349.765 67.2012 354.02 63.6093 358.773 63.6875C361.211 63.7266 363.531 64.693 365.779 65.6371L379.926 71.6032C379.752 71.525 380.736 69.0726 380.692 68.7318C380.557 67.6649 380.367 67.6481 379.573 66.8381C378.22 65.4863 376.118 64.5366 374.401 63.749C370.511 62.0641 366.398 60.9466 362.189 60.4307Z" fill="#9DCAFF"/>
<path d="M334.03 26.914C338.066 26.0181 341.801 24.0936 344.872 21.3278L341.914 36.8351C344.861 35.4839 347.718 33.9464 350.469 32.2321C350.866 39.3265 350.29 46.583 347.674 53.1859C345.057 59.7888 340.231 65.699 333.756 68.6318C339.504 69.5926 344.665 65.47 349.782 62.6825C353.349 60.7441 359.444 62.7383 363.346 61.5652C366.657 60.5932 370.056 59.7441 373.042 58.0068C378.589 54.7724 379.847 45.3261 380.971 39.0137C382.095 32.7013 381.072 26.1654 379.204 20.0206C378.582 17.8444 377.741 15.7369 376.693 13.7305C375.253 11.0957 373.281 8.78808 370.903 6.95336C368.524 5.11863 365.791 3.79673 362.875 3.0712C359.959 2.34567 356.924 2.23227 353.962 2.73818C351 3.24409 348.175 4.35829 345.666 6.01039C340.511 9.40122 335.73 14.3897 331.794 19.1212C331.235 19.7748 328.925 22.0987 329.691 23.0763C330.625 24.2605 336.105 20.8865 337.033 20.4284C336.765 21.4395 335.098 26.6514 334.03 26.914Z" fill="#464353"/>
<g opacity="0.1">
<path opacity="0.1" d="M357.296 207.588C356.422 207.765 355.518 207.735 354.657 207.499C348.539 205.924 342.195 205.414 335.903 205.991C333.6 206.203 330.966 206.46 329.261 204.873C327.975 203.695 327.639 201.818 327.421 200.086C323.982 172.714 331.056 145.302 336.368 118.259C337.083 114.611 336.826 108.701 335.752 105.137L335.501 104.271C333.431 96.8862 333.553 89.0592 335.853 81.7422C332.038 90.2333 331.316 99.7901 333.812 108.757L334.064 109.623C335.137 113.187 335.395 119.12 334.679 122.745C329.384 149.788 322.31 177.216 325.732 204.572C325.951 206.303 326.292 208.18 327.572 209.359C329.25 210.929 331.911 210.672 334.215 210.476C340.506 209.9 346.85 210.41 352.969 211.985C353.829 212.221 354.733 212.251 355.608 212.074C358.359 211.454 358.823 209.214 358.756 206.996C358.309 207.28 357.815 207.481 357.296 207.588Z" fill="black"/>
<path opacity="0.1" d="M409.443 191.439C409.587 191.898 409.558 192.394 409.36 192.833C409.162 193.272 408.809 193.622 408.369 193.818C407.44 194.237 406.424 194.429 405.406 194.377L370.873 195.293C369.966 195.316 369.064 195.438 368.183 195.656C364.124 196.695 365.65 198.449 365.214 199.913C364.683 201.7 362.116 201.555 360.327 201.03C360.495 202.622 360.579 204.426 359.857 205.767C361.429 206.002 363.117 205.795 363.537 204.382C363.956 202.968 362.446 201.164 366.506 200.125C367.386 199.907 368.288 199.785 369.195 199.762L403.706 198.846C404.724 198.898 405.74 198.706 406.669 198.287C407.11 198.091 407.462 197.741 407.66 197.302C407.858 196.863 407.888 196.367 407.743 195.908C411.657 197.69 416.879 195.26 418.037 191.126C418.211 190.499 418.309 189.854 418.328 189.204C416.236 191.707 412.451 192.824 409.443 191.439Z" fill="black"/>
</g>
<path d="M363.117 74.709C366.087 81.0183 368.714 87.4835 370.984 94.0764C372.819 99.3889 374.434 104.969 373.825 110.556C373.216 116.142 369.911 121.784 364.543 123.544C362.262 124.292 359.818 124.298 357.42 124.354C351.674 124.488 345.941 124.951 340.248 125.739C337.599 126.177 334.928 126.473 332.247 126.627C328.456 126.75 324.665 126.158 320.885 126.465C314.768 126.962 308.958 129.817 302.819 129.817C302.07 129.863 301.321 129.725 300.638 129.415C299.52 128.811 299.022 127.504 298.642 126.298C297.786 123.572 297.115 120.443 298.563 117.98C300.347 114.946 304.401 114.338 307.918 114.069C315.836 113.511 323.762 113.12 331.699 112.896C338.47 112.706 345.806 112.449 351.056 108.17C351.411 107.917 351.7 107.584 351.901 107.198C352.099 106.544 352.075 105.843 351.834 105.204C349.753 97.0798 348.86 88.6974 349.183 80.3175C349.147 79.5659 349.342 78.8212 349.742 78.1836C350.218 77.6723 350.835 77.3143 351.515 77.1557C356.203 75.653 361.222 75.5135 365.986 76.7535" fill="#FDA8A8"/>
<path d="M349.044 80.3118C348.232 80.5907 347.526 81.1112 347.02 81.8033C347.243 79.4739 346.941 77.1221 346.986 74.7759C347.031 72.4297 347.467 69.9829 348.949 68.1618C350.833 65.8379 354.037 65.0056 357.034 64.9274C361.384 64.8101 365.885 66.0726 369.073 69.0332C371.124 70.9522 372.456 73.515 372.847 76.2953C372.947 77.0606 373.283 79.932 372.483 80.4235C371.784 80.8593 369.128 79.3566 368.273 79.1164C361.921 77.2513 355.115 77.6744 349.044 80.3118Z" fill="#F75842"/>
<defs>
<linearGradient id="paint0_linear" x1="215.026" y1="304.62" x2="215.026" y2="2.6132" gradientUnits="userSpaceOnUse">
<stop stop-color="#808080" stop-opacity="0.25"/>
<stop offset="0.54" stop-color="#808080" stop-opacity="0.12"/>
<stop offset="1" stop-color="#808080" stop-opacity="0.1"/>
</linearGradient>
<linearGradient id="paint1_linear" x1="100634" y1="237919" x2="100634" y2="74978.2" gradientUnits="userSpaceOnUse">
<stop stop-color="#808080" stop-opacity="0.25"/>
<stop offset="0.54" stop-color="#808080" stop-opacity="0.12"/>
<stop offset="1" stop-color="#808080" stop-opacity="0.1"/>
</linearGradient>
</defs>
</svg>
