<svg width="48" height="47" viewBox="0 0 48 47" fill="none" xmlns="http://www.w3.org/2000/svg">
<path d="M47.9739 37.0199C47.8762 35.4091 47.6293 33.8102 47.2362 32.2423C46.009 27.1228 43.7666 22.0825 39.9054 18.4067C39.6674 17.508 39.3831 16.6214 39.0535 15.7504C39.0473 15.7288 39.0397 15.7077 39.0306 15.6871C37.8788 12.6185 36.2136 9.75499 34.102 7.21157C32.878 5.73619 31.2917 4.27981 29.3399 4.22282C28.7915 4.20383 28.2105 4.29564 27.7079 4.05186C27.3382 3.82002 27.027 3.51057 26.7972 3.14637C25.8306 1.96158 24.5487 1.05547 23.0899 0.52594C21.631 -0.00359155 20.0508 -0.136423 18.5198 0.141793L18.3174 0.182953C18.2032 0.205116 18.0889 0.230441 17.991 0.258935C17.8931 0.28743 17.7169 0.334924 17.5798 0.376082C17.7299 0.616701 17.8768 0.860486 18.0204 1.10744C18.4077 1.77653 18.7668 2.46039 19.0975 3.15903C19.3717 3.74158 19.6252 4.33363 19.858 4.93518C16.5157 5.30561 13.7935 7.60732 11.3064 9.79822L5.45082 14.9525C5.44023 14.9612 5.43041 14.9708 5.42146 14.981L5.25173 15.1393C5.20929 15.1805 5.16686 15.2217 5.12769 15.266C5.1119 15.2792 5.09766 15.294 5.08526 15.3103C5.0363 15.361 4.99061 15.4148 4.94491 15.4686C4.86343 15.5683 4.79031 15.6742 4.72623 15.7852C4.69423 15.8327 4.66587 15.8825 4.64136 15.934C4.63241 15.9492 4.62476 15.9651 4.61851 15.9815C4.59723 16.0247 4.5787 16.0691 4.56303 16.1145C4.56162 16.1207 4.56162 16.1272 4.56303 16.1335C4.5539 16.1594 4.54627 16.1859 4.54018 16.2126C4.47355 16.4354 4.49328 16.6742 4.59566 16.8838L8.45695 16.925H8.91065C8.93023 17.4252 8.94655 17.9286 8.96613 18.4289C8.35346 18.8737 7.76516 19.3492 7.2036 19.8536C6.59128 20.4034 6.01668 20.9914 5.48347 21.6139C2.00081 25.6949 0.182783 30.9664 0 36.2727C0 36.4373 0 36.5893 0 36.7602C0 37.2446 0 37.7291 0 38.2103C0 38.5269 0.0293702 38.8435 0.055482 39.1601C0.0571328 39.5725 0.169634 39.9774 0.38188 40.3347C0.409711 40.3746 0.440231 40.4127 0.47326 40.4487C0.669106 40.6549 0.904052 40.8226 1.16524 40.9426L1.44594 41.0756C1.58629 41.142 1.72011 41.2054 1.85067 41.2782C3.08119 41.9526 3.80905 43.2538 4.9286 44.0896C4.99387 44.1371 5.05915 44.1846 5.12443 44.2258L5.27131 44.3208L5.36271 44.3778L5.48674 44.4474C5.56807 44.495 5.65195 44.5383 5.73805 44.5772L5.89474 44.6532H5.92084C6.0514 44.7102 6.18196 44.764 6.31578 44.8115L6.50183 44.8748L6.55732 44.8938C6.60954 44.9096 6.66503 44.9286 6.72051 44.9413C6.83149 44.973 6.94029 45.0015 7.04691 45.0268L7.37331 45.0964C7.5006 45.1186 7.63116 45.1408 7.76172 45.1566L7.95431 45.1819L8.15014 45.2009C8.4613 45.2284 8.77465 45.2442 9.09016 45.2484C10.0803 45.2425 11.0691 45.1759 12.0506 45.049L20.3803 44.0991C22.2701 43.887 24.1991 43.6749 26.0628 44.0485C27.6426 44.3651 29.0983 45.0933 30.6324 45.6093C30.9784 45.7265 31.3244 45.8341 31.6736 45.9259C31.8009 45.9608 31.9315 45.9988 32.062 46.0304L32.2415 46.0747L32.6593 46.1729C32.8095 46.2077 32.9596 46.2425 33.1098 46.271C33.3219 46.3154 33.5308 46.3534 33.743 46.3913C33.8866 46.4198 34.0335 46.442 34.1803 46.4673H34.2097L34.6275 46.5307H34.7287L35.0388 46.5718C35.1889 46.594 35.3391 46.613 35.4925 46.6288C35.8254 46.6689 36.1583 46.7037 36.4912 46.7333C37.0298 46.7839 37.5716 46.8219 38.1232 46.8536L38.665 46.8853L39.2069 46.9106L40.8389 46.9802H40.9107H41.1391C41.8176 47.0261 42.4993 46.9921 43.1693 46.8789C43.2868 46.8568 43.4011 46.8314 43.5153 46.7998C43.6296 46.7681 43.7242 46.7365 43.8417 46.6985C45.0657 46.2425 45.96 45.1946 46.5802 44.0738C46.7107 43.8363 46.8315 43.5989 46.9425 43.3551C47.0535 43.1113 47.1547 42.8644 47.246 42.6174C47.3603 42.3008 47.4582 42 47.5431 41.6834C47.5692 41.598 47.592 41.5125 47.6116 41.4238C47.6312 41.3352 47.6769 41.161 47.703 41.0281C47.7846 40.664 47.8466 40.2967 47.8923 39.9263C47.8923 39.8091 47.9217 39.6888 47.9347 39.5717C47.9641 39.2551 47.9869 38.9606 48 38.6504C48 38.4161 48 38.1786 48 37.9412C47.9967 37.6847 47.9739 37.346 47.9739 37.0199ZM39.6051 18.1186C39.3407 17.878 39.0698 17.6468 38.7956 17.4284C39.1007 17.6151 39.3729 17.8482 39.6018 18.1186H39.6051Z" fill="#FF4545"/>
</svg>
