<svg width="449" height="221" viewBox="0 0 449 221" fill="none" xmlns="http://www.w3.org/2000/svg">
<path d="M393.067 66.947C388.8 69.829 371.207 70.462 371.207 70.462C371.207 70.462 378.363 54.3736 382.63 51.4875C384.68 50.1553 387.171 49.6814 389.566 50.168C391.962 50.6546 394.071 52.0627 395.439 54.0892C396.807 56.1156 397.325 58.5985 396.882 61.0032C396.438 63.408 395.068 65.5424 393.067 66.947Z" fill="#9DCAFF"/>
<path d="M350.195 78.7542C354.2 81.9902 371.673 84.1267 371.673 84.1267C371.673 84.1267 365.919 67.4677 361.914 64.2442C359.985 62.7475 357.547 62.067 355.122 62.3491C352.697 62.6311 350.479 63.8531 348.945 65.7526C347.411 67.6522 346.682 70.0779 346.916 72.5088C347.15 74.9397 348.327 77.182 350.195 78.7542Z" fill="#9DCAFF"/>
<path d="M393.067 66.947C388.8 69.829 371.207 70.462 371.207 70.462C371.207 70.462 378.363 54.3736 382.63 51.4875C384.68 50.1553 387.171 49.6814 389.566 50.168C391.962 50.6546 394.071 52.0627 395.439 54.0892C396.807 56.1156 397.325 58.5985 396.882 61.0032C396.438 63.408 395.068 65.5424 393.067 66.947Z" fill="#FC6681"/>
<path d="M350.195 78.7542C354.2 81.9902 371.673 84.1267 371.673 84.1267C371.673 84.1267 365.919 67.4677 361.914 64.2442C359.985 62.7475 357.547 62.067 355.122 62.3491C352.697 62.6311 350.479 63.8531 348.945 65.7526C347.411 67.6522 346.682 70.0779 346.916 72.5088C347.15 74.9397 348.327 77.182 350.195 78.7542Z" fill="#FC6681"/>
<path d="M449 211.955L412.526 51.4125H398.975C398.434 45.2779 398.072 39.3348 397.934 33.7374C397.934 33.7374 348.809 44.4907 309.633 13.3801C270.457 -17.7305 224.4 16.0705 224.4 16.0705L224.221 15.9414V15.8789V15.9581C221.024 13.6924 176.902 -16.5561 139.18 13.4051C100.021 44.5157 50.8783 33.7623 50.8783 33.7623C50.741 39.4306 50.3746 45.4236 49.8209 51.6166H37.2481L0 212.534C0 212.534 151.415 218.206 204.475 212.975C206.378 216.999 214.579 220.022 224.404 220.022C235.445 220.022 244.425 216.203 244.737 211.443C286.04 214.587 374.916 219.614 449 211.955Z" fill="url(#paint0_linear)"/>
<path d="M41.149 52.8244L4.68359 210.393C4.68359 210.393 205.42 217.915 221.586 207.386C221.586 207.386 346.203 219.985 444.316 209.831L408.605 52.6411L41.149 52.8244Z" fill="#E2E2EC"/>
<path opacity="0.1" d="M53.5552 58.2677L19.5586 205.171C19.5586 205.171 206.711 212.184 221.781 202.368C221.781 202.368 337.964 214.112 429.437 204.646L396.132 58.0928L53.5552 58.2677Z" fill="black"/>
<path d="M394.321 35.3404C394.321 35.3404 346.203 45.8689 307.86 15.408C269.517 -15.053 224.404 18.0401 224.404 18.0401C224.404 18.0401 179.296 -15.053 140.953 15.408C102.61 45.8689 54.4921 35.3404 54.4921 35.3404C52.9767 96.6372 24.4214 195.916 24.4214 195.916C24.4214 195.916 77.0483 210.206 146.594 181.252C216.14 152.299 224.409 191.406 224.409 191.406C224.409 191.406 232.677 152.295 302.223 181.252C371.769 210.21 424.396 195.916 424.396 195.916C424.396 195.916 395.824 96.6372 394.321 35.3404Z" fill="#F1F2FB"/>
<path opacity="0.1" d="M131.557 192.543C131.557 192.543 195.087 178.254 224.396 199.311C224.396 199.311 252.589 173.739 317.997 193.672" fill="black"/>
<path d="M224.404 217.728C235.408 217.728 244.329 213.855 244.329 209.077C244.329 204.3 235.408 200.427 224.404 200.427C213.4 200.427 204.479 204.3 204.479 209.077C204.479 213.855 213.4 217.728 224.404 217.728Z" fill="#E8EAF8"/>
<path opacity="0.1" d="M224.217 17.853C224.217 17.853 238.501 90.432 224.591 192.718L224.217 17.853Z" fill="black"/>
<path opacity="0.1" d="M68.2554 58.0924C68.2554 58.0924 98.1762 65.0475 124.075 58.0924C149.975 51.1373 197.527 28.3853 213.168 58.0924" stroke="black" stroke-width="4" stroke-miterlimit="10"/>
<path opacity="0.1" d="M68.2554 70.8785C68.2554 70.8785 98.1762 77.8336 124.075 70.8785C149.975 63.9234 206.053 64.2982 213.168 70.8785" stroke="black" stroke-width="4" stroke-miterlimit="10"/>
<path opacity="0.1" d="M68.2554 93.4225C68.2554 93.4225 98.1762 100.378 124.075 93.4225C149.975 86.4674 197.527 63.7154 213.168 93.4225" stroke="black" stroke-width="4" stroke-miterlimit="10"/>
<path opacity="0.1" d="M68.2554 106.225C68.2554 106.225 98.1762 113.18 124.075 106.225C149.975 99.2696 206.053 99.6444 213.168 106.225" stroke="black" stroke-width="4" stroke-miterlimit="10"/>
<path opacity="0.1" d="M380.557 58.0924C380.557 58.0924 350.636 65.0475 324.737 58.0924C298.838 51.1373 251.286 28.3853 235.645 58.0924" stroke="black" stroke-width="4" stroke-miterlimit="10"/>
<path opacity="0.1" d="M380.557 70.8785C380.557 70.8785 350.636 77.8336 324.737 70.8785C298.838 63.9234 242.76 64.2982 235.645 70.8785" stroke="black" stroke-width="4" stroke-miterlimit="10"/>
<path opacity="0.1" d="M380.557 93.4225C380.557 93.4225 350.636 100.378 324.737 93.4225C298.838 86.4674 251.286 63.7154 235.645 93.4225" stroke="black" stroke-width="4" stroke-miterlimit="10"/>
<path opacity="0.1" d="M380.557 106.225C380.557 106.225 350.636 113.18 324.737 106.225C298.838 99.2696 242.76 99.6444 235.645 106.225" stroke="black" stroke-width="4" stroke-miterlimit="10"/>
<defs>
<linearGradient id="paint0_linear" x1="224.5" y1="220.018" x2="224.5" y2="0.227835" gradientUnits="userSpaceOnUse">
<stop stop-color="#808080" stop-opacity="0.25"/>
<stop offset="0.54" stop-color="#808080" stop-opacity="0.12"/>
<stop offset="1" stop-color="#808080" stop-opacity="0.1"/>
</linearGradient>
</defs>
</svg>
