<svg width="238" height="263" viewBox="0 0 238 263" fill="none" xmlns="http://www.w3.org/2000/svg">
<path d="M237.835 124.091C237.962 127.333 237.981 130.605 237.888 133.901L236.389 133.858C236.343 135.473 236.27 137.093 236.17 138.718C236.07 140.343 235.943 141.96 235.789 143.568L237.283 143.71C236.97 146.992 236.549 150.237 236.023 153.439L234.543 153.196C234.015 156.415 233.381 159.592 232.646 162.72L234.106 163.064C233.352 166.27 232.492 169.427 231.532 172.53L230.099 172.087C229.135 175.199 228.07 178.256 226.906 181.254L228.304 181.797C227.113 184.865 225.821 187.872 224.432 190.813L223.075 190.172C221.686 193.114 220.199 195.989 218.62 198.791L219.927 199.528C218.313 202.393 216.603 205.185 214.802 207.898L213.553 207.068C211.756 209.775 209.868 212.403 207.895 214.945L209.08 215.864C207.065 218.461 204.962 220.97 202.775 223.386L201.663 222.379C199.485 224.786 197.224 227.1 194.886 229.314L195.918 230.403C193.534 232.66 191.072 234.815 188.535 236.863L187.593 235.696C185.071 237.732 182.476 239.661 179.813 241.476L180.658 242.715C177.949 244.562 175.171 246.293 172.33 247.902L171.591 246.597C168.778 248.19 165.903 249.662 162.971 251.008L163.597 252.371C160.623 253.735 157.593 254.971 154.511 256.072L154.006 254.659C150.971 255.744 147.887 256.695 144.758 257.508L145.135 258.96C141.978 259.78 138.777 260.462 135.537 260.999L135.292 259.519C132.126 260.043 128.923 260.428 125.689 260.666L125.799 262.162C122.559 262.401 119.288 262.495 115.991 262.44L116.017 260.94C114.409 260.913 112.795 260.85 111.175 260.75C109.556 260.65 107.946 260.514 106.347 260.344L106.188 261.835C102.91 261.485 99.6749 260.989 96.4887 260.353L96.7821 258.882C93.6018 258.248 90.4706 257.473 87.3934 256.563L86.9681 258.001C83.8188 257.07 80.7255 256 77.6934 254.798L78.2463 253.403C75.2413 252.212 72.2969 250.888 69.4184 249.439L68.744 250.779C65.8209 249.307 62.9651 247.708 60.1821 245.989L60.9706 244.713C58.2268 243.017 55.5543 241.202 52.9583 239.275L52.0642 240.48C49.4427 238.533 46.8987 236.474 44.4375 234.308L45.4284 233.182C43.0094 231.054 40.6709 228.82 38.4184 226.489L37.3397 227.532C35.0745 225.187 32.8956 222.746 30.8079 220.213L31.9654 219.259C29.9174 216.774 27.9581 214.2 26.0925 211.544L24.8649 212.406C22.9924 209.74 21.2133 206.991 19.5326 204.166L20.8216 203.399C19.1763 200.634 17.6261 197.795 16.1759 194.887L14.8336 195.557C13.3804 192.643 12.0266 189.662 10.7768 186.62L12.1643 186.05C10.9418 183.074 9.81994 180.038 8.80303 176.948L7.3782 177.417C6.36143 174.328 5.44856 171.185 4.64392 167.994L6.09839 167.627C5.312 164.508 4.63006 161.343 4.05675 158.136L2.58016 158.4C2.00836 155.202 1.54349 151.963 1.18957 148.689L2.68089 148.528C2.33549 145.332 2.09687 142.102 1.96887 138.843L0.470026 138.902C0.342688 135.659 0.323703 132.387 0.416749 129.092L1.91615 129.134C1.96172 127.52 2.03444 125.9 2.13475 124.274C2.23507 122.649 2.36211 121.032 2.51536 119.425L1.02213 119.282C1.33505 116 1.75618 112.756 2.28129 109.553L3.76152 109.796C4.28936 106.577 4.92333 103.401 5.65904 100.272L4.19886 99.9286C4.95272 96.7227 5.81231 93.5656 6.77304 90.462L8.20596 90.9056C9.16922 87.7937 10.2352 84.7363 11.3991 81.738L10.0008 81.1952C11.1917 78.1274 12.4841 75.1205 13.8731 72.1794L15.2294 72.8199C16.6186 69.8785 18.1052 67.0038 19.6843 64.2008L18.3774 63.4646C19.9919 60.5989 21.7019 57.8071 23.5024 55.0944L24.7521 55.9239C26.5489 53.2168 28.4364 50.5896 30.4093 48.0477L29.2243 47.128C31.2396 44.5314 33.3432 42.0224 35.5294 39.6064L36.6416 40.6129C38.8198 38.2059 41.0807 35.8926 43.4186 33.6787L42.3872 32.5896C44.7705 30.3326 47.2332 28.1774 49.7694 26.1295L50.7117 27.2966C53.2338 25.26 55.8291 23.3314 58.4916 21.5163L57.6467 20.2769C60.3555 18.4303 63.1334 16.6995 65.9743 15.0904L66.7135 16.3955C69.5268 14.8021 72.4022 13.3299 75.3337 11.9846L74.7081 10.6213C77.6814 9.2569 80.7121 8.02122 83.794 6.9203L84.2986 8.33287C87.3334 7.24876 90.4182 6.29723 93.5469 5.48412L93.1696 4.03234C96.3266 3.21188 99.528 2.53033 102.768 1.99357L103.013 3.47339C106.179 2.94892 109.381 2.56465 112.616 2.32621L112.505 0.83027C115.746 0.59139 119.017 0.496856 122.313 0.552196L122.288 2.05198C123.896 2.07897 125.51 2.14211 127.129 2.24206C128.749 2.34201 130.358 2.47781 131.957 2.64872L132.117 1.15722C135.395 1.50766 138.63 2.00371 141.816 2.6392L141.523 4.11022C144.703 4.74454 147.834 5.51973 150.911 6.42948L151.337 4.99103C154.486 5.9221 157.579 6.99215 160.611 8.19458L160.058 9.58894C163.063 10.7806 166.008 12.1042 168.886 13.5533L169.561 12.2135C172.484 13.685 175.34 15.284 178.123 17.0037L177.334 18.2797C180.078 19.9752 182.75 21.7898 185.346 23.7171L186.241 22.5127C188.862 24.4589 191.406 26.5182 193.867 28.6839L192.876 29.81C195.295 31.9387 197.634 34.1718 199.886 36.503L200.965 35.4607C203.23 37.8049 205.409 40.2466 207.497 42.7795L206.339 43.7335C208.387 46.2181 210.347 48.7918 212.212 51.4484L213.44 50.5864C215.312 53.2528 217.091 56.0014 218.772 58.8261L217.483 59.5931C219.128 62.3584 220.679 65.1977 222.129 68.1052L223.471 67.4357C224.924 70.3492 226.278 73.33 227.528 76.3725L226.14 76.9425C227.363 79.9183 228.485 82.954 229.502 86.044L230.927 85.5751C231.943 88.6646 232.856 91.8076 233.661 94.9986L232.206 95.3654C232.993 98.484 233.675 101.649 234.248 104.856L235.725 104.592C236.296 107.79 236.761 111.029 237.115 114.303L235.624 114.464C235.969 117.66 236.208 120.89 236.336 124.149L237.835 124.091Z" stroke="black" stroke-width="3" stroke-dasharray="10 10"/>
</svg>
