<svg width="241" height="209" viewBox="0 0 241 209" fill="none" xmlns="http://www.w3.org/2000/svg">
<g clip-path="url(#clip0)">
<g opacity="0.5">
<path opacity="0.5" d="M36.6182 37.2278H35.6619V42.652H36.6182V37.2278Z" fill="#47E6B1"/>
<path opacity="0.5" d="M38.8496 40.4185V39.4613H33.4306V40.4185H38.8496Z" fill="#47E6B1"/>
</g>
<g opacity="0.5">
<path opacity="0.5" d="M70.6116 155.278H69.6553V160.702H70.6116V155.278Z" fill="#47E6B1"/>
<path opacity="0.5" d="M72.8398 158.469V157.512H67.4208V158.469H72.8398Z" fill="#47E6B1"/>
</g>
<g opacity="0.5">
<path opacity="0.5" d="M23.0288 92.2718H22.0725V97.696H23.0288V92.2718Z" fill="#47E6B1"/>
<path opacity="0.5" d="M25.2603 95.4625V94.5053H19.8412V95.4625H25.2603Z" fill="#47E6B1"/>
</g>
<g opacity="0.5">
<path opacity="0.5" d="M190.454 0H189.498V5.4242H190.454V0Z" fill="#47E6B1"/>
<path opacity="0.5" d="M192.685 3.19071V2.23349L187.266 2.23349V3.19071L192.685 3.19071Z" fill="#47E6B1"/>
</g>
<g opacity="0.5">
<path opacity="0.5" d="M29.0911 13.4901H28.1348V18.9143H29.0911V13.4901Z" fill="#47E6B1"/>
<path opacity="0.5" d="M31.3196 16.6808V15.7236H25.9005V16.6808H31.3196Z" fill="#47E6B1"/>
</g>
<path opacity="0.5" d="M47.4132 135.921C47.1498 135.806 46.9379 135.598 46.8177 135.337C46.6975 135.076 46.6774 134.779 46.7613 134.504C46.7748 134.462 46.7835 134.419 46.7871 134.375C46.8064 134.244 46.7803 134.111 46.7132 133.998C46.6461 133.884 46.5421 133.797 46.4185 133.752C46.295 133.706 46.1595 133.704 46.0347 133.746C45.9099 133.788 45.8035 133.872 45.7332 133.984C45.7068 134.02 45.6846 134.058 45.6671 134.099C45.5522 134.362 45.3444 134.575 45.0834 134.695C44.8223 134.815 44.5262 134.835 44.2513 134.751C44.2094 134.738 44.166 134.729 44.1221 134.726C43.9918 134.706 43.8588 134.732 43.7454 134.799C43.632 134.867 43.5452 134.971 43.4994 135.094C43.4536 135.218 43.4517 135.354 43.494 135.479C43.5362 135.604 43.6201 135.71 43.7315 135.78C43.7672 135.807 43.8057 135.829 43.8464 135.847C44.1098 135.962 44.3217 136.17 44.4419 136.431C44.5621 136.692 44.5822 136.989 44.4983 137.264C44.4848 137.306 44.4761 137.349 44.4725 137.393C44.4532 137.524 44.4793 137.657 44.5464 137.77C44.6135 137.884 44.7175 137.971 44.841 138.016C44.9646 138.062 45.1001 138.064 45.2249 138.022C45.3497 137.979 45.4561 137.896 45.5264 137.784C45.5528 137.748 45.5749 137.71 45.5925 137.669C45.7074 137.405 45.9152 137.193 46.1762 137.073C46.4373 136.953 46.7334 136.933 47.0082 137.016C47.0502 137.03 47.0936 137.039 47.1375 137.042C47.2678 137.062 47.4008 137.036 47.5142 136.968C47.6275 136.901 47.7144 136.797 47.7602 136.673C47.806 136.55 47.8079 136.414 47.7656 136.289C47.7233 136.164 47.6395 136.058 47.528 135.987C47.4924 135.961 47.4539 135.939 47.4132 135.921Z" fill="#4D8AF0"/>
<path opacity="0.5" d="M42.6747 187.476C42.4113 187.361 42.1994 187.153 42.0792 186.891C41.959 186.63 41.9389 186.334 42.0228 186.059C42.0363 186.017 42.045 185.973 42.0486 185.929C42.0679 185.799 42.0418 185.666 41.9747 185.552C41.9076 185.439 41.8036 185.352 41.6801 185.306C41.5565 185.26 41.421 185.258 41.2962 185.3C41.1715 185.343 41.065 185.427 40.9947 185.538C40.9683 185.574 40.9462 185.612 40.9287 185.653C40.8142 185.917 40.6072 186.129 40.3467 186.25C40.0863 186.371 39.7906 186.392 39.5157 186.309C39.4738 186.295 39.4304 186.286 39.3865 186.283C39.2562 186.263 39.1232 186.29 39.0098 186.357C38.8965 186.424 38.8096 186.528 38.7638 186.652C38.718 186.775 38.7161 186.911 38.7584 187.036C38.8006 187.161 38.8845 187.267 38.9959 187.338C39.0316 187.364 39.0701 187.386 39.1108 187.404C39.3742 187.519 39.5861 187.727 39.7063 187.988C39.8265 188.249 39.8466 188.546 39.7627 188.821C39.7492 188.863 39.7405 188.906 39.7369 188.95C39.7176 189.081 39.7437 189.214 39.8108 189.327C39.8779 189.441 39.9819 189.528 40.1054 189.574C40.229 189.619 40.3645 189.621 40.4893 189.579C40.6141 189.537 40.7205 189.453 40.7908 189.341C40.8172 189.306 40.8394 189.267 40.8569 189.226C40.9718 188.963 41.1796 188.75 41.4406 188.63C41.7017 188.51 41.9978 188.49 42.2726 188.574C42.3146 188.587 42.3579 188.596 42.4019 188.6C42.5322 188.619 42.6652 188.593 42.7786 188.526C42.8919 188.458 42.9788 188.354 43.0246 188.231C43.0703 188.107 43.0723 187.971 43.03 187.846C42.9877 187.722 42.9039 187.615 42.7924 187.545C42.7561 187.517 42.7165 187.494 42.6747 187.476Z" fill="#4D8AF0"/>
<path opacity="0.5" d="M216.992 73.3575C216.728 73.2424 216.517 73.0345 216.396 72.7732C216.276 72.5119 216.256 72.2155 216.34 71.9404C216.353 71.8984 216.362 71.855 216.366 71.811C216.385 71.6806 216.359 71.5475 216.292 71.434C216.225 71.3205 216.121 71.2336 215.997 71.1877C215.874 71.1419 215.738 71.14 215.613 71.1823C215.489 71.2246 215.382 71.3086 215.312 71.4201C215.285 71.4557 215.263 71.4943 215.246 71.5351C215.131 71.7986 214.924 72.0109 214.664 72.1317C214.403 72.2525 214.108 72.2734 213.833 72.1905C213.791 72.1769 213.748 72.1682 213.704 72.1646C213.573 72.1453 213.44 72.1714 213.327 72.2386C213.214 72.3057 213.127 72.4099 213.081 72.5335C213.035 72.6572 213.033 72.7928 213.076 72.9177C213.118 73.0426 213.202 73.1492 213.313 73.2195C213.349 73.2459 213.387 73.2681 213.428 73.2857C213.691 73.4007 213.903 73.6087 214.023 73.87C214.144 74.1313 214.164 74.4277 214.08 74.7028C214.066 74.7448 214.058 74.7882 214.054 74.8321C214.035 74.9626 214.061 75.0957 214.128 75.2092C214.195 75.3227 214.299 75.4096 214.423 75.4554C214.546 75.5013 214.682 75.5032 214.806 75.4609C214.931 75.4186 215.038 75.3346 215.108 75.2231C215.134 75.1874 215.156 75.1488 215.174 75.1081C215.289 74.8445 215.497 74.6323 215.758 74.512C216.019 74.3917 216.315 74.3716 216.59 74.4556C216.632 74.4691 216.675 74.4778 216.719 74.4815C216.849 74.5008 216.982 74.4746 217.096 74.4075C217.209 74.3403 217.296 74.2362 217.342 74.1125C217.387 73.9889 217.389 73.8532 217.347 73.7283C217.305 73.6034 217.221 73.4969 217.11 73.4265C217.073 73.3989 217.034 73.3758 216.992 73.3575Z" fill="#4D8AF0"/>
<path opacity="0.5" d="M209.103 127.784C208.84 127.668 208.628 127.46 208.508 127.199C208.387 126.938 208.367 126.642 208.451 126.366C208.465 126.324 208.473 126.281 208.477 126.237C208.496 126.107 208.47 125.973 208.403 125.86C208.336 125.747 208.232 125.66 208.109 125.614C207.985 125.568 207.849 125.566 207.725 125.608C207.6 125.651 207.493 125.735 207.423 125.846C207.397 125.882 207.375 125.92 207.357 125.961C207.242 126.225 207.034 126.437 206.773 126.557C206.512 126.677 206.216 126.698 205.941 126.614C205.899 126.6 205.856 126.591 205.812 126.588C205.682 126.568 205.549 126.595 205.435 126.662C205.322 126.729 205.235 126.833 205.189 126.957C205.144 127.08 205.142 127.216 205.184 127.341C205.226 127.466 205.31 127.572 205.421 127.643C205.457 127.669 205.496 127.691 205.536 127.709C205.8 127.824 206.012 128.032 206.132 128.293C206.252 128.554 206.272 128.851 206.188 129.126C206.175 129.168 206.166 129.211 206.162 129.255C206.143 129.386 206.169 129.519 206.236 129.632C206.303 129.746 206.407 129.833 206.531 129.879C206.655 129.924 206.79 129.926 206.915 129.884C207.04 129.842 207.146 129.758 207.216 129.646C207.243 129.611 207.265 129.572 207.282 129.531C207.397 129.268 207.605 129.055 207.866 128.935C208.127 128.815 208.423 128.795 208.698 128.879C208.74 128.892 208.784 128.901 208.827 128.905C208.958 128.924 209.091 128.898 209.204 128.831C209.318 128.763 209.404 128.659 209.45 128.536C209.496 128.412 209.498 128.276 209.456 128.151C209.413 128.027 209.329 127.92 209.218 127.85C209.182 127.823 209.144 127.801 209.103 127.784Z" fill="#4D8AF0"/>
<path opacity="0.5" d="M214.982 19.3196C214.718 19.2045 214.506 18.9966 214.386 18.7353C214.266 18.474 214.246 18.1776 214.33 17.9025C214.343 17.8605 214.352 17.8171 214.356 17.7731C214.375 17.6427 214.349 17.5096 214.282 17.3961C214.215 17.2826 214.111 17.1957 213.987 17.1498C213.864 17.104 213.728 17.1021 213.603 17.1444C213.479 17.1867 213.372 17.2707 213.302 17.3822C213.275 17.4178 213.253 17.4564 213.236 17.4972C213.121 17.7608 212.913 17.9729 212.652 18.0932C212.391 18.2136 212.095 18.2336 211.82 18.1497C211.778 18.1361 211.735 18.1274 211.691 18.1238C211.56 18.1045 211.427 18.1306 211.314 18.1978C211.201 18.265 211.114 18.3691 211.068 18.4928C211.022 18.6164 211.02 18.752 211.063 18.8769C211.105 19.0018 211.189 19.1084 211.3 19.1788C211.336 19.2052 211.374 19.2273 211.415 19.2449C211.678 19.36 211.89 19.5679 212.011 19.8292C212.131 20.0905 212.151 20.3869 212.067 20.662C212.053 20.704 212.045 20.7474 212.041 20.7914C212.022 20.9218 212.048 21.0549 212.115 21.1684C212.182 21.2819 212.286 21.3688 212.41 21.4147C212.533 21.4605 212.669 21.4624 212.794 21.4201C212.918 21.3778 213.025 21.2938 213.095 21.1823C213.121 21.1466 213.144 21.1081 213.161 21.0673C213.276 20.8037 213.484 20.5916 213.745 20.4712C214.006 20.3509 214.302 20.3308 214.577 20.4148C214.619 20.4284 214.662 20.437 214.706 20.4407C214.836 20.46 214.969 20.4339 215.083 20.3667C215.196 20.2995 215.283 20.1954 215.329 20.0717C215.375 19.9481 215.377 19.8124 215.334 19.6875C215.292 19.5626 215.208 19.4561 215.097 19.3857C215.061 19.3593 215.023 19.3371 214.982 19.3196Z" fill="#4D8AF0"/>
<path opacity="0.5" d="M233.424 160.76C233.161 160.645 232.949 160.437 232.829 160.176C232.708 159.914 232.688 159.618 232.772 159.343C232.786 159.301 232.794 159.257 232.798 159.213C232.817 159.083 232.791 158.95 232.724 158.836C232.657 158.723 232.553 158.636 232.43 158.59C232.306 158.544 232.17 158.542 232.046 158.585C231.921 158.627 231.814 158.711 231.744 158.822C231.718 158.858 231.696 158.897 231.678 158.937C231.563 159.201 231.355 159.413 231.094 159.534C230.833 159.654 230.537 159.674 230.262 159.59C230.22 159.576 230.177 159.568 230.133 159.564C230.003 159.545 229.87 159.571 229.756 159.638C229.643 159.705 229.556 159.809 229.51 159.933C229.465 160.057 229.463 160.192 229.505 160.317C229.547 160.442 229.631 160.549 229.743 160.619C229.778 160.645 229.817 160.668 229.857 160.685C230.121 160.8 230.333 161.008 230.453 161.27C230.573 161.531 230.593 161.827 230.509 162.102C230.496 162.144 230.487 162.188 230.483 162.232C230.464 162.362 230.49 162.495 230.557 162.609C230.624 162.722 230.729 162.809 230.852 162.855C230.976 162.901 231.111 162.903 231.236 162.86C231.361 162.818 231.467 162.734 231.537 162.623C231.564 162.587 231.586 162.548 231.603 162.508C231.718 162.244 231.926 162.032 232.187 161.912C232.448 161.791 232.744 161.771 233.019 161.855C233.061 161.869 233.105 161.877 233.148 161.881C233.279 161.9 233.412 161.874 233.525 161.807C233.639 161.74 233.725 161.636 233.771 161.512C233.817 161.388 233.819 161.253 233.777 161.128C233.734 161.003 233.65 160.896 233.539 160.826C233.503 160.8 233.465 160.777 233.424 160.76Z" fill="#4D8AF0"/>
<path opacity="0.5" d="M1.91261 76.0136C2.96891 76.0136 3.82521 75.1565 3.82521 74.0992C3.82521 73.0419 2.96891 72.1847 1.91261 72.1847C0.856303 72.1847 0 73.0419 0 74.0992C0 75.1565 0.856303 76.0136 1.91261 76.0136Z" fill="#F55F44"/>
<path opacity="0.5" d="M215.335 43.9082C216.391 43.9082 217.248 43.0511 217.248 41.9938C217.248 40.9365 216.391 40.0793 215.335 40.0793C214.279 40.0793 213.422 40.9365 213.422 41.9938C213.422 43.0511 214.279 43.9082 215.335 43.9082Z" fill="#F55F44"/>
<path opacity="0.5" d="M128.346 115.975C129.535 115.975 130.5 115.01 130.5 113.819C130.5 112.628 129.535 111.663 128.346 111.663C127.156 111.663 126.192 112.628 126.192 113.819C126.192 115.01 127.156 115.975 128.346 115.975Z" fill="#F55F44"/>
<path opacity="0.5" d="M128.346 115.975C129.535 115.975 130.5 115.01 130.5 113.819C130.5 112.628 129.535 111.663 128.346 111.663C127.156 111.663 126.192 112.628 126.192 113.819C126.192 115.01 127.156 115.975 128.346 115.975Z" fill="#F55F44"/>
<path opacity="0.5" d="M239.09 101.47C240.147 101.47 241.003 100.613 241.003 99.5558C241.003 98.4985 240.147 97.6414 239.09 97.6414C238.034 97.6414 237.178 98.4985 237.178 99.5558C237.178 100.613 238.034 101.47 239.09 101.47Z" fill="#F55F44"/>
<path opacity="0.5" d="M84.4793 15.7437C85.6688 15.7437 86.6331 14.7785 86.6331 13.5878C86.6331 12.3971 85.6688 11.4319 84.4793 11.4319C83.2897 11.4319 82.3254 12.3971 82.3254 13.5878C82.3254 14.7785 83.2897 15.7437 84.4793 15.7437Z" fill="#47E6B1"/>
<path opacity="0.5" d="M207.196 180.539C208.253 180.539 209.109 179.682 209.109 178.625C209.109 177.568 208.253 176.711 207.196 176.711C206.14 176.711 205.284 177.568 205.284 178.625C205.284 179.682 206.14 180.539 207.196 180.539Z" fill="#F55F44"/>
<path d="M88.0776 109.674C86.9462 113.351 88.652 117.697 91.9632 119.631C93.3531 120.442 94.9527 120.85 96.2995 121.73C99.2259 123.638 100.38 127.292 101.331 130.655C102.422 134.521 103.516 138.609 102.517 142.498C101.879 144.979 100.429 147.172 99.605 149.598C98.9156 151.63 98.6756 153.788 98.9014 155.922C99.022 157.055 99.3034 158.222 100.079 159.067C101.199 160.274 103.002 160.455 104.622 160.746C108.046 161.394 111.268 162.845 114.024 164.981C116.779 167.116 118.99 169.875 120.474 173.031" stroke="url(#paint0_linear)" stroke-width="2" stroke-miterlimit="10"/>
<path d="M88.425 109.674C87.2936 113.351 88.9994 117.697 92.3106 119.631C93.7005 120.442 95.3001 120.85 96.647 121.73C99.5733 123.638 100.728 127.292 101.678 130.655C102.77 134.521 103.864 138.609 102.864 142.498C102.227 144.979 100.777 147.172 99.9524 149.598C99.263 151.63 99.023 153.788 99.2488 155.922C99.3694 157.055 99.6508 158.222 100.426 159.067C101.546 160.274 103.35 160.455 104.969 160.746C108.394 161.394 111.616 162.845 114.371 164.981C117.127 167.116 119.337 169.875 120.822 173.031" stroke="#535461" stroke-width="2" stroke-miterlimit="10"/>
<path d="M131.255 82.1938C128.463 86.0887 125.566 90.2769 125.328 95.0658C124.963 102.422 130.841 108.438 133.466 115.32C134.604 118.351 135.119 121.581 134.98 124.816C134.841 128.051 134.052 131.225 132.659 134.148C131.378 136.798 129.552 139.431 129.787 142.366C129.922 144.157 130.818 145.787 131.539 147.434C133.308 151.562 134.08 156.049 133.792 160.531C133.504 165.014 132.165 169.365 129.882 173.232" stroke="url(#paint1_linear)" stroke-width="2" stroke-miterlimit="10"/>
<path d="M131.6 82.1938C128.811 86.1031 125.913 90.2798 125.669 95.0658C125.305 102.422 131.183 108.438 133.808 115.32C134.946 118.351 135.46 121.581 135.322 124.816C135.183 128.051 134.394 131.225 133.001 134.148C131.72 136.798 129.894 139.431 130.129 142.366C130.264 144.157 131.16 145.787 131.881 147.434C133.65 151.562 134.422 156.049 134.134 160.531C133.846 165.014 132.507 169.365 130.224 173.232" stroke="#535461" stroke-width="2" stroke-miterlimit="10"/>
<path d="M170.42 117.228L171.77 128.241C171.948 129.704 172.1 131.299 171.316 132.552C170.572 133.734 169.177 134.297 168.091 135.171C164.527 138.046 164.852 143.539 166.081 147.948C167.31 152.358 169.079 157.095 167.37 161.338C166.664 163.088 165.418 164.563 164.499 166.207C162.922 169.017 162.297 172.262 162.718 175.457" stroke="url(#paint2_linear)" stroke-width="2" stroke-miterlimit="10"/>
<path d="M170.756 117.228L172.106 128.241C172.284 129.704 172.436 131.299 171.652 132.552C170.908 133.734 169.513 134.297 168.427 135.171C164.863 138.046 165.188 143.539 166.417 147.948C167.646 152.358 169.415 157.095 167.706 161.338C167 163.088 165.754 164.563 164.835 166.207C163.258 169.017 162.633 172.262 163.054 175.457" stroke="#535461" stroke-width="2" stroke-miterlimit="10"/>
<g opacity="0.7">
<path opacity="0.7" d="M205.419 71.9663C205.416 66.8144 204.196 61.7362 201.858 57.1467C199.52 52.5571 196.13 48.5864 191.965 45.5591C187.801 42.5318 182.98 40.5337 177.896 39.7282C172.812 38.9227 167.61 39.3326 162.715 40.9244C162.985 39.0902 163.124 37.2392 163.132 35.3853C163.144 26.9242 159.874 18.7888 154.009 12.6951C148.145 6.60133 140.145 3.02561 131.698 2.7221C123.25 2.4186 115.015 5.41103 108.729 11.0682C102.443 16.7254 98.5985 24.6052 98.0053 33.0454C93.1089 31.4502 87.9048 31.0377 82.8187 31.8418C77.7325 32.6458 72.9087 34.6436 68.7419 37.6716C64.575 40.6996 61.1834 44.672 58.8445 49.2637C56.5055 53.8554 55.2857 58.936 55.2847 64.0901C55.2847 80.4749 67.3461 103.758 83.0404 107.883L85.4843 109.28L84.1576 113.831H92.0148L90.3089 109.275L92.7413 107.883C104.877 104.695 114.828 90.0613 118.725 76.0251C120.859 77.4465 123.207 78.5142 125.681 79.1871L128.125 80.5841L126.818 85.1229H134.675L132.969 80.5668L135.402 79.1756C137.204 78.6901 138.94 77.9844 140.571 77.0743C142.67 92.8209 153.838 112.046 167.971 115.757L170.414 117.154L169.088 121.704H176.945L175.233 117.148L177.666 115.757C193.371 111.632 205.419 88.3395 205.419 71.9663Z" fill="url(#paint3_linear)"/>
</g>
<path d="M93.2639 112.146H85.6594L86.9919 107.581H91.5523L93.2639 112.146Z" fill="#F55F44"/>
<path d="M120.822 64.0154C120.822 81.4579 106.695 107.009 89.2723 107.009C71.8492 107.009 57.7229 81.4551 57.7229 64.0154C57.7229 55.6396 61.047 47.6069 66.9639 41.6844C72.8809 35.7618 80.9059 32.4346 89.2738 32.4346C97.6416 32.4346 105.667 35.7618 111.584 41.6844C117.5 47.6069 120.825 55.6396 120.825 64.0154H120.822Z" fill="#F55F44"/>
<path d="M91.5524 107.771H86.992L84.3298 106.251H94.2145L91.5524 107.771Z" fill="#535461"/>
<path opacity="0.1" d="M77.8684 39.4728C77.8684 39.4728 64.5635 46.7022 62.6624 61.161L77.8684 39.4728Z" fill="white"/>
<path d="M134.523 84.3842H126.918L128.251 79.8194H132.811L134.523 84.3842Z" fill="#4D8AF0"/>
<path d="M162.08 36.2533C162.08 53.6959 147.954 79.2474 130.531 79.2474C113.108 79.2474 98.9817 53.693 98.9817 36.2533C98.9817 27.8776 102.306 19.8449 108.223 13.9223C114.14 7.99977 122.165 4.67252 130.533 4.67252C138.9 4.67252 146.925 7.99977 152.842 13.9223C158.759 19.8449 162.083 27.8776 162.083 36.2533H162.08Z" fill="#9DCAFF"/>
<path d="M132.811 80.0092H128.251L125.589 78.4857H135.474L132.811 80.0092Z" fill="#535461"/>
<path opacity="0.1" d="M119.127 11.7108C119.127 11.7108 105.822 18.9402 103.921 33.399L119.127 11.7108Z" fill="white"/>
<path d="M175.434 119.784H167.83L169.162 115.216H173.723L175.434 119.784Z" fill="#3AD29F"/>
<path d="M202.992 71.6501C202.992 89.0926 188.866 114.644 171.443 114.644C154.02 114.644 139.89 89.0926 139.89 71.6501C139.89 63.2743 143.214 55.2416 149.131 49.3191C155.048 43.3965 163.073 40.0692 171.441 40.0692C179.809 40.0692 187.834 43.3965 193.751 49.3191C199.668 55.2416 202.992 63.2743 202.992 71.6501Z" fill="#3AD29F"/>
<path d="M173.723 115.406H169.162L166.5 113.885H176.385L173.723 115.406Z" fill="#535461"/>
<path opacity="0.1" d="M160.039 47.1075C160.039 47.1075 146.734 54.3369 144.833 68.7957L160.039 47.1075Z" fill="white"/>
<g opacity="0.5">
<path opacity="0.5" d="M148.302 125.165C146.473 123.328 143.805 122.598 140.789 123.107C137.969 123.584 135.146 125.119 132.843 127.418C132.176 128.09 131.615 128.86 131.18 129.701C130.757 128.831 130.201 128.033 129.532 127.335C127.269 124.992 124.472 123.414 121.649 122.897C118.645 122.322 115.966 123.02 114.102 124.826C112.238 126.631 111.474 129.29 111.939 132.314C112.376 135.142 113.863 137.991 116.129 140.328C120.891 145.246 130.393 143.326 130.795 143.24L130.913 143.214L131.278 143.297C131.68 143.389 141.148 145.473 145.993 140.638C148.29 138.339 149.833 135.519 150.321 132.696C150.852 129.675 150.131 127.005 148.302 125.165ZM129.199 140.4C126.901 140.71 121.178 141.13 118.338 138.195C116.511 136.306 115.317 134.053 114.975 131.842C114.665 129.83 115.113 128.105 116.244 127.019C116.686 126.595 117.214 126.271 117.792 126.07C118.861 125.725 120.002 125.667 121.1 125.904C123.294 126.315 125.511 127.579 127.338 129.468C130.178 132.383 129.581 138.109 129.199 140.397V140.4ZM147.323 132.176C146.944 134.378 145.712 136.614 143.851 138.468C140.959 141.343 135.235 140.834 132.952 140.48C132.61 138.181 132.111 132.463 135.003 129.577C136.864 127.723 139.101 126.496 141.3 126.128C142.403 125.91 143.543 125.988 144.606 126.352C145.182 126.563 145.705 126.897 146.139 127.329C147.248 128.442 147.667 130.161 147.323 132.173V132.176Z" fill="url(#paint4_linear)"/>
</g>
<path d="M131.729 142.613L130.824 142.803C130.439 142.883 121.347 144.72 116.79 140.015C114.624 137.778 113.2 135.053 112.769 132.345C112.321 129.451 113.056 126.907 114.837 125.179C116.617 123.452 119.182 122.796 122.057 123.334C124.747 123.837 127.424 125.346 129.589 127.585C134.144 132.291 132.025 141.331 131.933 141.713L131.729 142.613ZM118.366 126.375C117.813 126.567 117.307 126.877 116.885 127.283C115.805 128.333 115.374 129.971 115.67 131.9C115.997 134.013 117.14 136.171 118.889 137.979C121.609 140.788 127.085 140.385 129.282 140.089C129.647 137.902 130.221 132.434 127.502 129.626C125.753 127.821 123.633 126.608 121.531 126.217C120.481 125.99 119.389 126.045 118.366 126.375Z" fill="#9DCAFF"/>
<path d="M130.385 142.653L130.184 141.751C130.097 141.366 128.133 132.291 132.768 127.666C134.974 125.467 137.673 124.004 140.373 123.547C143.245 123.058 145.809 123.756 147.552 125.516C149.295 127.275 149.993 129.827 149.496 132.702C149.031 135.401 147.561 138.1 145.355 140.299C140.72 144.924 131.66 142.929 131.284 142.843L130.385 142.653ZM144.026 126.634C143.01 126.285 141.92 126.211 140.867 126.418C138.759 126.775 136.619 127.95 134.836 129.724C132.068 132.486 132.539 137.959 132.875 140.155C135.066 140.489 140.536 140.986 143.302 138.227C145.082 136.45 146.26 134.312 146.625 132.19C146.955 130.267 146.553 128.62 145.49 127.554C145.074 127.145 144.574 126.832 144.026 126.634Z" fill="#9DCAFF"/>
<g opacity="0.5">
<path opacity="0.5" d="M174.728 140.236H86.5613V157.894H91.1418V209H170.147V157.894H174.728V140.236Z" fill="url(#paint5_linear)"/>
</g>
<path d="M169.148 145.574H92.1411V208.132H169.148V145.574Z" fill="#535461"/>
<path d="M137.897 156.744H123.389V208.129H137.897V156.744Z" fill="#9DCAFF"/>
<path opacity="0.1" d="M169.148 142.222H92.1411V157.862H169.148V142.222Z" fill="black"/>
<path d="M173.614 141.104H87.6785V156.744H173.614V141.104Z" fill="#535461"/>
<path d="M137.897 141.104H123.389V156.744H137.897V141.104Z" fill="#9DCAFF"/>
</g>
<defs>
<linearGradient id="paint0_linear" x1="87.4401" y1="141.36" x2="120.733" y2="141.36" gradientUnits="userSpaceOnUse">
<stop stop-color="#808080" stop-opacity="0.25"/>
<stop offset="0.54" stop-color="#808080" stop-opacity="0.12"/>
<stop offset="1" stop-color="#808080" stop-opacity="0.1"/>
</linearGradient>
<linearGradient id="paint1_linear" x1="6092.41" y1="48398.2" x2="6438.86" y2="48398.2" gradientUnits="userSpaceOnUse">
<stop stop-color="#808080" stop-opacity="0.25"/>
<stop offset="0.54" stop-color="#808080" stop-opacity="0.12"/>
<stop offset="1" stop-color="#808080" stop-opacity="0.1"/>
</linearGradient>
<linearGradient id="paint2_linear" x1="7112.65" y1="34796.1" x2="7434.67" y2="34796.1" gradientUnits="userSpaceOnUse">
<stop stop-color="#808080" stop-opacity="0.25"/>
<stop offset="0.54" stop-color="#808080" stop-opacity="0.12"/>
<stop offset="1" stop-color="#808080" stop-opacity="0.1"/>
</linearGradient>
<linearGradient id="paint3_linear" x1="95288.2" y1="60676.3" x2="95288.2" y2="11429.4" gradientUnits="userSpaceOnUse">
<stop stop-color="#808080" stop-opacity="0.25"/>
<stop offset="0.54" stop-color="#808080" stop-opacity="0.12"/>
<stop offset="1" stop-color="#808080" stop-opacity="0.1"/>
</linearGradient>
<linearGradient id="paint4_linear" x1="24758.3" y1="12516.3" x2="24758.3" y2="10964.4" gradientUnits="userSpaceOnUse">
<stop stop-color="#808080" stop-opacity="0.25"/>
<stop offset="0.54" stop-color="#808080" stop-opacity="0.12"/>
<stop offset="1" stop-color="#808080" stop-opacity="0.1"/>
</linearGradient>
<linearGradient id="paint5_linear" x1="40195.3" y1="50137.2" x2="40195.3" y2="33687.5" gradientUnits="userSpaceOnUse">
<stop stop-color="#808080" stop-opacity="0.25"/>
<stop offset="0.54" stop-color="#808080" stop-opacity="0.12"/>
<stop offset="1" stop-color="#808080" stop-opacity="0.1"/>
</linearGradient>
<clipPath id="clip0">
<rect width="241" height="209" fill="white"/>
</clipPath>
</defs>
</svg>
