<svg width="262" height="262" viewBox="0 0 677 677" fill="none" xmlns="http://www.w3.org/2000/svg">
<g id="undraw_profile_pic_ic5t (1) 1">
<g id="Group" opacity="0.5">
<path id="Vector" opacity="0.5" d="M338.5 677C525.448 677 677 525.448 677 338.5C677 151.552 525.448 0 338.5 0C151.552 0 0 151.552 0 338.5C0 525.448 151.552 677 338.5 677Z" fill="url(#paint0_linear)"/>
</g>
<path id="Vector_2" d="M339.159 667.698C522.165 667.698 670.521 519.343 670.521 336.337C670.521 153.331 522.165 4.97522 339.159 4.97522C156.154 4.97522 7.79803 153.331 7.79803 336.337C7.79803 519.343 156.154 667.698 339.159 667.698Z" fill="#F5F5F5"/>
<path id="Vector_3" d="M339.47 669.009C404.218 669.114 467.564 650.156 521.61 614.5C509.399 547.769 462.93 543.967 462.93 543.967H206.679C206.679 543.967 162.829 547.566 149.134 608.952C204.855 648.146 271.345 669.126 339.47 669.009V669.009Z" fill="#BADFDB"/>
<path id="Vector_4" d="M335.949 489.293C424.281 489.293 495.888 417.686 495.888 329.354C495.888 241.022 424.281 169.415 335.949 169.415C247.617 169.415 176.01 241.022 176.01 329.354C176.01 417.686 247.617 489.293 335.949 489.293Z" fill="#333333"/>
<path id="Vector_5" opacity="0.1" d="M284.33 462.572H386.812V544.559C386.812 558.145 381.416 571.175 371.81 580.784C362.205 590.393 349.177 595.794 335.59 595.799V595.799C322.001 595.799 308.967 590.401 299.358 580.791C289.748 571.182 284.35 558.148 284.35 544.559V462.572H284.33Z" fill="black"/>
<path id="Vector_6" d="M287.58 458.769H383.601C384.463 458.769 385.289 459.112 385.899 459.721C386.508 460.33 386.85 461.157 386.85 462.019V540.756C386.852 547.488 385.527 554.153 382.951 560.373C380.375 566.592 376.599 572.242 371.839 577.002C367.079 581.761 361.427 585.536 355.208 588.111C348.988 590.685 342.322 592.009 335.59 592.006V592.006C322.001 592.006 308.967 586.608 299.358 576.998C289.748 567.389 284.35 554.356 284.35 540.766V462.019C284.35 461.16 284.689 460.337 285.295 459.728C285.9 459.119 286.721 458.774 287.58 458.769V458.769Z" fill="#FDB797"/>
<path id="Vector_7" opacity="0.1" d="M284.515 501.27C317.543 513.61 353.9 513.71 386.996 501.552V488.943H284.515V501.27Z" fill="black"/>
<path id="Vector_8" d="M335.949 508.129C417.076 508.129 482.843 442.362 482.843 361.235C482.843 280.108 417.076 214.342 335.949 214.342C254.822 214.342 189.056 280.108 189.056 361.235C189.056 442.362 254.822 508.129 335.949 508.129Z" fill="#FDB797"/>
<path id="Vector_9" opacity="0.1" d="M231.315 227.62C231.315 227.62 293.225 353.282 467.858 280.306L427.199 216.553L355.124 190.686L231.315 227.62Z" fill="black"/>
<path id="Vector_10" d="M231.315 225.777C231.315 225.777 293.225 351.439 467.858 278.443L427.199 214.691L355.124 188.823L231.315 225.777Z" fill="#333333"/>
<path id="Vector_11" d="M230.772 217.261C234.946 204.339 242.161 192.608 251.809 183.052C280.703 154.488 328.074 148.465 352.37 115.895C358.189 124.935 353.689 138.834 343.641 142.713C366.919 142.558 393.892 140.521 407.054 121.375C410.306 128.948 411.343 137.288 410.043 145.426C408.744 153.564 405.161 161.167 399.711 167.349C420.341 168.319 442.388 182.286 443.687 202.897C444.58 216.631 435.928 229.627 424.687 237.503C413.445 245.379 399.75 248.997 386.317 251.955C347.094 260.616 205.176 296.862 230.772 217.261Z" fill="#333333"/>
<path id="Vector_12" d="M188.997 386.724C196.545 386.724 202.664 375.251 202.664 361.099C202.664 346.946 196.545 335.474 188.997 335.474C181.45 335.474 175.331 346.946 175.331 361.099C175.331 375.251 181.45 386.724 188.997 386.724Z" fill="#FDB797"/>
<path id="Vector_13" d="M482.823 386.724C490.371 386.724 496.489 375.251 496.489 361.099C496.489 346.946 490.371 335.474 482.823 335.474C475.276 335.474 469.157 346.946 469.157 361.099C469.157 375.251 475.276 386.724 482.823 386.724Z" fill="#FDB797"/>
</g>
<defs>
<linearGradient id="paint0_linear" x1="338.5" y1="677" x2="338.5" y2="0" gradientUnits="userSpaceOnUse">
<stop stop-color="#808080" stop-opacity="0.25"/>
<stop offset="0.54" stop-color="#808080" stop-opacity="0.12"/>
<stop offset="1" stop-color="#808080" stop-opacity="0.1"/>
</linearGradient>
</defs>
</svg>
