<svg width="36" height="67" viewBox="0 0 36 67" fill="none" xmlns="http://www.w3.org/2000/svg">
<path d="M20.952 64.336C19.736 65.552 18.264 66.16 16.536 66.16C14.808 66.16 13.336 65.552 12.12 64.336C10.968 63.12 10.392 61.68 10.392 60.016C10.392 58.288 10.968 56.816 12.12 55.6C13.336 54.384 14.808 53.776 16.536 53.776C18.264 53.776 19.736 54.416 20.952 55.696C22.232 56.912 22.872 58.352 22.872 60.016C22.872 61.68 22.232 63.12 20.952 64.336ZM27.576 15.472C27.576 13.808 26.776 12.368 25.176 11.152C23.64 9.872 21.624 9.232 19.128 9.232C14.84 9.232 10.648 10.864 6.552 14.128L0.312 6.352C4.472 2.704 9.272 0.879997 14.712 0.879997C20.216 0.879997 25.112 2.704 29.4 6.352C33.688 10 35.832 14.288 35.832 19.216C35.832 23.824 33.88 27.536 29.976 30.352C27.16 32.4 23.832 34.192 19.992 35.728V46.672H19.032L12.6 43.6V29.296C19.256 26.416 23.416 24.048 25.08 22.192C26.744 20.272 27.576 18.032 27.576 15.472Z" fill="#EF3900"/>
</svg>
