<svg width="325" height="197" viewBox="0 0 325 197" fill="none" xmlns="http://www.w3.org/2000/svg">
<rect x="1.5" y="1.5" width="322" height="194" stroke="#9DCAFF" stroke-width="3" stroke-dasharray="12 12"/>
<path d="M144.76 71.6323C127.134 65.8925 109.233 66.2951 101.509 85.1812C96.0036 98.6405 92.5243 114.241 97.1516 128.58C102.779 146.018 131.107 148.475 146.035 148.798C161.853 149.14 179.631 154.131 194.706 147.845C200.38 145.479 204.742 141.662 208.839 137.366C213.094 132.905 213.49 126.739 214.365 120.747C216.45 106.474 213.355 85.8412 205.758 73.3259C202.144 67.3738 193.985 63.4536 187.267 62.3173C176.584 60.5104 165.972 58.295 155.068 58.295C147.073 58.295 144.086 56.4241 138.065 62.1056C135.621 64.4117 131.93 65.7525 130.413 68.7743" stroke="#020202" stroke-width="3" stroke-linecap="round" stroke-linejoin="round"/>
<path d="M102.795 80C96.1689 68.519 87.876 51.2938 94.3366 37.8182C97.7369 30.7261 101.747 23.9229 110.885 25.1427C129.179 27.5847 134 41.1416 134 58.2254" stroke="#020202" stroke-width="3" stroke-linecap="round" stroke-linejoin="round"/>
<path d="M198.148 68.1364C196.09 59.358 196.644 51.4348 201.073 43.6894C204.795 37.179 208.442 29 216.948 29C223.535 29 228.615 34.6714 231.517 39.9773C236.316 48.7491 239.118 58.4274 237.575 68.6136C236.338 76.7751 227.266 87.56 220.708 92" stroke="#020202" stroke-width="3" stroke-linecap="round" stroke-linejoin="round"/>
<path d="M153.068 108.967C148.534 120.386 159.902 114.675 159.954 113.803C160.009 112.889 161.959 109.461 160.392 109.021C158.395 108.46 156.164 108 154.051 108" stroke="#090808" stroke-width="3" stroke-linecap="round" stroke-linejoin="round"/>
<path d="M139.691 83.0961C132.383 88.2755 121.654 100.231 136.284 102.849C141.925 103.859 151.817 99.627 155.02 95.1471C158.14 90.7823 160.627 80.7989 152.678 79.376C144.488 77.9102 140.412 80.7319 136.816 87.8117" stroke="#020202" stroke-width="3" stroke-linecap="round" stroke-linejoin="round"/>
<path d="M170.633 79C170.271 84.8389 161.15 101.433 173.264 101.885C175.292 101.96 177.339 101.885 179.369 101.885C184.737 101.885 186.596 103.044 188.157 98.0175C189.744 92.904 189.155 87.2352 185.841 83.3438C183.341 80.4069 177.471 82.9531 174.422 80.907" stroke="#020202" stroke-width="3" stroke-linecap="round" stroke-linejoin="round"/>
<path d="M135 121C139.963 127.366 145.57 129.203 153.985 129.349C158.671 129.43 166.241 130.836 170.742 129.246C173.012 128.443 175.572 123.778 177 121.928" stroke="#121212" stroke-width="3" stroke-linecap="round" stroke-linejoin="round"/>
<path d="M145 91.9101C148.088 94.4492 145.08 91.8435 145.857 91.193C146.405 90.7343 147.715 92.1656 146.499 92.2786C145.734 92.3498 145.744 92.1401 145.869 91.4619C145.981 90.8513 146.071 90.8442 146.071 91.452C146.071 92.889 146.193 91.6555 146.499 91.0137" stroke="#FDAB8A" stroke-linecap="round" stroke-linejoin="round"/>
<path d="M175 90.7596C175.21 91.289 175.87 92.6252 175.945 91.2661C175.962 90.9433 175.856 92.3535 175.997 92.5044C176.525 93.0701 176.181 89.3122 176.181 90.1123C176.181 91.5998 176.179 92.4871 176.837 90.9003C177.013 90.476 176.847 90.5857 177.362 91.4631C177.589 91.8498 177.598 92.0628 177.598 91.5194C177.598 90.6947 177.828 92.0535 177.834 92.2793C177.892 94.5841 178.206 90.4918 177.782 91.9697C177.386 93.3479 176.679 92.1689 176.233 91.2661C176.162 91.1208 176.553 92.4598 176.417 92.5325" stroke="#FDAB8A" stroke-linecap="round" stroke-linejoin="round"/>
<path d="M19.0034 10C18.9395 17.9308 19.7797 25.5838 20.989 33.4349C21.1711 34.6171 22.2164 48.4021 25.2912 49.9139C26.6755 50.5945 33.4511 47.033 34.7643 46.5187C39.011 44.8554 52.3742 43.9479 54 39.0659" stroke="black" stroke-width="3" stroke-linecap="round" stroke-linejoin="round"/>
<path d="M46.0175 15.4629C43.8379 17.2841 40.1058 18.8018 40.1058 21.9468C40.1058 24.6888 39.66 27.9979 40.5985 30.6058C42.292 35.3119 44.2292 38.9324 48.8092 40.7708C51.5524 41.872 62.3582 47.1845 64.82 43.9918C66.0135 42.4441 66.2177 40.3375 65.8053 38.4701C64.0954 30.7264 61.3051 24.2194 56.8557 17.6382C54.5311 14.1999 52.2818 11.7209 48.3986 10.1922C45.4693 9.03898 43.7936 13.3647 42.3227 15.4629" stroke="black" stroke-width="3" stroke-linecap="round" stroke-linejoin="round"/>
<path d="M60 8C61.9326 16.061 65.1967 22.9708 69.1918 30.2041C69.7397 31.1962 73.3426 40.6516 74.8387 37.2747C77.0833 32.2085 78.7338 29.0722 83 25.8625" stroke="black" stroke-width="3" stroke-linecap="round" stroke-linejoin="round"/>
</svg>
