<svg width="535" height="477" viewBox="0 0 535 477" fill="none" xmlns="http://www.w3.org/2000/svg">
<path d="M80.1772 413.236C80.1772 413.236 -7.33224 372.95 23.4097 345.013C54.1517 317.077 80.1772 413.236 80.1772 413.236Z" fill="#E6E6E6"/>
<path d="M78.654 422.637C78.654 422.637 38.4314 290.475 97.6607 296.796C156.89 303.116 78.654 422.637 78.654 422.637Z" fill="#E6E6E6"/>
<path d="M49.3271 410.916L51.0154 433.023L51.0421 433.405C51.0405 436.858 51.215 440.308 51.5647 443.742C53.8558 466.292 63.7036 476.569 75.2128 476.569C86.722 476.569 96.141 466.292 98.4321 443.742C98.7819 440.308 98.9563 436.858 98.9547 433.405L98.9681 433.097L98.9748 433.023L100.67 410.916H49.3271Z" fill="#E6E6E6"/>
<path d="M98.975 433.023L98.9683 433.097L98.9549 433.405C98.9565 436.858 98.7821 440.308 98.4324 443.742H51.565C51.2152 440.308 51.0408 436.858 51.0424 433.405L51.0156 433.023H98.975Z" fill="white"/>
<path d="M228.086 142.276V112.208H223.411V142.276C222.07 142.818 220.959 143.81 220.269 145.082C219.579 146.354 219.353 147.826 219.629 149.246C219.906 150.666 220.667 151.945 221.784 152.865C222.9 153.785 224.302 154.289 225.748 154.289C227.195 154.289 228.597 153.785 229.713 152.865C230.829 151.945 231.591 150.666 231.867 149.246C232.143 147.826 231.917 146.354 231.227 145.082C230.538 143.81 229.427 142.818 228.086 142.276Z" fill="#E6E6E6"/>
<path d="M238.995 445.716H207.048V57.6626H194.58V445.716H162.633C158.847 445.716 155.098 446.462 151.6 447.911C148.102 449.359 144.924 451.483 142.246 454.16C139.569 456.838 137.446 460.016 135.997 463.514C134.548 467.012 133.802 470.761 133.802 474.547V474.547H267.826V474.547C267.826 470.761 267.08 467.012 265.631 463.514C264.182 460.016 262.058 456.838 259.381 454.16C256.704 451.483 253.526 449.359 250.028 447.911C246.53 446.462 242.781 445.716 238.995 445.716V445.716Z" fill="#E6E6E6"/>
<path d="M133.867 115.325H267.761L259.573 12.9816C259.274 9.45262 257.665 6.16336 255.062 3.76095C252.46 1.35854 249.053 0.0169042 245.511 0H156.116C152.574 0.0169033 149.167 1.35854 146.565 3.76094C143.963 6.16334 142.354 9.45259 142.054 12.9816L133.867 115.325Z" fill="#9DCAFF"/>
<path d="M320.296 294.951C319.037 294.742 317.748 294.785 316.505 295.077C315.262 295.37 314.09 295.907 313.057 296.656C312.023 297.406 311.149 298.353 310.484 299.444C309.82 300.534 309.378 301.745 309.186 303.008L305.417 327.747L318.242 331.149L327.64 308.099C328.186 306.76 328.424 305.314 328.336 303.871C328.247 302.427 327.835 301.022 327.13 299.759C326.424 298.496 325.444 297.409 324.261 296.576C323.078 295.744 321.723 295.189 320.296 294.951Z" fill="#A0616A"/>
<path d="M320.056 327.701C327.174 355.988 324.111 381.862 297.606 402.176C265.814 393.413 244.67 372.268 231.77 341.539C230.968 339.628 230.561 337.575 230.575 335.502C230.588 333.43 231.021 331.382 231.848 329.482C232.675 327.582 233.878 325.869 235.385 324.447C236.892 323.025 238.671 321.922 240.616 321.207V321.207C243.538 320.133 246.718 319.973 249.732 320.75C252.747 321.527 255.454 323.204 257.492 325.557L288.685 361.56L303.318 325.257L320.056 327.701Z" fill="#9DCAFF"/>
<path d="M482.942 476.111C453.914 474.569 435.882 464.602 431.515 444.163L436.19 435.591L489.717 459.976C491.068 460.592 492.206 461.596 492.986 462.86C493.765 464.124 494.151 465.591 494.095 467.075C494.038 468.559 493.542 469.992 492.669 471.193C491.796 472.394 490.585 473.309 489.191 473.82L482.942 476.111Z" fill="#E6E6E6"/>
<path d="M460.512 476.315C445.43 475.859 430.925 476.001 417.182 476.931C414.771 477.096 412.392 476.303 410.562 474.725C408.732 473.148 407.597 470.912 407.405 468.503L406.58 458.189L394.892 439.487L405.021 429.357C422.045 446.312 440.714 460.554 462.887 469.019C463.6 469.508 464.135 470.214 464.413 471.031C464.691 471.849 464.697 472.735 464.43 473.556C464.162 474.378 463.636 475.09 462.93 475.588C462.224 476.085 461.375 476.34 460.512 476.315V476.315Z" fill="#E6E6E6"/>
<path d="M378.528 402.864C359.269 437.326 340.328 460.558 315.413 472.994C284.759 483.111 262.356 469.707 244.895 442.215L295.543 408.708L302.945 416.111L370.033 365.057C371.672 363.506 373.857 362.663 376.113 362.714C378.369 362.764 380.515 363.702 382.083 365.325L439.306 435.591L432.293 447.28L378.528 402.864Z" fill="#2F2E41"/>
<path d="M395.671 443.384L369.178 402.864L375.412 391.176L410.476 427.799L395.671 443.384Z" fill="#2F2E41"/>
<path d="M242.947 314.033C257.578 314.033 269.44 302.171 269.44 287.539C269.44 272.907 257.578 261.045 242.947 261.045C228.315 261.045 216.454 272.907 216.454 287.539C216.454 302.171 228.315 314.033 242.947 314.033Z" fill="#A0616A"/>
<path d="M249.959 336.63L220.35 326.5C224.731 319.537 226.652 311.306 225.804 303.123H249.959C248.586 315.012 248.38 326.289 249.959 336.63Z" fill="#A0616A"/>
<path d="M313.075 407.539C308.636 409.362 308.311 415.271 304.114 417.28C283.824 426.988 262.357 434.865 247.622 448.838C213.186 425.453 181.269 352.824 222.687 321.045C236.825 329.319 249.454 335.239 249.18 321.045L313.075 407.539Z" fill="#9DCAFF"/>
<path opacity="0.2" d="M295.154 376.37L280.738 371.305L252.297 393.513L239.548 347.614C238.664 344.431 237.231 346.045 235.174 348.256C233.029 346.271 230.362 344.941 227.486 344.422C224.61 343.903 221.646 344.217 218.943 345.327C216.24 346.438 213.911 348.298 212.231 350.688C210.55 353.079 209.588 355.9 209.458 358.819C207.941 392.113 217.981 420.28 242.947 441.825C275.601 434.833 289.459 412.771 295.154 384.162L293.61 383.133C294.179 380.923 294.693 378.668 295.154 376.37Z" fill="black"/>
<path d="M246.512 252.687C255.251 254.684 265.197 257.513 265.755 260.142C274.744 262.407 281.529 267.834 282.915 276.106C283.031 276.821 282.988 277.553 282.791 278.249C282.593 278.946 282.245 279.591 281.771 280.139C281.297 280.687 280.709 281.124 280.048 281.42C279.387 281.716 278.669 281.863 277.945 281.851C273.056 281.788 265.717 281.32 260.871 279.296C246.793 288.367 244.43 311.96 250.578 328.019L240.904 327.132L230.895 297.832L228.338 325.98L206.261 323.061L209.105 287.167C209.979 278.706 212.858 270.577 217.503 263.452C217.986 262.737 218.513 262.053 219.083 261.405C222.442 257.611 226.765 254.797 231.595 253.262C236.424 251.727 241.579 251.528 246.512 252.687V252.687Z" fill="#2F2E41"/>
<path d="M296.32 341.633L320.566 370.139L356.937 327.215L332.362 297.397L296.32 341.633Z" fill="#3F3D56"/>
<path d="M350.711 328.198L321.877 304.606C323.515 300.674 331.379 301.985 331.379 301.985L353.95 324.868C354.736 325.665 355.41 326.565 355.953 327.543V327.543L350.711 328.198Z" fill="#F2F2F2"/>
<path d="M352.022 326.56L319.256 301.002L282.886 356.05L317.126 379.151C320.403 380.462 323.679 378.168 323.679 378.168L357.1 327.052L352.022 326.56Z" fill="#3F3D56"/>
<path d="M323.342 308.979L323.032 309.411L344.004 324.481L344.314 324.05L323.342 308.979Z" fill="#9DCAFF"/>
<path d="M344.592 329.69L317.068 371.304L317.511 371.597L345.035 329.983L344.592 329.69Z" fill="#9DCAFF"/>
<path d="M291.892 356.161L291.578 356.588L313.853 372.978L314.168 372.551L291.892 356.161Z" fill="#9DCAFF"/>
<path d="M319.366 309.698L290.859 350.656L291.295 350.959L319.801 310.001L319.366 309.698Z" fill="#9DCAFF"/>
<path d="M328.171 301.661L327.949 301.902L353.877 325.698L354.098 325.457L328.171 301.661Z" fill="#B3B3B3"/>
<path d="M326.011 301.865L325.794 302.11L352.892 326.033L353.109 325.787L326.011 301.865Z" fill="#B3B3B3"/>
<path d="M324.316 302.341L324.106 302.593L352.236 326.041L352.446 325.789L324.316 302.341Z" fill="#B3B3B3"/>
<path d="M309.408 350.002C308.36 349.273 307.177 348.759 305.929 348.491C304.681 348.222 303.392 348.205 302.136 348.439C300.881 348.673 299.685 349.154 298.618 349.854C297.55 350.555 296.632 351.46 295.917 352.518L281.907 373.253L292.037 381.825L310.408 365.028C311.475 364.052 312.309 362.848 312.848 361.506C313.387 360.164 313.617 358.718 313.521 357.275C313.425 355.831 313.006 354.428 312.294 353.169C311.582 351.91 310.595 350.828 309.408 350.002V350.002Z" fill="#A0616A"/>
<path d="M295.154 379.487C289.459 408.095 275.601 430.158 242.947 437.15C217.981 415.604 207.941 387.438 209.458 354.144C209.552 352.074 210.065 350.045 210.965 348.178C211.866 346.312 213.135 344.647 214.696 343.285C216.258 341.923 218.079 340.891 220.05 340.252C222.021 339.613 224.102 339.38 226.165 339.567V339.567C229.266 339.849 232.207 341.068 234.597 343.062C236.988 345.057 238.715 347.732 239.548 350.731L252.297 396.63L281.079 370.104L295.154 379.487Z" fill="#9DCAFF"/>
<path d="M534.761 473H0V477H535L534.761 473Z" fill="#3F3D56"/>
</svg>
