<svg width="428" height="349" viewBox="0 0 428 349" fill="none" xmlns="http://www.w3.org/2000/svg">
<g clip-path="url(#clip0)">
<path opacity="0.1" d="M417.593 202.314C417.593 202.579 417.593 202.844 417.593 203.105C417.546 207.677 417.275 212.237 416.778 216.786C416.781 216.813 416.781 216.841 416.778 216.869C416.739 217.247 416.696 217.62 416.652 217.999C416.578 218.637 416.5 219.272 416.413 219.911C415.397 227.687 413.718 235.363 411.392 242.854C408.276 252.976 403.871 262.657 398.285 271.659C396.566 274.412 394.736 277.076 392.794 279.651C391.757 281.016 390.699 282.35 389.606 283.663C388.84 284.581 388.059 285.485 387.263 286.375L386.767 286.922C382.582 291.509 378.07 295.788 373.268 299.726C365.43 306.21 356.991 311.851 348.417 317.084C347.929 317.384 347.437 317.679 346.945 317.953C346.911 317.978 346.874 318 346.836 318.018C335.184 325.05 323.1 331.395 310.65 336.476C297.021 342.052 282.947 346.107 268.507 347.88C248.381 350.348 228.01 348.341 208.006 344.89C191.369 342.037 174.933 338.117 158.8 333.156L156.144 332.325C154.768 331.888 153.393 331.442 152.02 330.987C143.726 328.249 135.525 325.207 127.417 321.86C107.053 313.489 87.5993 303.064 69.3584 290.747C67.036 289.188 64.747 287.595 62.4914 285.966C59.3387 283.7 56.2238 281.368 53.1466 278.969L51.248 277.5C43.195 271.207 35.6501 264.291 28.683 256.817C19.3121 246.639 11.3042 235.157 6.03956 222.049C5.2093 219.989 4.44872 217.89 3.7578 215.752L3.69248 215.539C3.34412 214.452 3.02189 213.366 2.72578 212.236C2.29033 210.619 1.90859 208.982 1.58055 207.325C1.51088 207.007 1.44991 206.69 1.3933 206.369C0.352528 200.791 -0.107144 195.121 0.0216347 189.449C0.130543 184.48 0.713781 179.532 1.76344 174.673C2.83779 169.636 4.49338 164.74 6.69709 160.083C8.68859 155.896 11.226 151.99 14.2434 148.466C16.3638 146.003 18.7483 143.779 21.3544 141.834C26.079 138.323 31.3175 135.876 36.7475 133.942C39.2993 133.029 41.8859 132.229 44.4855 131.486C46.3275 130.956 48.1781 130.452 50.0201 129.956L55.4545 128.492C58.9381 127.544 62.4217 126.571 65.8531 125.519C75.2065 122.668 84.3728 119.217 92.851 114.072C94.1922 113.259 95.5595 112.368 96.9268 111.412C98.6686 110.204 100.384 108.891 102.083 107.474C103.798 106.04 105.479 104.506 107.082 102.881C107.33 102.629 107.574 102.377 107.817 102.12C109.124 100.747 110.391 99.3082 111.567 97.8132C112.141 97.083 112.699 96.3399 113.23 95.5837C113.966 94.5363 114.663 93.4715 115.307 92.3763C118.538 86.9003 120.533 80.8593 120.297 74.4923C120.263 73.4433 120.169 72.3971 120.014 71.3588C119.448 67.5213 118.904 63.775 118.503 60.1113C116.823 44.9567 117.532 31.2145 128.928 18.3024C143.098 2.25248 165.336 -1.02009 185.58 0.261994C244.109 3.95613 297.391 37.3076 344.215 77.013C348.265 80.4435 352.265 83.9203 356.216 87.4435C357.212 88.3301 358.209 89.2225 359.207 90.1207C366.61 96.7745 373.899 103.676 380.688 111.069C381.237 111.668 381.785 112.268 382.325 112.872C382.656 113.246 382.992 113.615 383.318 113.993C385.435 116.384 387.488 118.832 389.48 121.338C394.815 127.992 399.526 135.12 403.554 142.634C409.721 154.426 413.897 167.152 415.912 180.301C416.669 185.076 417.168 189.888 417.405 194.717C417.479 196.138 417.527 197.563 417.553 198.985C417.553 199.441 417.553 199.893 417.553 200.349C417.597 201.01 417.597 201.653 417.593 202.314Z" fill="#9DCAFF"/>
<path d="M171.559 195.024L164.592 318.794L171.559 318.886L177.22 193.285L171.559 195.024Z" fill="#3F3D56"/>
<path d="M145.867 257.733H59.6479V276.421H145.867V257.733Z" fill="#9DCAFF"/>
<path d="M151.528 274.244V285.978H62.4654C59.3127 283.713 56.1978 281.38 53.1206 278.981V274.244H151.528Z" fill="#3F3D56"/>
<path d="M169.312 247.537C169.068 248.663 168.75 249.775 168.415 250.884C167.426 254.087 166.238 257.246 166.007 260.575C165.698 264.974 166.878 270.089 163.83 273.283C163.046 274.109 162.022 274.726 161.321 275.608C161.213 275.747 161.114 275.892 161.025 276.043C160.398 277.077 160.324 278.338 160.315 279.52C160.323 282.041 160.487 284.559 160.808 287.06C161.84 295.665 163.877 304.288 161.199 312.411C160.714 313.819 160.149 315.199 159.506 316.544C158.199 319.412 156.775 322.241 156.348 325.349C156.035 327.652 156.131 330.025 156.113 332.368C154.737 331.93 153.363 331.484 151.99 331.029C143.696 328.291 135.495 325.249 127.387 321.902C127.408 321.785 127.43 321.663 127.448 321.546C128.07 317.678 127.217 313.723 126.18 309.951C124.003 301.958 120.92 294.044 119.096 285.995C118.361 282.852 117.879 279.654 117.654 276.434C117.602 275.713 117.572 274.987 117.567 274.261C117.546 273.314 117.567 272.366 117.606 271.41C117.698 269.502 117.781 267.238 116.252 266.077C115.412 265.447 114.301 265.339 113.322 264.956C111.432 264.222 110.138 262.518 108.641 261.153C107.926 260.462 107.054 259.954 106.098 259.673C105.143 259.393 104.134 259.349 103.158 259.545C93.3693 261.784 86.1756 270.071 77.066 274.261C76.7133 274.426 76.3606 274.583 76.0035 274.73C74.8251 275.161 73.7036 275.733 72.6636 276.434C71.9328 276.94 71.4028 277.686 71.1657 278.542C70.9349 279.463 71.1352 280.428 71.2484 281.375C71.4317 282.916 71.3655 284.476 71.0524 285.995C70.9344 286.584 70.7787 287.165 70.5865 287.734C70.2382 288.764 69.7722 289.772 69.3281 290.776C67.0057 289.217 64.7166 287.624 62.461 285.995C59.3083 283.73 56.1934 281.397 53.1162 278.998L51.2482 277.499C43.1952 271.205 35.6502 264.29 28.6831 256.816C29.6106 254.208 30.9518 251.783 31.5963 249.11C31.962 247.576 32.097 245.981 32.6022 244.491C33.1847 242.945 33.9948 241.495 35.0058 240.188C38.7087 235.034 43.2301 230.519 48.3916 226.82C53.7868 222.96 60.0181 219.866 64.8734 215.485C66.8438 213.764 68.5423 211.755 69.9116 209.527C69.9943 209.392 70.0727 209.249 70.1424 209.092C70.5213 208.306 70.7839 207.468 70.9218 206.606C71.2702 204.659 71.2179 202.521 71.3921 200.652C77.3068 201.674 83.3366 201.855 89.3022 201.191C96.2476 200.413 103.041 198.488 109.986 197.74C110.509 197.679 111.036 197.632 111.562 197.588C113.788 197.41 116.017 197.371 118.251 197.397C120.119 197.397 121.987 197.48 123.855 197.54L144.422 198.236C146.699 198.314 149.024 198.401 151.145 199.231C153.662 200.218 155.678 202.182 157.293 204.342C157.498 204.62 157.703 204.898 157.894 205.185C159.224 207.12 160.29 209.224 161.064 211.439C161.147 211.665 161.226 211.874 161.3 212.121C161.496 212.725 161.665 213.334 161.818 213.951C161.935 214.433 162.04 214.916 162.136 215.403C162.615 217.81 162.898 220.27 163.655 222.595C163.708 222.765 163.764 222.934 163.825 223.099C164.735 225.646 166.246 227.928 167.387 230.375C168.21 232.146 168.838 234.001 169.26 235.907C170.113 239.735 170.13 243.702 169.312 247.537Z" fill="#35323E"/>
<path d="M106.799 92.0058C104.961 90.5455 102.296 91.6146 100.145 92.5577C98.3415 93.3527 96.4849 94.0222 94.5887 94.5612C94.2006 94.7103 93.7799 94.7538 93.3694 94.6873C92.4985 94.4787 92.1327 93.4487 91.4839 92.8228C90.3561 91.7407 88.5098 91.9971 87.0554 92.5838C85.601 93.1705 84.164 94.018 82.6051 93.8876C80.9417 93.7572 79.496 92.5316 77.8151 92.4925C74.8541 92.423 72.3676 96.065 69.5677 95.1002C67.8607 94.5134 66.5195 92.297 64.8387 92.9271C63.5323 93.4226 63.4148 95.2262 62.6266 96.404C61.6991 97.7773 59.892 98.1641 58.3461 98.7726C53.4734 100.694 50.2467 106.113 50.8825 111.302C51.2352 114.166 52.6243 116.791 53.5431 119.525C56.269 127.474 55.3328 136.44 58.7685 144.106C59.204 143.698 59.4478 143.545 59.8702 143.141C58.7839 145.39 58.5743 147.961 59.2823 150.356C59.6438 151.56 60.2316 152.681 60.6758 153.859C61.1372 155.18 61.5096 156.53 61.7905 157.9L65.579 174.581C67.0595 181.1 68.5444 187.619 68.8013 194.294C68.9612 198.635 68.6282 202.98 67.8085 207.245C74.6712 206.111 80.9504 203.073 87.9045 203.112C90.4563 203.112 92.9862 203.547 95.5162 203.895C102.892 204.925 110.333 205.429 117.781 205.403C118.939 205.468 120.099 205.306 121.195 204.925C122.153 204.516 122.937 203.79 123.842 203.264C125.615 202.221 127.761 201.961 129.804 201.961C139.118 201.791 148.092 205.194 157.346 206.394C160.999 198.74 161.217 189.57 158.413 181.569C157.581 179.192 156.462 176.875 156.131 174.376C155.998 172.84 155.963 171.297 156.026 169.756C156.012 165.812 155.3 161.902 153.923 158.205C153.383 156.757 152.734 155.284 152.791 153.741C152.848 152.198 153.61 150.76 154.359 149.395C155.878 146.614 157.407 143.806 159.554 141.459C161.753 139.034 164.505 137.187 167.226 135.375L173.945 130.872C173.026 125.079 171.842 118.977 169.382 113.649C166.921 108.321 163.242 103.423 158.265 100.307C156.587 99.2992 154.83 98.4272 153.013 97.6991C150.47 96.63 147.823 95.6869 145.066 95.5261C141.931 95.3479 138.844 96.1867 135.747 96.7082C126.002 98.3466 114.532 98.1467 106.799 92.0058Z" fill="#9DCAFF"/>
<path d="M180.268 192.538L177.071 196.567L171.045 204.159L164.078 212.934L162.131 215.385H158.356L64.8688 215.494L6.32253 215.559H3.70982C3.36146 214.472 3.03923 213.386 2.74312 212.256C2.30767 210.639 1.92593 209.002 1.59789 207.345C1.52822 207.028 1.46725 206.71 1.41064 206.389L22.6519 192.529L30.6381 192.486L55.0669 192.347L68.7095 192.268H71.2003H72.7636L81.8558 192.221L151.153 191.825L154.698 191.803H156.235L160.307 191.782L175.456 191.695L178.365 190.591L178.578 190.817L180.268 192.538Z" fill="#3F3D56"/>
<path d="M178.961 190.365L178.6 190.8L176.222 193.594L171.328 199.362L161.064 211.439L70.1422 209.123L1.58055 207.384C1.51088 207.067 1.44991 206.75 1.3933 206.428C0.352528 200.851 -0.107144 195.181 0.0216347 189.509L7.6246 185.624L9.3664 184.729L22.922 177.775L34.8185 171.69L65.8487 175.715L72.7201 176.606L75.8292 177.006L80.3797 177.597L80.7629 177.649L152.12 186.884L160.006 187.906L164.635 188.505L178.9 190.357L178.961 190.365Z" fill="#504F60"/>
<path d="M164.156 211.227L164.082 212.935L163.647 222.578L161.304 275.6L160.808 287.061L159.501 316.544L158.765 333.198L156.109 332.368C154.733 331.931 153.358 331.484 151.985 331.03L158.356 215.425L158.491 213L161.295 212.131L164.156 211.227Z" fill="#3F3D56"/>
<path d="M6.5232 211.1L6.32725 215.563L6.03985 222.082C5.20959 220.022 4.44901 217.923 3.75809 215.785L3.69277 215.572C3.34441 214.485 3.02218 213.399 2.72607 212.269L6.5232 211.1Z" fill="#3F3D56"/>
<path d="M120.394 145.388C131.456 145.388 140.424 133.324 140.424 118.443C140.424 103.561 131.456 91.4971 120.394 91.4971C109.331 91.4971 100.363 103.561 100.363 118.443C100.363 133.324 109.331 145.388 120.394 145.388Z" fill="#A1616A"/>
<path opacity="0.1" d="M120.394 145.388C131.456 145.388 140.424 133.324 140.424 118.443C140.424 103.561 131.456 91.4971 120.394 91.4971C109.331 91.4971 100.363 103.561 100.363 118.443C100.363 133.324 109.331 145.388 120.394 145.388Z" fill="black"/>
<path d="M123.224 129.959C138.615 129.959 151.093 117.506 151.093 102.145C151.093 86.7831 138.615 74.3301 123.224 74.3301C107.832 74.3301 95.355 86.7831 95.355 102.145C95.355 117.506 107.832 129.959 123.224 129.959Z" fill="#A1616A"/>
<path d="M123.777 59.2753C122.076 59.4107 120.386 59.6677 118.721 60.0445C114.315 61.1136 110.504 63.4866 106.794 65.816C105.131 66.8634 103.42 67.9543 102.388 69.4928C100.533 72.2525 101.251 75.7641 100.21 78.8281C99.6704 80.4013 98.6776 81.8138 97.8372 83.2784C95.5249 87.2942 94.3144 91.7054 93.1256 96.0732C92.8818 96.9771 92.8121 98.2027 93.8006 98.5504C94.3697 98.6684 94.9618 98.6014 95.4901 98.3592C98.6123 97.3292 102.579 97.0336 104.896 99.1241C107.212 101.215 107.016 104.922 109.773 106.512C112.93 108.351 117.859 106.13 120.724 108.299C121.952 109.229 122.397 110.719 123.402 111.841C125.745 114.448 130.252 114.322 134.001 113.796C136.152 113.492 138.791 113.288 140.098 114.796C140.725 115.509 140.903 116.487 141.63 117.13C142.937 118.294 145.327 117.703 146.603 116.508C147.879 115.313 148.489 113.696 149.551 112.353C151.62 109.746 155.256 108.325 157.389 105.747C159.175 103.574 159.715 100.854 160.202 98.2288L162.018 88.498C162.754 84.5518 163.425 80.2405 161.2 76.7637C160.407 75.5121 159.271 74.4342 158.587 73.1391C158.13 72.2699 157.873 71.3529 157.341 70.5315C156.712 69.6758 155.959 68.9173 155.108 68.2802L150.81 64.7295C149.34 63.4458 147.769 62.283 146.111 61.2527C139.976 57.6846 130.788 58.6233 123.777 59.2753Z" fill="#464353"/>
<path d="M31.984 130.925C30.952 132.02 29.9984 133.202 28.8923 134.228C27.9194 135.091 26.9019 135.904 25.8442 136.662C24.1372 137.936 22.468 139.256 20.8365 140.621C19.1344 141.964 17.5942 143.5 16.2469 145.197C13.9216 148.313 12.8199 152.19 10.6426 155.41C8.71792 158.266 6.00506 160.521 4.04989 163.355C3.19215 164.546 2.55505 165.881 2.16874 167.297C1.88039 168.667 1.75035 170.065 1.78119 171.465C1.742 173.759 1.70716 176.08 2.17745 178.327C2.64774 180.574 3.67975 182.782 5.44768 184.255C7.08933 185.624 9.20998 186.254 11.2871 186.776C12.3583 187.041 13.5166 187.289 14.5355 186.867C15.2811 186.491 15.9283 185.946 16.4254 185.276L21.7248 179.192C25.2694 175.107 28.9533 170.934 33.8173 168.544C35.3414 167.801 36.9482 167.24 38.4766 166.519C44.9561 163.403 49.5371 157.023 51.3137 150.069C51.7491 148.37 52.0278 146.636 52.3109 144.902L53.0773 140.147C53.1361 139.909 53.1361 139.66 53.0773 139.421C52.9573 139.153 52.7641 138.924 52.5199 138.761C48.8286 135.785 45.3725 132.531 42.1823 129.026C41.4246 128.191 40.7148 127.048 39.8396 126.348C38.7422 125.479 38.825 125.544 37.5056 126.348C35.4759 127.631 33.6201 129.169 31.984 130.925Z" fill="#A1616A"/>
<path d="M68.2354 162.564C68.1913 162.463 68.1273 162.372 68.0471 162.296C67.9669 162.221 67.8722 162.162 67.7687 162.124C67.6653 162.086 67.5551 162.069 67.4449 162.074C67.3347 162.08 67.2268 162.107 67.1275 162.155C67.0283 162.203 66.9398 162.271 66.8673 162.354C66.7949 162.437 66.7401 162.534 66.7061 162.639C66.6721 162.743 66.6596 162.854 66.6695 162.963C66.6794 163.073 66.7114 163.18 66.7636 163.277L66.3281 163.49L79.3133 190.053L81.6603 188.91L68.6752 162.329L68.2354 162.564Z" fill="#3F3D56"/>
<path opacity="0.04" d="M31.984 130.925C30.952 132.02 29.9984 133.202 28.8923 134.228C27.9194 135.091 26.9019 135.904 25.8442 136.662C24.1372 137.936 22.468 139.256 20.8365 140.621C19.1344 141.964 17.5942 143.5 16.2469 145.197C13.9216 148.313 12.8199 152.19 10.6426 155.41C8.71792 158.266 6.00506 160.521 4.04989 163.355C3.19215 164.546 2.55505 165.881 2.16874 167.297C1.88039 168.667 1.75035 170.065 1.78119 171.465C1.742 173.759 1.70716 176.08 2.17745 178.327C2.64774 180.574 3.67975 182.782 5.44768 184.255C7.08933 185.624 9.20998 186.254 11.2871 186.776C12.3583 187.041 13.5166 187.289 14.5355 186.867C15.2811 186.491 15.9283 185.946 16.4254 185.276L21.7248 179.192C25.2694 175.107 28.9533 170.934 33.8173 168.544C35.3414 167.801 36.9482 167.24 38.4766 166.519C44.9561 163.403 49.5371 157.023 51.3137 150.069C51.7491 148.37 52.0278 146.636 52.3109 144.902L53.0773 140.147C53.1361 139.909 53.1361 139.66 53.0773 139.421C52.9573 139.153 52.7641 138.924 52.5199 138.761C48.8286 135.785 45.3725 132.531 42.1823 129.026C41.4246 128.191 40.7148 127.048 39.8396 126.348C38.7422 125.479 38.825 125.544 37.5056 126.348C35.4759 127.631 33.6201 129.169 31.984 130.925Z" fill="black"/>
<path d="M182.101 179.878C182.057 182.651 181.949 185.506 180.795 188.036C180.298 189.131 179.527 190.209 178.374 190.569C177.675 190.73 176.952 190.757 176.244 190.648C167.701 189.898 159.093 190.58 150.775 192.664C152.995 188.231 151.72 182.916 152.334 177.996C152.503 176.653 152.813 175.332 152.93 173.985C153.366 169.204 151.315 164.563 150.374 159.843C149.558 155.757 149.558 151.551 150.374 147.465C150.534 146.414 150.897 145.403 151.441 144.488C152.079 143.598 152.917 142.871 153.888 142.363C157.415 140.36 161.574 140.129 165.536 140.394C168.206 140.573 173.557 140.32 175.783 141.959C178.217 143.754 178.988 149.782 179.645 152.568C180.63 156.84 181.299 161.179 181.648 165.549C182.075 170.312 182.166 175.097 182.101 179.878Z" fill="#A1616A"/>
<path d="M26.1182 189.5L41.7944 199.93L112.337 197.323L65.7442 189.5H26.1182Z" fill="white"/>
<path d="M46.789 106.626C44.2155 108.89 42.0338 111.558 39.5953 113.971C36.2511 117.282 32.4496 120.098 28.6655 122.902C30.0223 123.28 31.2573 124.004 32.2496 125.002C33.242 126 33.9576 127.238 34.3264 128.595C34.4919 129.234 34.5746 129.899 34.7618 130.525C35.1973 132.007 36.1553 133.284 37.1829 134.436C41.5984 139.404 47.7774 143.08 50.3814 149.213C50.4664 149.511 50.6507 149.771 50.904 149.951C51.1158 150.045 51.3512 150.072 51.5789 150.03C53.9347 149.782 55.7375 147.887 57.2398 146.044C60.375 142.133 63.0966 137.813 64.6424 133.041C66.1883 128.269 66.4365 122.993 64.7513 118.264C63.9109 115.909 62.6132 113.745 61.3243 111.602C60.195 109.727 59.0687 107.856 57.9452 105.987C57.3573 105 56.6084 102.997 55.4544 102.51C52.9637 101.441 48.3871 105.031 46.789 106.626Z" fill="#9DCAFF"/>
<path d="M175.047 134.715L178.752 143.407C174.718 142 170.407 141.572 166.174 142.157C161.941 142.743 157.909 144.326 154.411 146.775C152.299 148.283 150.361 150.178 149.407 152.585C148.937 152.675 148.45 152.629 148.004 152.455C147.558 152.28 147.171 151.984 146.886 151.599C146.329 150.819 146.005 149.896 145.954 148.939C145.61 145.601 146.877 142.329 148.131 139.208C148.715 137.748 149.316 136.257 150.352 135.071C151.389 133.884 152.765 133.102 154.141 132.363C158.531 129.94 163.128 127.913 167.879 126.305C169.882 125.657 171.981 125.67 173.105 127.539C174.407 129.769 174.028 132.342 175.047 134.715Z" fill="#9DCAFF"/>
<path d="M26.2099 160.794C27.1374 161.533 27.9517 162.407 28.9054 163.111C29.9139 163.81 30.9871 164.411 32.1103 164.906L36.4038 166.966C37.7343 167.656 39.1266 168.22 40.5624 168.652C42.4 169.143 44.329 169.191 46.1753 169.647C48.505 170.221 50.6344 171.416 52.9292 172.107C55.224 172.798 57.9107 172.911 59.8267 171.473C61.0242 170.573 61.9299 169.087 63.4148 168.865C64.3728 168.739 65.296 169.2 66.1495 169.647L77.3231 175.51C78.8298 176.301 80.4235 177.179 81.2117 178.687C81.9999 180.195 81.4686 182.485 79.8095 182.877C79.2313 182.943 78.6498 182.976 78.0677 182.977C77.4929 183.046 76.8659 183.385 76.7875 183.963C76.7846 184.322 76.8794 184.675 77.0618 184.984C77.5626 186.132 77.7107 187.505 77.1272 188.618C76.5437 189.73 75.111 190.421 73.9658 189.921C74.1618 191.603 72.3285 192.781 70.6956 193.229C66.5762 194.354 62.2086 193.663 57.9978 192.951C56.3431 192.673 54.6623 192.386 53.1556 191.647C52.4328 191.295 51.7622 190.843 51.0306 190.517C49.0232 189.626 46.7414 189.743 44.5468 189.782C34.3964 189.961 24.3331 188.083 14.3526 186.214C12.5019 185.867 10.599 185.497 9.01834 184.476C5.97019 182.494 4.83802 178.426 5.33879 174.828C5.83955 171.229 7.66844 167.97 9.46686 164.806L11.7965 160.707C12.1011 160.08 12.5273 159.518 13.0506 159.056C16.4776 156.444 23.275 158.439 26.2099 160.794Z" fill="#A1616A"/>
<path opacity="0.04" d="M26.2099 160.794C27.1374 161.533 27.9517 162.407 28.9054 163.111C29.9139 163.81 30.9871 164.411 32.1103 164.906L36.4038 166.966C37.7343 167.656 39.1266 168.22 40.5624 168.652C42.4 169.143 44.329 169.191 46.1753 169.647C48.505 170.221 50.6344 171.416 52.9292 172.107C55.224 172.798 57.9107 172.911 59.8267 171.473C61.0242 170.573 61.9299 169.087 63.4148 168.865C64.3728 168.739 65.296 169.2 66.1495 169.647L77.3231 175.51C78.8298 176.301 80.4235 177.179 81.2117 178.687C81.9999 180.195 81.4686 182.485 79.8095 182.877C79.2313 182.943 78.6498 182.976 78.0677 182.977C77.4929 183.046 76.8659 183.385 76.7875 183.963C76.7846 184.322 76.8794 184.675 77.0618 184.984C77.5626 186.132 77.7107 187.505 77.1272 188.618C76.5437 189.73 75.111 190.421 73.9658 189.921C74.1618 191.603 72.3285 192.781 70.6956 193.229C66.5762 194.354 62.2086 193.663 57.9978 192.951C56.3431 192.673 54.6623 192.386 53.1556 191.647C52.4328 191.295 51.7622 190.843 51.0306 190.517C49.0232 189.626 46.7414 189.743 44.5468 189.782C34.3964 189.961 24.3331 188.083 14.3526 186.214C12.5019 185.867 10.599 185.497 9.01834 184.476C5.97019 182.494 4.83802 178.426 5.33879 174.828C5.83955 171.229 7.66844 167.97 9.46686 164.806L11.7965 160.707C12.1011 160.08 12.5273 159.518 13.0506 159.056C16.4776 156.444 23.275 158.439 26.2099 160.794Z" fill="black"/>
<path d="M159.135 168.305C156.867 169.374 154.263 169.478 151.894 170.3C149.525 171.121 147.513 172.599 145.34 173.803C139.679 176.958 133.148 178.149 126.733 179.283C122.845 179.978 118.895 180.674 114.976 180.509C109.673 180.283 104.578 178.518 99.4394 177.188C94.3011 175.858 88.8188 174.963 83.7284 176.458C81.0702 177.266 78.6401 178.688 76.6353 180.608C74.6304 182.528 73.1071 184.893 72.1889 187.51C71.1221 190.635 70.974 194.003 71.1787 197.297C72.2499 198.084 73.7478 196.993 74.3313 195.798C74.9149 194.603 75.2327 193.138 76.3649 192.443C78.3288 193.108 78.8078 195.72 80.4277 197.011C81.4379 197.819 82.7878 198.032 84.0724 198.214L90.6912 199.153C92.285 199.379 94.1356 199.531 95.2896 198.41C95.8513 197.867 96.1605 197.106 96.6743 196.524C97.7281 195.359 99.4873 195.159 101.055 195.316C105.949 195.802 110.539 198.971 115.399 198.219C117.071 197.962 118.625 197.25 120.219 196.689C129.664 193.36 140.158 195.385 149.987 193.477C153.736 192.751 157.346 191.465 160.912 190.109C162.85 189.375 164.809 188.605 166.464 187.362C168.032 186.159 169.268 184.579 170.057 182.769C170.846 180.959 171.162 178.979 170.975 177.014C170.611 174.02 169.114 171.278 166.791 169.348C166.024 168.696 165.018 167.449 164.099 167.04C162.345 166.271 160.625 167.605 159.135 168.305Z" fill="#A1616A"/>
<g opacity="0.1">
<path opacity="0.1" d="M146.411 112.784C145.684 112.14 145.506 111.163 144.879 110.45C143.572 108.942 140.933 109.146 138.782 109.45C135.033 109.976 130.509 110.098 128.183 107.495C127.178 106.373 126.733 104.887 125.505 103.953C122.64 101.78 117.711 104.005 114.554 102.166C111.797 100.563 111.976 96.8424 109.677 94.7781C107.378 92.7137 103.393 92.9831 100.271 94.0132C99.7428 94.2554 99.1507 94.3224 98.5815 94.2044C97.593 93.8567 97.6627 92.6311 97.9066 91.7271C99.0953 87.3594 100.306 82.9481 102.618 78.9324C103.459 77.4678 104.451 76.0553 104.991 74.4821C105.936 71.7267 105.453 68.6106 106.694 66.0029C105.361 66.8721 104.081 67.8196 103.258 69.0452C101.403 71.8049 102.122 75.3165 101.081 78.3805C100.541 79.9537 99.5482 81.3662 98.7078 82.8308C96.3956 86.8465 95.185 91.2578 93.9962 95.6255C93.7524 96.5295 93.6827 97.7551 94.6712 98.1028C95.2404 98.2208 95.8324 98.1538 96.3607 97.9116C99.4829 96.8815 103.45 96.586 105.766 98.6765C108.083 100.767 107.887 104.474 110.643 106.065C113.801 107.903 118.73 105.682 121.595 107.851C122.823 108.781 123.267 110.272 124.273 111.393C126.616 114.001 131.123 113.875 134.872 113.349C137.023 113.044 139.662 112.84 140.968 114.348C141.595 115.061 141.774 116.039 142.501 116.682C143.807 117.847 146.198 117.256 147.474 116.061C148.292 115.21 148.992 114.254 149.555 113.218C148.423 113.562 147.217 113.509 146.411 112.784Z" fill="black"/>
<path opacity="0.1" d="M154.345 108.003C154.065 108.363 153.805 108.739 153.566 109.128C155.238 107.938 157.01 106.825 158.26 105.308C158.584 104.916 158.876 104.497 159.131 104.057C157.394 105.3 155.582 106.443 154.345 108.003Z" fill="black"/>
</g>
<path d="M242.319 194.063L243.626 318.795L249.722 317.926L248.416 194.063H242.319Z" fill="#3F3D56"/>
<path d="M278.897 216.663L280.204 341.394L286.3 340.525L284.994 216.663H278.897Z" fill="#3F3D56"/>
<path d="M392.78 279.672L392.754 277.277V275.852L392.524 253.913L392.162 219.614L392.101 216.654H386.005L386.035 219.505L386.227 237.876L386.31 245.829L386.379 252.27L386.493 263.405L386.562 269.971V270.667L386.654 279.298L386.732 286.908L387.228 286.36C388.027 285.471 388.808 284.567 389.571 283.648L392.78 279.672Z" fill="#3F3D56"/>
<path d="M272.148 236.872L268.664 242.07L272.148 265.751L301.758 273.839H349.658L378.398 275.574L392.088 266.221L389.719 250.158L379.269 236.872H272.148Z" fill="#9DCAFF"/>
<path d="M268.664 242.07L266.922 256.508C266.922 256.508 257.778 284.814 331.369 283.08C404.96 281.346 392.332 275.57 392.332 275.57L391.897 258.82C391.897 258.82 394.462 266.747 357.061 265.674C319.66 264.6 284.776 261.132 284.776 261.132C284.776 261.132 271.712 263.44 268.664 242.07Z" fill="#3F3D56"/>
<path d="M329.976 112.663C325.778 114.571 322.599 118.269 320.47 122.359C318.34 126.449 317.143 130.938 315.963 135.397C314.717 140.099 313.468 144.815 312.823 149.635C311.674 158.205 312.536 167.214 316.481 174.911C320.426 182.608 327.716 188.819 336.25 190.301C339.547 190.879 342.935 190.761 346.266 190.418C352.287 189.782 358.218 188.477 363.949 186.528C369.937 184.507 376.168 181.396 378.833 175.663C380.379 172.338 380.51 168.549 380.436 164.889C380.23 154.916 378.721 145.011 375.946 135.427C375.141 132.646 374.204 129.843 372.497 127.5C370.79 125.158 368.456 123.441 366.074 121.85C355.889 115.005 342.504 106.978 329.976 112.663Z" fill="#FBBEBE"/>
<path opacity="0.05" d="M329.976 112.663C325.778 114.571 322.599 118.269 320.47 122.359C318.34 126.449 317.143 130.938 315.963 135.397C314.717 140.099 313.468 144.815 312.823 149.635C311.674 158.205 312.536 167.214 316.481 174.911C320.426 182.608 327.716 188.819 336.25 190.301C339.547 190.879 342.935 190.761 346.266 190.418C352.287 189.782 358.218 188.477 363.949 186.528C369.937 184.507 376.168 181.396 378.833 175.663C380.379 172.338 380.51 168.549 380.436 164.889C380.23 154.916 378.721 145.011 375.946 135.427C375.141 132.646 374.204 129.843 372.497 127.5C370.79 125.158 368.456 123.441 366.074 121.85C355.889 115.005 342.504 106.978 329.976 112.663Z" fill="black"/>
<path d="M325.26 167.366C326.475 169.033 327.944 170.5 329.614 171.712C333.76 174.572 339.081 174.959 344.115 175.115C348.156 175.237 352.789 175.007 355.323 171.86C356.464 170.443 356.978 168.635 357.44 166.875C360.288 156.067 362.312 145.059 363.492 133.945L375.023 133.984C380.013 155.31 379.604 177.479 379.169 199.379L378.537 231.314L371.108 230.527C353.468 228.663 335.802 226.798 318.066 226.477C307.674 226.286 297.28 226.628 286.923 227.502L303.1 179.496C305.199 173.255 307.319 166.932 307.811 160.373C308.521 150.86 305.848 140.816 309.553 132.015C309.849 131.307 310.224 130.573 310.899 130.203C311.574 129.834 312.427 129.925 313.202 130.025C314.665 130.221 319.137 130.025 320.2 130.959C321.768 132.315 320.731 132.52 320.178 134.706C319.19 138.617 318.254 142.237 318.267 146.314C318.28 153.715 320.579 161.529 325.26 167.366Z" fill="#9DCAFF"/>
<path d="M392.781 279.672C394.723 277.099 396.553 274.435 398.272 271.679C397.401 269.819 396.443 268.003 395.681 266.103C394.514 263.192 393.844 260.106 393.182 257.042C392.955 255.999 392.73 254.956 392.507 253.913C390.068 242.565 387.778 231.057 387.303 219.553C387.26 218.597 387.232 217.641 387.22 216.685C387.22 216.546 387.22 216.411 387.22 216.25C387.22 215.203 387.22 214.155 387.22 213.112C387.273 210.505 387.438 207.875 387.739 205.259C387.795 204.746 387.86 204.233 387.93 203.72C387.93 203.607 387.956 203.499 387.974 203.386L417.584 202.308L420.075 202.217C421.786 202.156 423.598 202.06 425.009 201.091C427.382 199.466 427.661 196.132 427.621 193.268C427.477 186.029 426.655 178.82 425.166 171.734C424.042 166.405 422.44 160.96 418.843 156.866C415.89 153.502 411.614 151.055 410.077 146.87C409.507 145.314 409.363 143.606 408.623 142.12C407.882 140.633 406.659 139.542 405.505 138.395C401.444 134.379 398.075 129.721 395.533 124.609C393.77 121.063 391.858 117.152 389.554 114.7C389.441 114.574 389.328 114.457 389.21 114.344C387.251 112.41 385.008 111.563 382.352 112.879C381.874 113.119 381.42 113.401 380.993 113.723C380.047 114.445 379.181 115.266 378.411 116.174C375.728 119.253 373.374 122.603 371.387 126.17C369.99 128.681 368.791 131.296 367.799 133.993C367.017 136.123 366.369 138.3 365.861 140.512C365.487 142.15 365.191 143.806 364.956 145.466C364.085 151.707 364.085 158.07 364.207 164.389C364.337 170.195 364.594 176.014 365.121 181.799C365.252 183.198 365.397 184.596 365.557 185.993C365.876 188.754 366.271 191.507 366.741 194.25C366.928 195.298 367.12 196.345 367.333 197.388C367.386 197.666 367.442 197.944 367.499 198.218L367.525 198.336C368.1 200.76 368.546 203.213 368.862 205.685C368.897 205.995 368.923 206.303 368.94 206.611C369.013 208.031 369.002 209.455 368.905 210.874C368.805 212.552 368.648 214.225 368.57 215.902C368.57 216.198 368.57 216.489 368.54 216.772C368.518 217.619 368.54 218.466 368.54 219.314C368.628 221.341 368.869 223.359 369.262 225.351C369.997 229.054 371.266 232.632 373.029 235.972C373.194 236.285 373.364 236.594 373.534 236.898C375.742 240.836 378.529 244.447 380.571 248.476C382.333 252.101 383.649 255.926 384.49 259.867C384.78 261.168 385.056 262.472 385.317 263.778C385.722 265.864 386.084 267.968 386.454 270.071C386.489 270.28 386.528 270.506 386.567 270.697C387.059 273.487 387.577 276.264 388.244 278.989C388.631 280.576 389.067 282.14 389.576 283.679L392.781 279.672Z" fill="#464353"/>
<path d="M386.963 245.416C386.963 245.807 386.937 246.199 386.92 246.594C386.842 248.501 386.666 250.403 386.393 252.292C386.032 254.87 385.4 257.403 384.507 259.849C383.916 261.458 383.163 263.003 382.261 264.461C381.46 265.755 380.523 266.96 379.465 268.055C376.852 270.767 373.09 271.632 369.45 272.775C367.775 273.259 366.156 273.918 364.62 274.743C364.346 274.895 364.076 275.061 363.815 275.234L359.26 278.246C357.84 279.181 356.39 280.15 355.415 281.536C355.255 281.772 355.11 282.017 354.98 282.271C354.363 283.547 353.912 284.896 353.638 286.286C351.269 296.135 348.896 305.991 347.272 315.987C347.163 316.648 347.059 317.313 346.945 317.978L346.906 318.186C346.887 318.137 346.863 318.089 346.837 318.043C335.184 325.075 323.1 331.42 310.651 336.501L307.946 313.901C307.665 312.064 307.571 310.203 307.668 308.347C307.925 305.422 309.118 302.649 309.44 299.733C309.745 296.878 309.205 293.997 307.885 291.445C307.372 290.454 306.727 289.481 306.61 288.373C306.492 287.264 307.132 286.252 308.247 286.139C309.118 285.174 309.188 283.857 308.931 282.553C308.794 281.873 308.59 281.207 308.321 280.567C307.581 278.75 306.644 276.773 307.28 274.917C307.448 274.581 307.524 274.206 307.498 273.831C307.503 273.808 307.503 273.784 307.498 273.761C307.35 273.274 306.771 273.061 306.47 272.649C305.904 271.879 306.47 270.832 306.819 269.945C307.157 268.993 307.354 267.995 307.402 266.986C307.45 266.425 307.485 265.86 307.546 265.304C307.631 264.551 307.766 263.805 307.951 263.07C309.009 258.907 311.553 255.272 315.105 252.848C316.799 251.709 318.685 250.879 320.413 249.806C322.184 248.614 323.875 247.308 325.473 245.894C329.308 242.707 333.296 239.703 337.435 236.881C341.886 233.847 346.497 231.052 351.248 228.51C352.264 227.963 353.28 227.429 354.296 226.911C355.402 226.331 356.515 225.782 357.636 225.264C361.224 223.556 365.295 224.195 369.262 225.333C370.926 225.807 372.567 226.372 374.152 226.885C375.7 227.387 377.189 228.054 378.594 228.875C382.108 230.935 385.013 233.977 386.219 237.819C386.221 237.844 386.221 237.869 386.219 237.893C386.985 240.301 387.033 242.883 386.963 245.416Z" fill="#F86D70"/>
<path opacity="0.1" d="M386.963 245.416C386.963 245.807 386.937 246.199 386.92 246.594C386.842 248.501 386.666 250.403 386.393 252.292C386.032 254.87 385.4 257.403 384.507 259.849C383.916 261.458 383.163 263.003 382.261 264.461C381.46 265.755 380.523 266.96 379.465 268.055C376.852 270.767 373.09 271.632 369.45 272.775C367.775 273.259 366.156 273.918 364.62 274.743C364.346 274.895 364.076 275.061 363.815 275.234L359.26 278.246C357.84 279.181 356.39 280.15 355.415 281.536C355.255 281.772 355.11 282.017 354.98 282.271C354.363 283.547 353.912 284.896 353.638 286.286C351.269 296.135 348.896 305.991 347.272 315.987C347.163 316.648 347.059 317.313 346.945 317.978L346.906 318.186C346.887 318.137 346.863 318.089 346.837 318.043C335.184 325.075 323.1 331.42 310.651 336.501L307.946 313.901C307.665 312.064 307.571 310.203 307.668 308.347C307.925 305.422 309.118 302.649 309.44 299.733C309.745 296.878 309.205 293.997 307.885 291.445C307.372 290.454 306.727 289.481 306.61 288.373C306.492 287.264 307.132 286.252 308.247 286.139C309.118 285.174 309.188 283.857 308.931 282.553C308.794 281.873 308.59 281.207 308.321 280.567C307.581 278.75 306.644 276.773 307.28 274.917C307.448 274.581 307.524 274.206 307.498 273.831C307.503 273.808 307.503 273.784 307.498 273.761C307.35 273.274 306.771 273.061 306.47 272.649C305.904 271.879 306.47 270.832 306.819 269.945C307.157 268.993 307.354 267.995 307.402 266.986C307.45 266.425 307.485 265.86 307.546 265.304C307.631 264.551 307.766 263.805 307.951 263.07C309.009 258.907 311.553 255.272 315.105 252.848C316.799 251.709 318.685 250.879 320.413 249.806C322.184 248.614 323.875 247.308 325.473 245.894C329.308 242.707 333.296 239.703 337.435 236.881C341.886 233.847 346.497 231.052 351.248 228.51C352.264 227.963 353.28 227.429 354.296 226.911C355.402 226.331 356.515 225.782 357.636 225.264C361.224 223.556 365.295 224.195 369.262 225.333C370.926 225.807 372.567 226.372 374.152 226.885C375.7 227.387 377.189 228.054 378.594 228.875C382.108 230.935 385.013 233.977 386.219 237.819C386.221 237.844 386.221 237.869 386.219 237.893C386.985 240.301 387.033 242.883 386.963 245.416Z" fill="black"/>
<path d="M345.617 173.428C345.573 173.327 345.509 173.236 345.429 173.161C345.349 173.085 345.254 173.026 345.151 172.988C345.047 172.95 344.937 172.933 344.827 172.938C344.717 172.944 344.609 172.971 344.509 173.019C344.41 173.068 344.322 173.135 344.249 173.218C344.177 173.301 344.122 173.398 344.088 173.503C344.054 173.608 344.041 173.718 344.051 173.828C344.061 173.937 344.093 174.044 344.145 174.141L343.71 174.354L356.695 200.917L359.042 199.774L346.057 173.194L345.617 173.428Z" fill="#3F3D56"/>
<path d="M361.851 145.605C377.242 145.605 389.72 133.152 389.72 117.79C389.72 102.429 377.242 89.9756 361.851 89.9756C346.459 89.9756 333.982 102.429 333.982 117.79C333.982 133.152 346.459 145.605 361.851 145.605Z" fill="#FBBEBE"/>
<path d="M398.633 100.571C398.503 98.3601 398.174 96.1652 397.649 94.013C396.012 86.9855 393.02 80.0666 387.869 75.0208C387.552 73.7872 387.172 72.5702 386.732 71.3745C386.724 71.3449 386.714 71.3159 386.702 71.2876C385.165 67.0754 382.944 63.1446 380.127 59.6533C378.494 57.628 376.377 55.6288 373.773 55.5506C373.042 55.5245 372.267 55.6506 371.596 55.3159C371.103 54.9977 370.688 54.5729 370.381 54.0729C369.092 52.4466 367.382 51.2028 365.435 50.4759C363.489 49.749 361.381 49.5666 359.338 49.9485L359.068 50.005C358.916 50.0355 358.764 50.0702 358.633 50.1093C358.502 50.1485 358.267 50.2137 358.084 50.2702C358.285 50.6005 358.48 50.9351 358.672 51.2741C359.189 52.1926 359.668 53.1313 360.109 54.0903C360.475 54.89 360.813 55.7027 361.124 56.5285C356.665 57.0369 353.033 60.1965 349.715 63.204L341.903 70.2793C341.889 70.2912 341.876 70.3043 341.864 70.3184L341.637 70.5357C341.581 70.5922 341.524 70.6487 341.472 70.7096C341.451 70.7277 341.432 70.7481 341.415 70.7704C341.35 70.84 341.289 70.9138 341.228 70.9877C341.119 71.1246 341.022 71.2699 340.936 71.4223C340.893 71.4876 340.856 71.5558 340.823 71.6266C340.811 71.6474 340.801 71.6692 340.792 71.6918C340.764 71.7511 340.739 71.812 340.718 71.8743C340.717 71.8829 340.717 71.8918 340.718 71.9004C340.706 71.936 340.696 71.9723 340.688 72.009C340.599 72.3149 340.625 72.6426 340.762 72.9304L345.913 72.9869H346.519C346.545 73.6736 346.567 74.3646 346.593 75.0513C345.775 75.6619 344.99 76.3147 344.241 77.007C343.424 77.7617 342.658 78.5689 341.946 79.4234C337.3 85.0254 334.875 92.2616 334.631 99.5456C334.631 99.7715 334.631 99.9801 334.631 100.215C334.631 100.88 334.631 101.545 334.631 102.205C334.631 102.64 334.67 103.075 334.705 103.509C334.707 104.075 334.857 104.631 335.14 105.122C335.177 105.176 335.218 105.229 335.262 105.278C335.524 105.561 335.837 105.791 336.185 105.956L336.56 106.138C336.747 106.23 336.926 106.317 337.1 106.417C338.742 107.342 339.713 109.129 341.206 110.276C341.293 110.341 341.38 110.406 341.467 110.463L341.663 110.593L341.785 110.671L341.951 110.767C342.059 110.832 342.171 110.892 342.286 110.945L342.495 111.05H342.53C342.704 111.128 342.878 111.202 343.057 111.267L343.305 111.354L343.379 111.38C343.449 111.402 343.523 111.428 343.597 111.445C343.745 111.488 343.89 111.528 344.032 111.562L344.468 111.658C344.637 111.688 344.812 111.719 344.986 111.741L345.243 111.775L345.504 111.801C345.919 111.839 346.337 111.861 346.758 111.867C348.079 111.858 349.398 111.767 350.708 111.593L361.82 110.289C364.342 109.998 366.915 109.707 369.402 110.219C371.509 110.654 373.451 111.654 375.498 112.362C375.959 112.523 376.421 112.671 376.887 112.797C377.057 112.844 377.231 112.897 377.405 112.94L377.645 113.001L378.202 113.136C378.402 113.183 378.603 113.231 378.803 113.27C379.086 113.331 379.365 113.383 379.648 113.435C379.839 113.475 380.035 113.505 380.231 113.54H380.27L380.828 113.627H380.963L381.376 113.683C381.577 113.714 381.777 113.74 381.982 113.761C382.426 113.816 382.87 113.864 383.314 113.905C384.033 113.974 384.756 114.027 385.491 114.07L386.214 114.113L386.937 114.148L389.114 114.244H389.21H389.515C390.42 114.307 391.33 114.26 392.224 114.105C392.38 114.074 392.533 114.04 392.685 113.996C392.838 113.953 392.964 113.909 393.121 113.857C394.754 113.231 395.947 111.793 396.774 110.254C396.948 109.928 397.109 109.602 397.257 109.268C397.405 108.933 397.54 108.594 397.662 108.255C397.815 107.82 397.945 107.408 398.059 106.973C398.093 106.856 398.124 106.738 398.15 106.617C398.176 106.495 398.237 106.256 398.272 106.073C398.381 105.574 398.464 105.069 398.525 104.561C398.525 104.4 398.564 104.235 398.581 104.074C398.62 103.64 398.651 103.235 398.668 102.809C398.668 102.488 398.668 102.162 398.668 101.836C398.664 101.484 398.633 101.019 398.633 100.571ZM387.468 74.6254C387.116 74.2951 386.754 73.9778 386.389 73.6779C386.795 73.9343 387.159 74.2542 387.464 74.6254H387.468Z" fill="#464353"/>
<path d="M308.364 116.261C305.085 115.857 301.832 114.422 298.597 115.126C296.572 115.561 294.83 116.817 293.21 118.108C287.182 122.93 282.056 128.779 278.07 135.383C277.394 136.371 276.919 137.481 276.672 138.651C276.463 140.007 276.833 141.385 277.273 142.685C280.251 151.468 286.622 158.804 289.522 167.613C292.57 176.879 291.512 187.006 289.265 196.497C286.48 208.215 281.953 219.451 275.836 229.831C275.005 231.375 273.965 232.797 272.744 234.056C271.159 235.577 269.03 236.663 268.089 238.654C267.654 239.523 267.528 240.514 267.218 241.444C266.348 244.052 264.24 246.285 264.035 249.037C263.883 251.136 264.88 253.122 265.485 255.121C266.506 258.556 266.398 262.226 265.176 265.595C262.968 271.636 257.194 277.129 258.871 283.34C262.611 282.266 266.757 280.871 268.52 277.407C269.143 276.182 269.452 274.722 270.502 273.826C272.596 272.049 276.163 273.657 278.388 272.023C280.069 270.78 280.13 268.233 279.381 266.277C278.632 264.322 277.343 262.601 276.768 260.588C275.766 256.959 277.369 253.122 277.073 249.371C276.933 247.633 276.398 245.968 276.359 244.238C276.284 240.879 278.148 237.719 280.626 235.438C283.104 233.156 286.165 231.644 289.178 230.153L300.57 224.503C304.702 222.46 309.231 219.97 310.585 215.572C311.099 213.925 311.103 212.169 311.129 210.448C311.517 184.15 318.118 158.383 324.68 132.91C325.699 128.964 326.736 125.001 328.251 121.211C329.767 117.421 332.732 114.379 334.243 110.859C325.477 109.833 317.469 117.399 308.364 116.261Z" fill="#464353"/>
<path d="M371.161 281.241C372.166 287.326 372.78 293.541 373.259 299.725C365.421 306.209 356.982 311.85 348.408 317.083C347.921 317.383 347.429 317.678 346.936 317.952L346.897 318.161C346.878 318.111 346.854 318.063 346.828 318.017C346.162 316.583 344.999 315.437 343.553 314.793C340.339 308.056 337.129 301.32 333.921 294.584C332.179 290.946 330.437 287.274 329.566 283.349C329.566 283.266 329.527 283.18 329.514 283.097C328.852 280.055 328.7 276.895 328.26 273.814C328.037 272.049 327.639 270.311 327.071 268.625C326.549 267.125 325.83 265.669 325.194 264.205C324.411 262.397 323.753 260.567 323.723 258.616C323.723 257.994 323.762 257.312 323.457 256.79C323.131 256.341 322.729 255.953 322.268 255.643C321.693 255.134 321.258 254.488 321.002 253.765C320.746 253.042 320.678 252.266 320.805 251.51C318.192 251.645 316.721 254.448 315.671 256.825C314.717 259.15 313.464 261.342 311.944 263.344C310.835 264.775 309.426 265.945 307.816 266.773C307.672 266.843 307.528 266.912 307.38 266.973C303.744 268.573 299.498 268.008 295.558 267.286C292.113 266.656 288.551 265.874 285.782 263.735L285.486 263.501C284.666 262.821 283.934 262.041 283.308 261.18C280.987 258.016 279.96 253.848 279.389 249.88C279.337 249.506 279.285 249.133 279.237 248.759C278.841 245.955 278.732 243.119 278.91 240.293C278.963 239.597 279.037 238.902 279.128 238.211C279.189 237.776 279.254 237.307 279.328 236.855C279.326 236.842 279.326 236.829 279.328 236.816C279.442 236.099 279.564 235.377 279.685 234.643C280.121 232.179 280.556 229.649 281.863 227.529C282.722 226.209 283.807 225.05 285.068 224.104C285.538 223.734 286.021 223.382 286.509 223.043C287.301 222.496 288.116 221.974 288.943 221.483C291.025 220.24 293.21 219.178 295.475 218.311C296.015 218.102 296.564 217.906 297.112 217.719C299.245 216.962 301.54 216.781 303.766 217.194C305.738 217.478 307.731 217.595 309.723 217.541C314.831 217.441 319.96 216.468 325.059 215.838C332.14 214.968 339.747 214.864 345.922 218.445C346.218 218.615 346.505 218.793 346.793 218.98C349.841 220.97 352.297 223.76 354.278 226.877C354.714 227.533 355.092 228.206 355.467 228.889C356.33 230.455 357.111 232.065 357.805 233.713C358.216 234.522 358.438 235.414 358.454 236.321C358.444 236.493 358.421 236.664 358.384 236.833C358.267 237.451 358.032 238.05 357.949 238.676C357.675 241.045 359.691 243.022 360.444 245.278C360.932 246.747 360.88 248.32 361.154 249.867C361.55 252.04 362.617 253.996 363.575 255.952C365.089 259.1 366.384 262.348 367.451 265.674C368.208 267.99 368.857 270.341 369.427 272.714C369.613 273.476 369.789 274.24 369.954 275.005C370.429 277.108 370.817 279.168 371.161 281.241Z" fill="#F86D70"/>
<path d="M417.588 216.881V219.923L417.027 219.914L416.4 219.906L409.398 219.819L392.145 219.593L387.303 219.532L386.049 219.514L378.781 219.423L368.539 219.288L346.81 219.006L309.105 218.519L295.497 218.345L290.036 218.276L285.011 218.211L281.88 218.167L278.915 218.128L256.929 217.846L250.833 217.767L249.505 217.75L248.642 215.529L242.376 199.401L241.231 196.454L242.102 192.978L246.021 195.585L248.433 195.885L288.151 200.813L295.606 201.739L311.413 203.704L326.897 205.625L332.967 206.376L368.888 210.835L378.925 212.083L387.233 213.113L416.774 216.781L417.588 216.881Z" fill="#3F3D56"/>
<path d="M242.102 192.978L249.94 213.404L417.588 216.881V194.716L242.102 192.978Z" fill="#504F60"/>
<path d="M250.811 215.576L252.117 340.307L258.213 339.438L256.907 215.576H250.811Z" fill="#3F3D56"/>
<path d="M417.027 219.909H416.4C415.385 227.686 413.705 235.361 411.379 242.852L409.398 219.818L409.315 218.836L416.639 217.993L416.883 217.967L417.027 219.909Z" fill="#3F3D56"/>
<path d="M393.203 205.146L329.41 206.45L309.597 199.931L362.722 196.889L393.203 205.146Z" fill="white"/>
<path d="M313.18 179.8C312.504 180.059 311.905 180.485 311.439 181.038C311.074 181.638 310.852 182.313 310.79 183.011L309.719 189.387C309.555 189.97 309.584 190.59 309.801 191.156C310.08 191.69 310.89 191.969 311.295 191.525C311.243 192.773 311.352 194.103 312.079 195.12C312.806 196.137 314.33 196.671 315.358 195.963C315.519 196.225 315.735 196.449 315.992 196.619C316.248 196.789 316.539 196.902 316.843 196.949C317.148 196.996 317.459 196.977 317.755 196.892C318.051 196.807 318.325 196.659 318.558 196.458C317.94 196.667 317.896 197.61 318.336 198.088C318.829 198.522 319.456 198.772 320.113 198.796C327.765 199.873 335.566 198.893 342.713 195.958C343.388 195.68 341.611 187.375 341.433 186.523C340.997 184.52 340.779 182.073 339.085 180.725C335.036 177.501 327.842 176.866 322.908 177.249C319.538 177.503 316.241 178.368 313.18 179.8Z" fill="#FBBEBE"/>
<path opacity="0.1" d="M378.089 180.764C362.338 181.064 346.262 181.321 331.23 176.614C332.666 182.167 332.566 188.005 330.942 193.507L404.586 199.591C407.708 199.848 420.654 201.308 423.698 200.573C426.742 199.839 398.159 190.443 399.313 187.535C402.487 179.526 413.121 174.832 405.461 174.532C395.794 174.15 387.83 180.582 378.089 180.764Z" fill="black"/>
<path d="M378.524 181.633C362.774 181.933 346.697 182.19 331.665 177.483C333.101 183.036 333.002 188.874 331.378 194.376L405.021 200.46C408.144 200.717 421.09 202.199 424.133 201.443C427.177 200.686 426.463 196.962 427.617 194.054C430.791 186.045 413.556 175.701 405.897 175.401C396.23 175.019 388.265 181.451 378.524 181.633Z" fill="#464353"/>
<path d="M353.481 182.843C354.158 183.101 354.757 183.527 355.223 184.081C355.587 184.682 355.81 185.356 355.876 186.054L356.947 192.43C357.109 193.014 357.08 193.633 356.865 194.199C356.586 194.733 355.772 195.012 355.371 194.568C355.419 195.816 355.314 197.146 354.587 198.163C353.86 199.18 352.336 199.714 351.304 199.006C351.143 199.268 350.927 199.492 350.67 199.662C350.414 199.832 350.123 199.945 349.819 199.992C349.514 200.039 349.203 200.02 348.907 199.935C348.611 199.85 348.337 199.702 348.103 199.501C348.722 199.71 348.77 200.653 348.33 201.131C347.836 201.565 347.207 201.815 346.549 201.839C338.898 202.916 331.098 201.936 323.953 199.001C323.278 198.723 325.051 190.418 325.234 189.566C325.669 187.563 325.887 185.116 327.581 183.768C331.626 180.544 338.824 179.909 343.758 180.292C347.127 180.547 350.422 181.411 353.481 182.843Z" fill="#FBBEBE"/>
<path d="M249.409 169C247.963 170.86 246.513 172.759 245.581 174.928C243.8 179.065 244.062 183.75 244.358 188.244C244.44 189.548 244.545 190.878 245.229 191.96C245.82 192.778 246.599 193.441 247.502 193.894C251.273 196.032 255.688 196.671 259.999 197.149C266.601 197.879 273.225 198.324 279.873 198.484C296.342 198.883 313.063 197.54 329.105 201.265C327.119 198.253 327.124 194.268 328.234 190.834C329.345 187.401 331.483 184.411 333.577 181.469C326.235 179.148 318.363 182.773 310.672 182.412C302.778 182.042 295.471 177.488 287.567 177.492C285.869 177.492 284.14 177.705 282.49 177.297C280.84 176.888 279.242 175.645 279.089 173.954C281.197 174.428 283.196 172.629 284.066 170.656C284.937 168.683 285.094 166.453 285.939 164.467C288.042 159.526 293.725 157.235 297.261 153.167C297.818 152.524 298.345 151.764 298.327 150.912C298.244 150.19 297.94 149.512 297.457 148.969C294.517 145.058 290.089 142.885 286.409 139.842C285.129 138.782 282.547 134.784 281.11 134.414C278.445 133.732 276.185 137.574 274.452 139.447C265.702 148.936 257.354 158.787 249.409 169Z" fill="#464353"/>
<path opacity="0.07" d="M336.969 167.896C338.073 168.713 339.054 169.684 339.882 170.778C340.295 171.327 340.589 171.957 340.746 172.625C340.903 173.294 340.918 173.988 340.792 174.663C340.657 173.404 340.939 172.134 341.594 171.049C342.248 169.964 343.241 169.122 344.42 168.653L336.969 167.896Z" fill="black"/>
<g opacity="0.1">
<path opacity="0.1" d="M361.119 53.9258C360.607 52.5675 360.016 51.2397 359.351 49.9492C358.921 50.0317 358.496 50.1406 358.08 50.2752C358.827 51.5137 359.5 52.7951 360.096 54.1127C360.431 54.0258 360.771 53.965 361.119 53.9258Z" fill="black"/>
<path opacity="0.1" d="M386.384 71.0625C386.501 71.1581 386.615 71.2668 386.728 71.3667C386.72 71.3385 386.709 71.3109 386.697 71.2842C386.599 71.2117 386.494 71.1378 386.384 71.0625Z" fill="black"/>
<path opacity="0.1" d="M345.905 72.9743C346.131 72.7961 346.34 72.6093 346.584 72.4354L346.514 70.371L341.864 70.3232C341.11 71.0143 340.309 72.0052 340.753 72.9309L345.905 72.9743Z" fill="black"/>
<path opacity="0.1" d="M396.748 107.725C395.92 109.264 394.727 110.707 393.094 111.328C391.836 111.806 390.451 111.763 389.106 111.702C384.516 111.515 379.848 111.311 375.511 109.794C373.482 109.081 371.54 108.086 369.415 107.647C366.928 107.134 364.355 107.425 361.833 107.721L350.721 109.025C347.442 109.407 343.788 109.694 341.171 107.686C339.673 106.539 338.707 104.752 337.065 103.831C336.373 103.44 335.55 103.188 335.101 102.527C334.818 102.037 334.668 101.481 334.666 100.915C334.631 100.459 334.609 100.002 334.592 99.5459C334.544 100.872 334.569 102.199 334.666 103.523C334.668 104.089 334.818 104.644 335.101 105.135C335.537 105.791 336.373 106.043 337.065 106.439C338.707 107.36 339.678 109.146 341.171 110.294C343.784 112.302 347.442 112.032 350.721 111.632L361.833 110.328C364.355 110.033 366.928 109.742 369.415 110.255C371.522 110.689 373.464 111.689 375.511 112.401C379.865 113.918 384.516 114.14 389.106 114.309C390.451 114.366 391.836 114.414 393.094 113.936C394.727 113.314 395.92 111.871 396.748 110.333C398.35 107.356 398.799 103.979 398.629 100.576C398.536 103.068 397.893 105.509 396.748 107.725Z" fill="black"/>
</g>
<path opacity="0.1" d="M360.993 56.7207L367.09 62.3706C367.09 62.3706 361.864 60.1975 360.993 56.7207Z" fill="black"/>
</g>
<defs>
<clipPath id="clip0">
<rect width="428" height="349" fill="white"/>
</clipPath>
</defs>
</svg>
