<svg width="273" height="273" viewBox="0 0 273 273" fill="none" xmlns="http://www.w3.org/2000/svg">
<path d="M136.16 0C60.9615 0 0 60.9615 0 136.16C0 211.359 60.9615 272.32 136.16 272.32C211.359 272.32 272.32 211.359 272.32 136.16C272.32 60.9615 211.359 0 136.16 0Z" fill="#9DCAFF"/>
<path d="M91.6318 116.656H103.04V162.656H91.6318V116.656Z" fill="#EF3900"/>
<path d="M90.1598 161.92C89.0558 161.92 88.3198 161.184 88.3198 160.08V119.6C88.3198 118.496 89.0558 117.76 90.1598 117.76C91.2638 117.76 91.9998 118.496 91.9998 119.6V160.08C91.9998 161.184 91.2638 161.92 90.1598 161.92ZM104.88 161.92C103.776 161.92 103.04 161.184 103.04 160.08V119.6C103.04 118.496 103.776 117.76 104.88 117.76C105.984 117.76 106.72 118.496 106.72 119.6V160.08C106.72 161.184 105.984 161.92 104.88 161.92Z" fill="#333333"/>
<path d="M118.496 108.554L124.858 94.875L179.248 120.169L172.885 133.851L118.496 108.554Z" fill="#EF3900"/>
<path d="M164.128 131.008C163.76 131.008 163.76 131.008 163.392 131.008L126.592 114.08C125.488 113.712 125.12 112.608 125.856 111.504C126.224 110.4 127.328 110.032 128.432 110.768L165.232 127.696C166.336 128.064 166.704 129.168 165.968 130.272C165.6 130.64 164.864 131.008 164.128 131.008Z" fill="#333333"/>
<path d="M170.384 117.76C170.016 117.76 170.016 117.76 169.648 117.76L146.096 106.72C144.992 106.352 144.624 105.248 145.36 104.144C145.728 103.04 146.832 102.672 147.936 103.408L171.488 114.448C172.592 114.816 172.96 115.92 172.224 117.024C171.856 117.392 171.12 117.76 170.384 117.76Z" fill="#333333"/>
<path d="M124.792 164.896L180.518 138.98L187.036 152.993L131.312 178.911L124.792 164.896Z" fill="#EF3900"/>
<path d="M145.36 173.696C144.624 173.696 143.888 173.328 143.52 172.592C143.152 171.488 143.52 170.752 144.256 170.016L169.28 158.24C170.384 157.872 171.12 158.24 171.856 158.976C172.224 160.08 171.856 160.816 171.12 161.552L146.096 173.328C145.728 173.328 145.36 173.696 145.36 173.696Z" fill="#333333"/>
<path d="M127.328 165.6C126.592 165.6 125.856 165.232 125.488 164.496C125.12 163.392 125.488 162.656 126.224 161.92L163.024 144.992C164.128 144.624 164.864 144.992 165.6 145.728C166.336 146.464 165.6 147.568 164.864 148.304L128.064 165.232C128.064 165.6 127.696 165.6 127.328 165.6Z" fill="#333333"/>
<path d="M196.88 101.936C176.962 101.936 160.816 118.082 160.816 138C160.816 157.918 176.962 174.064 196.88 174.064C216.798 174.064 232.944 157.918 232.944 138C232.944 118.082 216.798 101.936 196.88 101.936Z" fill="#EF3900"/>
<path d="M196.88 104.512C215.28 104.512 230.368 119.6 230.368 138C230.368 156.4 215.28 171.488 196.88 171.488C178.48 171.488 163.392 156.4 163.392 138C163.392 119.6 178.48 104.512 196.88 104.512ZM196.88 99.3599C175.536 99.3599 158.24 116.656 158.24 138C158.24 159.344 175.536 176.64 196.88 176.64C218.224 176.64 235.52 159.344 235.52 138C235.52 116.656 218.224 99.3599 196.88 99.3599Z" fill="#333333"/>
<path d="M196.88 161.92C183.632 161.92 172.96 151.248 172.96 138C172.96 124.752 183.632 114.08 196.88 114.08C197.984 114.08 198.72 114.816 198.72 115.92C198.72 117.024 197.984 117.76 196.88 117.76C185.84 117.76 176.64 126.96 176.64 138C176.64 149.04 185.84 158.24 196.88 158.24C207.92 158.24 217.12 149.04 217.12 138C217.12 136.896 217.856 136.16 218.96 136.16C220.064 136.16 220.8 136.896 220.8 138C220.8 151.248 210.128 161.92 196.88 161.92ZM216.752 129.904C216.016 129.904 215.28 129.536 215.28 128.8C213.44 125.12 210.496 122.176 206.816 119.968C206.08 119.6 205.712 118.496 206.08 117.392C206.448 116.656 207.552 116.288 208.656 116.656C213.072 118.864 216.384 122.544 218.592 126.96C218.96 127.696 218.592 128.8 217.856 129.536C217.12 129.904 217.12 129.904 216.752 129.904Z" fill="#333333"/>
<path d="M97.5201 54.0962C77.6021 54.0962 61.4561 70.2422 61.4561 90.1602C61.4561 110.078 77.6021 126.224 97.5201 126.224C117.438 126.224 133.584 110.078 133.584 90.1602C133.584 70.2422 117.438 54.0962 97.5201 54.0962Z" fill="#EF3900"/>
<path d="M97.5199 56.672C115.92 56.672 131.008 71.76 131.008 90.16C131.008 108.56 115.92 123.648 97.5199 123.648C79.1199 123.648 64.0319 108.56 64.0319 90.16C64.0319 71.76 79.1199 56.672 97.5199 56.672ZM97.5199 51.52C76.1759 51.52 58.8799 68.816 58.8799 90.16C58.8799 111.504 76.1759 128.8 97.5199 128.8C118.864 128.8 136.16 111.504 136.16 90.16C136.16 68.816 118.864 51.52 97.5199 51.52Z" fill="#333333"/>
<path d="M97.5201 114.08C84.2721 114.08 73.6001 103.408 73.6001 90.1597C73.6001 76.9117 84.2721 66.2397 97.5201 66.2397C98.6241 66.2397 99.3601 66.9757 99.3601 68.0797C99.3601 69.1837 98.6241 69.9197 97.5201 69.9197C86.4801 69.9197 77.2801 79.1197 77.2801 90.1597C77.2801 101.2 86.4801 110.4 97.5201 110.4C108.56 110.4 117.76 101.2 117.76 90.1597C117.76 89.0557 118.496 88.3197 119.6 88.3197C120.704 88.3197 121.44 89.0557 121.44 90.1597C121.44 103.408 110.768 114.08 97.5201 114.08ZM117.392 82.0637C116.656 82.0637 115.92 81.6957 115.92 80.9597C114.08 77.2797 111.136 74.3357 107.456 72.1277C106.72 71.7597 106.352 70.6557 106.72 69.5517C107.088 68.8157 108.192 68.4477 109.296 68.8157C113.712 71.0237 117.024 74.7037 119.232 79.1197C119.6 79.8557 119.232 80.9597 118.496 81.6957C117.76 82.0637 117.76 82.0637 117.392 82.0637Z" fill="#333333"/>
<path d="M97.5201 153.456C77.6021 153.456 61.4561 169.602 61.4561 189.52C61.4561 209.438 77.6021 225.584 97.5201 225.584C117.438 225.584 133.584 209.438 133.584 189.52C133.584 169.602 117.438 153.456 97.5201 153.456Z" fill="#EF3900"/>
<path d="M97.5199 156.032C115.92 156.032 131.008 171.12 131.008 189.52C131.008 207.92 115.92 223.008 97.5199 223.008C79.1199 223.008 64.0319 207.92 64.0319 189.52C64.0319 171.12 79.1199 156.032 97.5199 156.032ZM97.5199 150.88C76.1759 150.88 58.8799 168.176 58.8799 189.52C58.8799 210.864 76.1759 228.16 97.5199 228.16C118.864 228.16 136.16 210.864 136.16 189.52C136.16 168.176 118.864 150.88 97.5199 150.88Z" fill="#333333"/>
<path d="M97.5201 213.44C84.2721 213.44 73.6001 202.768 73.6001 189.52C73.6001 176.272 84.2721 165.6 97.5201 165.6C98.6241 165.6 99.3601 166.336 99.3601 167.44C99.3601 168.544 98.6241 169.28 97.5201 169.28C86.4801 169.28 77.2801 178.48 77.2801 189.52C77.2801 200.56 86.4801 209.76 97.5201 209.76C108.56 209.76 117.76 200.56 117.76 189.52C117.76 188.416 118.496 187.68 119.6 187.68C120.704 187.68 121.44 188.416 121.44 189.52C121.44 202.768 110.768 213.44 97.5201 213.44ZM117.392 181.424C116.656 181.424 115.92 181.056 115.92 180.32C114.08 176.64 111.136 173.696 107.456 171.488C106.72 171.12 106.352 170.016 106.72 168.912C107.088 167.808 108.192 167.808 109.296 168.176C113.712 170.384 117.024 174.064 119.232 178.48C119.6 179.216 119.232 180.32 118.496 181.056C117.76 181.424 117.76 181.424 117.392 181.424Z" fill="#333333"/>
</svg>
