<?xml version="1.0" encoding="utf-8"?>
<!-- Generator: Adobe Illustrator 24.1.2, SVG Export Plug-In . SVG Version: 6.00 Build 0)  -->
<svg version="1.1" id="Ebene_1" xmlns="http://www.w3.org/2000/svg" xmlns:xlink="http://www.w3.org/1999/xlink" x="0px" y="0px"
	 viewBox="0 0 400 400" style="enable-background:new 0 0 400 400;" xml:space="preserve">
<style type="text/css">
	.st0{clip-path:url(#SVGID_2_);}
	.st1{fill:url(#SVGID_3_);}
	.st2{fill:#444176;}
	.st3{opacity:0.1;enable-background:new    ;}
	.st4{fill:#565387;}
	.st5{opacity:0.1;}
	.st6{fill:#CED2DF;}
	.st7{fill:#88455E;}
	.st8{fill:#EC8C9C;}
	.st9{fill:#EBF1F6;}
	.st10{fill:url(#SVGID_4_);}
	.st11{fill:url(#SVGID_5_);}
	.st12{fill:#FFBDC6;}
	.st13{fill:#7679B4;}
	.st14{fill:#A66477;}
	.st15{fill:#F2F1F2;}
	.st16{fill:#565388;}
	.st17{fill:url(#SVGID_6_);}
	.st18{fill:#493545;}
	.st19{opacity:5.000000e-02;enable-background:new    ;}
	.st20{fill:#3E3D77;}
	.st21{fill:#C77485;}
	.st22{fill:#FFAAC4;}
</style>
<g>
	<defs>
		<rect id="SVGID_1_" x="15.5" y="61" width="396.2" height="276"/>
	</defs>
	<clipPath id="SVGID_2_">
		<use xlink:href="#SVGID_1_"  style="overflow:visible;"/>
	</clipPath>
	<g class="st0">
		
			<linearGradient id="SVGID_3_" gradientUnits="userSpaceOnUse" x1="305.2328" y1="-106.7467" x2="305.2328" y2="65.9698" gradientTransform="matrix(1 0 0 -1 -97.6 181.1)">
			<stop  offset="0" style="stop-color:#808080;stop-opacity:0.25"/>
			<stop  offset="0.54" style="stop-color:#808080;stop-opacity:0.12"/>
			<stop  offset="1" style="stop-color:#808080;stop-opacity:0.1"/>
		</linearGradient>
		<path class="st1" d="M266.6,144.4c-1.8-4.6-6.4-15.6-9.4-13.4c-3.8,2.7,3.8,14.8,3.8,14.8c0.2,2.2-4.1,6.8-6.4,9.1
			c0-0.2,0-0.3,0-0.3c0,0.1-0.1,0.2-0.1,0.3l-0.2-0.1c-0.1,0.2-0.1,0.4-0.3,0.5c0-0.3,0-0.5,0-0.5c-0.4,1.9-8.2,4.2-8.2,4.2
			s-0.2,0-0.6,0c-2.1,0-7.7-0.5-10.3-4.6c-1.3-2.2-3-4.2-5.1-5.9c-0.7-0.5-1.5-0.9-2.4-0.9c-7.1-0.5-12.9-4.1-14.1-4.8l-0.2-0.1
			l0,0.1c-0.3-0.4-0.5-0.8-0.8-1.2l-0.1-0.2c1.7-0.9,3.2-2.2,4.2-3.8c1-1.6,1.6-3.5,1.6-5.5c0-0.1,0-0.1,0-0.2c0.6-1.1,1-2.3,1-3.6
			V127l1.6-1.5c0.7-0.7,1.5-1.4,1.9-2.3c0.2-0.4,0.2-0.8,0.2-1.2c0-0.3,0-0.7-0.1-1c-0.1-0.3-0.3-0.6-0.6-0.8
			c-1.3-0.9-3.3,0-4.2-1.2c-0.4-0.5-0.3-1.3-0.5-1.9c-0.4-1.3-1.9-2-3.3-2c-1.4,0-2.7,0.5-4.1,0.9c-2.8,0.8-5.7,1.1-8.6,0.8
			c-0.8-0.1-1.6-0.1-2.4,0.1c-0.5,0.2-0.9,0.5-1.2,0.9c-0.3,0.4-0.6,0.8-0.7,1.3c-0.1,0.4-0.2,0.8-0.2,1.1c-1.2,1.3-1.8,3-1.8,4.8
			v3.2c0,1.7,0.6,3.4,1.7,4.7c0.1,1.5,0.6,3,1.3,4.3c0.8,1.3,1.8,2.4,3,3.3c0,0.1,0,0.2,0,0.3l0.1,0c-0.1,1-0.2,2-0.5,2.9v-0.2
			c0,0-5.8,3.1-12.1,3.2h-0.7c-1.2,0-2.4,0.4-3.3,1.3c-1.9,1.7-5.1,4.5-7.1,4.5c-0.4,0-10.9,2.1-12.7,2.4l-3.3-3.2l-0.1,0.2
			l-0.2-0.2c-0.4,0-0.7,0.1-1.1,0.2c-1.7-2-5-6.6-5.8-12.7c0,0,7.2-8.2,4.6-15.9c-2.3-6.5-8.5,7.5-10.3,11.7
			c-0.3,0.7-0.3,1.6-0.1,2.3l5.9,18.9c-0.6,1.5-0.7,3-0.5,4.6h-0.1l4.3,5.5c0,0,3.2,1.4,8.2,1.3c3.7,0,7.3-0.7,10.7-2.1h1l-0.2,0.1
			h5.1l3.2,9.8c-0.1,0.9-1.7,13.3-2.9,16.1c-0.4,0.9-0.5,1.9-0.5,2.9c0.1,1.9,0.4,3.8,0.9,5.7l2.8-0.1l-0.1,0.2
			c-2.4,4.9-6.4,13.7-8.8,21.8l-4.1,8.3l3.1,37.4h0.1l0.2,0c0.3,0.1,0.8,0.1,1.5,0.2l-0.2,0.4l-6.8,11.3c0,0-4.9,9.9,5.9,8.1
			c0,0,4-1.2,5.6-7.9l7.1-6.6c0,0,0.3-4.4-1.7-6.2c-0.1-2-0.4-8,0-9.4c0.6-1.7-2.5-21.6-2.5-21.6s11.2-23.2,17.9-23.8
			c0.5,0,1,0,1.5,0.2c5.6,1.8,12.3,15.3,14.3,19.4l0.1,0.2v0l0.1,0.2v0l0.1,0.1v0l0.1,0.1v0l0.1,0.1v0l0,0.1v0l0,0.1v0v0l0,0.1
			l0.9,26.1l0.1,0h0l-0.1,0.5l-0.4,2.7c0,0,4.9,10.2,4.6,11.5c-0.3,1.3,3.2,6.5,8.2,5c5-1.4,2-9.6,2-9.6l-4.8-9.9l-0.2-0.4
			c0.5-0.3,0.9-0.6,1.4-1c0,0-1.5-10.7,0-13c1.5-2.3,1.9-12.8,1.9-12.8s-1-7.2-2.8-10.4l-7.4-26.4c2.2,2.1,3.9,2.9,5.4,2.8h0.2
			c0.6,0,1.3-0.1,1.8-0.5c0.3-0.2,0.6-0.4,0.8-0.6c0,0,0.1-0.1,0.1-0.1c2.1-1.7-2.4-8.5-4.9-12.5c-2.4-3.9,0.9-14.4,1.2-15.2
			c0.2-0.2,0.5-0.3,0.7-0.4c0.5-0.2,1.1-0.3,1.6-0.4c2.4,0.1,5.3,1.5,9,2.2c2.5,0.4,5.1,0.6,7.7,0.6h0.2c1,0,1.9,0,2.7-0.1
			c0.7,0,1.4-0.2,2-0.5c0.5-0.3,1-0.7,1.4-1.1l6.4-7.2l-0.2,0.1c0.3-0.8,0.3-1.7,0-2.5l6.8-11.7c0.3-0.6,0.5-1.2,0.6-1.9
			C266.9,145.7,266.8,145,266.6,144.4z"/>
		<path class="st2" d="M190.6,272.1l-6.8,6.5c-1.6,6.7-5.4,7.8-5.4,7.8c-10.4,1.8-5.7-7.9-5.7-7.9l6.6-11.1l0.8-1.4
			c0,0,4.7-1.4,7.8-0.6c0.4,0.1,0.8,0.3,1.1,0.6C191,267.7,190.6,272.1,190.6,272.1z"/>
		<path class="st2" d="M232.6,277.9c-4.8,1.4-8.2-3.7-7.9-5c0.3-1.3-4.4-11.3-4.4-11.3l0.4-2.7l0.3-2.5l7.9,0.6l0.7,1.6l4.6,9.8
			C234.3,268.4,237.5,276.5,232.6,277.9z"/>
		<path class="st3" d="M189.1,267.1c-0.7,1.3-6.8,0.6-9.7,0.2l0.8-1.4c0,0,4.7-1.4,7.8-0.6c0.4,0.1,0.8,0.3,1.1,0.6
			C189,266.7,189.1,267.1,189.1,267.1z"/>
		<path class="st3" d="M229.7,258.6c-4.1,2.7-8.4,0.7-9,0.3l0.3-2.5l7.9,0.6L229.7,258.6z"/>
		<path class="st4" d="M230.8,244.4c-1.4,2.3,0,12.8,0,12.8c-4.7,4.3-10.2,1.1-10.2,1.1l-0.8-25.7c0,0-9.2-21.1-15.8-20.6
			c-6.5,0.6-17.3,23.4-17.3,23.4s3,19.6,2.4,21.3c-0.6,1.7,0,9.9,0,9.9c-1,1.7-11.3,0-11.3,0l-3-36.9l4-8.2
			c2.3-8.1,6.1-16.7,8.4-21.5c1.1-2.4,1.9-3.9,1.9-3.9l7.5-1.6l24.5-5.1l8.8,32.1c1.7,3.1,2.7,10.2,2.7,10.2
			S232.2,242.1,230.8,244.4z"/>
		<g class="st5">
			<path class="st3" d="M222.8,258.3l-0.8-25.7c0,0-9.2-21.1-15.7-20.6c-0.3,0-0.6,0.1-0.9,0.2c6.4,2.1,14.3,20.4,14.3,20.4
				l0.8,25.7c1.7,0.9,3.7,1.2,5.6,1C225,259.2,223.9,258.9,222.8,258.3z"/>
			<path class="st3" d="M180,266.7l-3-36.9l4-8.2c2.3-8.1,6.1-16.7,8.4-21.5c1.1-2.4,1.9-3.9,1.9-3.9l7.5-1.6l22.4-4.7l-0.1-0.4
				l-24.5,5.1l-7.5,1.6c0,0-0.8,1.5-1.9,3.9c-2.3,4.8-6.2,13.5-8.4,21.5l-4,8.2l3,36.9c0,0,5.7,0.9,9,0.7
				C184.5,267.3,182.2,267,180,266.7z"/>
		</g>
		<path class="st6" d="M162.7,152.4c0,0-8.1,0.4-7,8.9l2.3,0.3l3.4-3.7l1.7-3.1v-0.7L162.7,152.4z"/>
		<path class="st3" d="M162.7,152.4c0,0-8.1,0.4-7,8.9l2.3,0.3l3.4-3.7l1.7-3.1v-0.7L162.7,152.4z"/>
		<path class="st6" d="M252.7,155.5c0,0,6.7,3.5,5,7.7l-2.1,0.8l-2.8-1.6l-0.4-3.7l0.3-2.6L252.7,155.5z"/>
		<path class="st3" d="M252.7,155.5c0,0,6.7,3.5,5,7.7l-2.1,0.8l-2.8-1.6l-0.4-3.7l0.3-2.6L252.7,155.5z"/>
		<path class="st7" d="M209.9,118.9h-5.7c-4.9,0-8.8,3.9-8.8,8.8c0,4.9,3.9,8.8,8.8,8.8h5.7c4.9,0,8.8-3.9,8.8-8.8
			C218.7,122.8,214.7,118.9,209.9,118.9z"/>
		<path class="st8" d="M162.7,153.6l-5,7.9l-0.4-1.4l-6.7-22c-0.2-0.7-0.2-1.6,0.1-2.3c1.7-4.1,7.7-17.9,9.9-11.5
			c2.6,7.5-4.4,15.6-4.4,15.6c0.8,6.6,4.5,11.3,5.9,13C162.5,153.3,162.7,153.6,162.7,153.6z"/>
		<path class="st8" d="M251.6,157c0,0,7.8-7.4,7.5-10.4c0,0-7.4-11.9-3.7-14.6c2.9-2.1,7.4,8.6,9.1,13.2c0.2,0.6,0.3,1.3,0.3,1.9
			c-0.1,0.6-0.2,1.3-0.6,1.8l-9.3,16.5L251.6,157z"/>
		<path class="st8" d="M201.1,136.4c0,0,1.4,9.1-2.7,12.5c-4.1,3.4,11.8,3.4,11.8,3.4l5.7-5.3c0,0-6.5-6.1-4.5-10.6L201.1,136.4z"/>
		<path class="st3" d="M200.8,146.8c0,0,6.1,4.5,12.2-0.6l9.9,20.6l-0.6,25.1c0,0-20.6,10.6-29.1,4.1c-8.5-6.5-1.4-9.9-1.4-9.9
			l-2-19.3l2.1-12.5c0,0,3.8-6,4.1-6C196.4,148.3,200.8,146.8,200.8,146.8z"/>
		<path class="st9" d="M200.8,146.5c0,0,6.1,4.6,12.2-0.6l9.9,20.6l-0.6,25.1c0,0-20.6,10.6-29.1,4.1c-8.5-6.5-1.4-9.9-1.4-9.9
			l-2-19.3L192,154c0,0,3.8-6,4.1-6C196.5,148,200.8,146.5,200.8,146.5z"/>
		<path class="st3" d="M200.8,144.3c0,0-5.8,3.3-12.1,3.1c-0.6,0-1.2,0.1-1.7,0.3c-0.6,0.2-1.1,0.5-1.5,0.9
			c-1.8,1.7-4.9,4.4-6.9,4.4c-0.4,0-12.5,2.4-12.5,2.4l-3.2-3.2c0,0-4.8,9.3-7,8.9l4.1,5.4c0,0,7.8,3.4,18-0.7h6l3.1,9.7
			c0,0-1.6,13.1-2.8,15.9s0.4,8.4,0.4,8.4l11.2-0.4c0,0,0.6-5.5,1.4-6.3c0.9-0.7-3-25.1-3-25.1s-2.6-13.8,6.8-18.7L200.8,144.3z"/>
		<path class="st3" d="M196.6,194.6c-0.4,1.7-0.7,3.4-0.9,5.1l-8.6,0.3c1.1-2.4,1.9-3.9,1.9-3.9L196.6,194.6z"/>
		<path class="st3" d="M162.7,153.6l-5,7.9l-0.4-1.4c1.8-1.8,4-5.6,4.8-7.2C162.5,153.3,162.7,153.6,162.7,153.6z"/>
		<path class="st6" d="M200.8,144.3c0,0-6.1,3.3-12.3,3.1c-0.6,0-1.2,0.1-1.7,0.3c-0.6,0.2-1.1,0.5-1.5,0.9
			c-1.8,1.7-4.9,4.4-6.9,4.4c-0.4,0-12.5,2.4-12.5,2.4l-3.2-3.2c0,0-4.8,9.3-7,8.9l4.1,5.4c0,0,7.8,3.4,18-0.7h6l3.1,9.6
			c0,0-1.6,13.1-2.8,15.9c-1.3,2.8,0.4,8.4,0.4,8.4l11.2-0.4c0,0,0.6-5.5,1.4-6.3c0.9-0.7-3-25.1-3-25.1s-2.6-13.8,6.8-18.7
			L200.8,144.3z"/>
		<path class="st3" d="M213,143.5c0,0,5.8,4.4,13.5,4.9c0.8,0.1,1.7,0.4,2.3,0.9c1.9,1.7,3.6,3.6,4.9,5.8c3.1,5.1,10.8,4.5,10.8,4.5
			s7.4-2.3,7.9-4.2c0,0,0.2,10,4.9,7.6l-6.2,7.1c-0.4,0.4-0.9,0.8-1.4,1.1c-0.5,0.3-1.1,0.4-1.7,0.4c-2.3,0.1-6.3,0.1-9.7-0.5
			c-5.1-1-8.8-3.4-11.5-1.3c0,0-3.5,11.1-1.1,15s6.7,10.6,4.7,12.3c-2,1.7-4.4,1.6-8.4-2.6c-4-4.1-4.4-11.1-4.4-11.1l1-17.9
			c0,0-3.8-13.5-7.5-16.2L213,143.5z"/>
		<path class="st3" d="M257.9,162.9l-6.2,7.1c-0.4,0.5-0.9,0.9-1.5,1.1c-0.5,0.2-1.1,0.4-1.6,0.4c-2.3,0.1-6.3,0.1-9.7-0.5
			c-4.8-0.9-8.3-3.1-11-1.6c-0.2,0.1-0.4,0.2-0.5,0.4c0,0-3.5,11.1-1.1,15c2.4,4,6.7,10.6,4.7,12.3c-0.3,0.3-0.7,0.5-1.1,0.7
			c-1.8,0.8-4,0.1-7.3-3.3c-4-4.1-4.4-11.1-4.4-11.1l1-17.9c0,0-3.8-13.5-7.5-16.2l1.6-5.8c1.1,0.8,6.7,4.3,13.6,4.8
			c0.8,0.1,1.7,0.4,2.3,0.9c1.9,1.7,3.6,3.6,4.9,5.8c3.1,5.1,10.8,4.5,10.8,4.5c1.8-0.6,3.6-1.3,5.4-2.1c1.1-0.5,2-1.1,2.5-1.7
			c0.1-0.1,0.2-0.3,0.3-0.5C253,155.4,253.2,165.3,257.9,162.9z"/>
		<path class="st6" d="M257.6,163.1l-6.2,7.1c-0.3,0.4-0.7,0.7-1.2,1c-0.6,0.3-1.2,0.5-1.9,0.5c-2.3,0.1-6.3,0.1-9.7-0.5
			c-4.6-0.9-8.1-3-10.7-1.8c-0.3,0.1-0.6,0.3-0.8,0.5c0,0-3.5,11.1-1.1,15c2.4,4,6.7,10.6,4.7,12.3c-0.3,0.2-0.5,0.4-0.8,0.6
			c-1.8,1-4.1,0.4-7.5-3.1c-4-4.1-4.4-11.1-4.4-11.1l1-17.9c0,0-3.8-13.5-7.5-16.2l1.7-6.1l0.2,0.1c1.1,0.8,6.7,4.3,13.6,4.8
			c0.8,0.1,1.7,0.4,2.3,0.9c1.9,1.7,3.6,3.6,4.9,5.8c3.1,5.1,10.8,4.5,10.8,4.5c1.8-0.6,3.6-1.3,5.4-2.1c1.3-0.7,2.3-1.4,2.5-2
			c0,0,0,0.1,0,0.4C252.8,157.6,253.5,165.2,257.6,163.1z"/>
		<path class="st3" d="M211.5,136.6H201c0.2,1.7,0.3,3.3,0.2,5c1.6,1.1,3.5,1.8,5.4,1.9c1.9,0.1,3.9-0.3,5.6-1.1
			C211.3,140.6,210.6,138.4,211.5,136.6z"/>
		<path class="st8" d="M207.4,143.3c5.7,0,10.4-4.6,10.4-10.4c0-5.7-4.6-10.4-10.4-10.4S197,127.3,197,133
			C197,138.7,201.7,143.3,207.4,143.3z"/>
		<path class="st3" d="M205.2,131.1c1.2-0.1,2.3-0.5,3.4-0.3c1,0.2,1.9,0.9,2.9,1.1c2,0.4,3.8-1.1,5.4-2.4l3.3-3
			c0.7-0.7,1.5-1.3,1.8-2.2c0.4-0.9,0.2-2.1-0.6-2.7c-1.2-0.8-3.2,0-4.1-1.2c-0.4-0.5-0.3-1.3-0.5-1.9c-0.4-1.3-1.9-2-3.2-2
			c-1.3,0-2.6,0.5-3.9,0.8c-2.7,0.8-5.5,1.1-8.3,0.8c-0.8-0.1-1.5-0.1-2.3,0.1c-0.5,0.2-0.9,0.5-1.2,0.9s-0.5,0.8-0.7,1.3
			c-0.6,2.3,0.5,5.9,1.6,8C200,130.5,203,131.4,205.2,131.1z"/>
		<path class="st7" d="M205.2,130.9c1.2-0.1,2.3-0.5,3.4-0.3c1,0.2,1.9,0.9,2.9,1.1c2,0.4,3.8-1.1,5.4-2.4l3.3-3
			c0.7-0.7,1.5-1.3,1.8-2.2c0.4-0.9,0.2-2.1-0.6-2.7c-1.2-0.8-3.2,0-4.1-1.2c-0.4-0.5-0.3-1.3-0.5-1.9c-0.4-1.3-1.9-2-3.2-2
			s-2.6,0.5-3.9,0.8c-2.7,0.8-5.5,1.1-8.3,0.8c-0.8-0.1-1.5-0.1-2.3,0.1c-0.5,0.2-0.9,0.5-1.2,0.9s-0.5,0.8-0.7,1.3
			c-0.6,2.3,0.5,5.9,1.6,8C200,130.2,203,131.1,205.2,130.9z"/>
		<path class="st3" d="M187.2,175.6c0,0,2.3,0.3,3.4,1.7s3.1,1.8,3.1,1.8"/>
		<path class="st3" d="M166.7,156.9c0,0,1.9,4.1,0.7,4.6c-1.1,0.4-0.7,3.4-0.7,3.4"/>
		<g class="st5">
			<path class="st3" d="M167.4,155.5c0,0,12.1-2.4,12.5-2.4c1.9,0,5.1-2.7,6.9-4.4c0.5-0.5,1.2-0.9,1.9-1.1h-0.2
				c-0.6,0-1.2,0.1-1.7,0.3c-0.6,0.2-1.1,0.5-1.5,0.9c-1.8,1.7-4.9,4.4-6.9,4.4c-0.3,0-8.1,1.5-11.2,2.2L167.4,155.5z"/>
			<path class="st3" d="M200.9,144.9v-0.5c-2.9,1.5-6,2.5-9.2,3C194.8,147.1,197.9,146.3,200.9,144.9z"/>
			<path class="st3" d="M185.9,199.8c0,0-1.7-5.5-0.4-8.4c1.3-2.8,2.8-15.9,2.8-15.9l-3.1-9.7h-6l-0.4,0.1h4.9l3.1,9.7
				c0,0-1.6,13.1-2.8,15.9c-1.3,2.8,0.4,8.4,0.4,8.4l11.2-0.4v-0.1L185.9,199.8z"/>
		</g>
		<g class="st5">
			<path class="st3" d="M230.8,195c-0.3,0.2-0.5,0.4-0.8,0.6c-1.8,1-4.1,0.4-7.5-3.1c-3.2-3.3-4.1-8.3-4.3-10.3l-0.1,1.5
				c0,0,0.4,7,4.4,11.1c3.4,3.6,5.7,4.1,7.5,3.1c0.3-0.2,0.6-0.4,0.8-0.6c0.6-0.5,0.6-1.5,0.3-2.7C231,194.8,230.9,194.9,230.8,195z
				"/>
			<path class="st3" d="M255.6,163.3l-4,4.6c-0.3,0.4-0.7,0.7-1.2,1c-0.6,0.3-1.2,0.5-1.9,0.5c-2.3,0.1-6.3,0.1-9.7-0.5
				c-4.6-0.9-8.1-3-10.7-1.8c-0.3,0.1-0.6,0.3-0.8,0.5c0,0-2.3,7.2-1.9,12c0.3-4.6,1.9-9.8,1.9-9.8c0.3-0.2,0.5-0.4,0.8-0.5
				c2.6-1.2,6.1,0.9,10.7,1.8c3.4,0.7,7.4,0.6,9.7,0.5c0.7,0,1.3-0.2,1.9-0.5c0.5-0.2,0.9-0.6,1.2-1l6.2-7.1
				c-0.3,0.2-0.7,0.3-1.1,0.4C256.3,163.5,255.9,163.4,255.6,163.3z"/>
		</g>
		
			<linearGradient id="SVGID_4_" gradientUnits="userSpaceOnUse" x1="171.9906" y1="-77.2804" x2="171.9906" y2="-77.2597" gradientTransform="matrix(1 0 0 -1 -97.6 181.1)">
			<stop  offset="0" style="stop-color:#808080;stop-opacity:0.25"/>
			<stop  offset="0.54" style="stop-color:#808080;stop-opacity:0.12"/>
			<stop  offset="1" style="stop-color:#808080;stop-opacity:0.1"/>
		</linearGradient>
		<path class="st10" d="M74.2,214.4c0,0,0.1,0.1,0.2,0.1c0.1,0,0.1,0,0.2,0C74.5,214.4,74.3,214.4,74.2,214.4z"/>
		
			<linearGradient id="SVGID_5_" gradientUnits="userSpaceOnUse" x1="166.3085" y1="-84242.2266" x2="166.3085" y2="-37703.5977" gradientTransform="matrix(1 0 0 -1 -97.6 181.1)">
			<stop  offset="0" style="stop-color:#808080;stop-opacity:0.25"/>
			<stop  offset="0.54" style="stop-color:#808080;stop-opacity:0.12"/>
			<stop  offset="1" style="stop-color:#808080;stop-opacity:0.1"/>
		</linearGradient>
		<path class="st11" d="M116.7,145.3c-0.8-0.2-1.8-0.6-3.1-1c1.3-1.7,2.3-3.7,2.9-5.8l-0.1,0c0-0.1,0.1-0.3,0.1-0.4
			c-2.5,1-5.2-0.7-7-2.9c-1.7-2.2-2.9-4.9-4.8-6.9c-0.8-0.8-1.7-1.5-2.6-2.2c-0.6-0.4-1.2-0.9-1.9-0.9c-1.1,0-2,1.1-3.1,1.4
			c-0.7,0.2-1.4,0.1-2.1-0.1c-2.8-0.6-5.4-1.8-8.2-2.1c-1.5-0.2-3,0-4.5,0.5c-1.4,0.5-2.1,1.6-3.2,2.5c-1.3,0.9-3.7,0.9-5.2,1.1
			c-1.8,0.2-3.5,0.3-5.3,0.2c-1-0.1-2-0.1-3.1,0.1c-2.1,0.5-3.8,2.1-5.4,3.8c-0.4,0.4-0.7,0.9-0.9,1.4c0,0.2,0,0.3,0,0.5
			c0,0.4,0.1,0.8,0.2,1.2c0.5,1.4,1.2,2.8,2,4.1c0.6,0.9,1.4,1.8,1.8,2.9c0.2,0.5,0.3,1.1,0.3,1.7c0,0.6-0.1,1.2-0.2,1.8
			c-0.3,1.6-0.7,3.2-1.4,4.8c-0.4,0.8-0.7,1.6-0.8,2.5c0,0.2,0,0.4,0,0.5c-0.1,2.8,2.7,4.7,3.2,7.5c0,0.2,0.1,0.5,0.1,0.7
			c-0.1,1.7-1,3.4-2.5,4c0.1,0.1,0.3,0.1,0.4,0.1c-0.1,0.1-0.3,0.1-0.4,0.2c0.3,0.1,0.5,0.2,0.8,0.3c-1.6,1.4-3,3.1-4,5
			c-4.8,9-37.5,26.6-37.5,26.6l0.5,0.3l-0.4,0.3c-2.8,1.9-9.5,7.4-3.5,14.3c0,0,4.7-7.4,8-10.5c0.1-0.1,0.3-0.3,0.4-0.4
			c0.1,0.1,0.1,0.2,0.1,0.4c0,0.1,0,0.3,0,0.4L48,190.8c0,0,7.6-5.3,9.8-6.6c1.5-0.9,3.1-1.6,4.8-2.1l-0.3,0.1
			c0.8-0.2,1.6-0.3,2.5-0.4c3.8,0.1,7.9,2.8,9.3,13.9c1.8,14.8,1,17.4,0.4,17.8c-0.1,0-0.1,0-0.2,0c0,0,0,0,0.1,0
			c-0.1,0-0.2,0-0.2,0c0,0,0.1,0.1,0.1,0.1c0.1,0,0.1,0,0.2,0c0,0,0.1,0,0.1,0c0,0,0.1,0,0.1,0c0.1,0,0.2,0,0.3,0c0,0.1,0,0.3,0,0.4
			c0,0-0.2,0.1,0,0.1c0,0.8,0,1.7,0,2.7c-1.9,0.1-3.8,0.2-5.4,0.3l0.1-0.8l0.1-0.4c1.5-0.1,2.8-0.5,3-1.7c0.4-2.6-3.2-4-6.2-4.1
			c-3-0.2-21.1,1-21.1,1s-2.7,3.5,5.9,4.6c0.3,0.1,0.5,0.3,0.8,0.4c3.4,1.9,7.9,5.5,10.1,7.2l0.3,0.2l-1,0.8
			c5.3,1.2,10.5,21.6,13.3,30.9c2.8,9.3,9.1,9,14.2,7.6c4.8-1.3,5.4-15.3,5.5-17.1v-0.2l8.6,10.6l0.7,0.8c0.3,0.1,0.5,0.3,0.7,0.4
			c6.5,3.1,13.7-2.8,11.6-9.6c-2.1-6.8-5.3-16.9-7.4-21.1c-1.8-3.6-4.1-9.5-5.5-13.2c0.2-0.1,0.4-0.2,0.5-0.3c0,0,0-0.2-0.1-0.5
			l0.1,0c0,0-2.1-10.7-2.2-18.4c0-0.1,0-0.3,0-0.4c0-0.1,0-0.2,0-0.2c1.6-0.4,2.5-0.5,2.5-0.5l0-0.3l-0.2,0l0.9-9.9
			c0,0,3.2-6.7,0.7-9.6c-0.7-0.8-1.2-1.8-1.4-2.9c-0.4-2.6,0-6.9,5.7-10.5c8.7-5.5,12.1-10,12.1-10S122,146.8,116.7,145.3z
			 M99.4,152.1v-4.6c1.6-0.1,3.3,0.1,4.9,0c0.8-0.1,1.6-0.2,2.4-0.4l0.4,0.3C104.7,149.3,102.1,150.8,99.4,152.1z M74.8,223.8
			c0.6,0.4,1.3,0.9,1.9,1.4c0.4,2.3,0.7,3.8,0.8,4C76.7,227.2,75.8,225.4,74.8,223.8z"/>
		<path class="st12" d="M88.5,220l-0.4,2l-0.3,1.6l-0.5,2.9l-5.1,3.6c0,0-0.5-0.4-1.2-1c-2.1-1.7-6.5-5.2-9.7-7.1
			c-0.8-0.5-1.7-0.9-2.7-1.2L88.5,220z"/>
		<path class="st3" d="M88.5,220l-0.4,2c-1.1,0.1-2.3,0-3.4-0.2L72.9,222c-0.6,0-1.1-0.1-1.6-0.1c-0.8-0.5-1.7-0.9-2.7-1.2L88.5,220
			z"/>
		<path class="st13" d="M84.8,221.5c0,0,5.9,1,6.3-1.5c0.3-2.5-3.1-3.9-5.9-4.1c-2.9-0.2-20.2,1-20.2,1s-3.1,4.1,8,4.8L84.8,221.5z"
			/>
		<path class="st3" d="M88.5,220l-0.4,2l-0.3,1.6l-0.5,2.9l-5.1,3.6c0,0-0.5-0.4-1.2-1c-2.1-1.7-6.5-5.2-9.7-7.1
			c-0.8-0.5-1.7-0.9-2.7-1.2L88.5,220z"/>
		<path class="st3" d="M88.5,220l-0.4,2c-1.1,0.1-2.3,0-3.4-0.2L72.9,222c-0.6,0-1.1-0.1-1.6-0.1c-0.8-0.5-1.7-0.9-2.7-1.2L88.5,220
			z"/>
		<path class="st3" d="M84.8,221.5c0,0,5.9,1,6.3-1.5c0.3-2.5-3.1-3.9-5.9-4.1c-2.9-0.2-20.2,1-20.2,1s-3.1,4.1,8,4.8L84.8,221.5z"
			/>
		<path class="st14" d="M97.8,137.7H66.7v36.9h31.1V137.7z"/>
		<path class="st3" d="M97.8,137.7H66.7v36.9h31.1V137.7z"/>
		<path class="st12" d="M30.3,200.9c-0.5,0.1-1.2,0.6-1.9,1.3c-3.1,3.1-7.6,10.4-7.6,10.4c-5.7-6.8,0.6-12.2,3.3-14.1
			c0.7-0.5,1.1-0.7,1.1-0.7L30.3,200.9z"/>
		<path class="st12" d="M88.2,149.4c0,0,1.5,10.7,6.8,13.3c5.3,2.5-6.8,7.3-6.8,7.3l-16.5-6.1c0,0,9.3-3.1,7.5-12.1L88.2,149.4z"/>
		<path class="st12" d="M70.6,213.8l-0.4,2l-0.3,1.6l-0.5,2.9l-5.1,3.6c0,0-0.5-0.4-1.2-1c-2.1-1.7-6.5-5.2-9.7-7.1
			c-0.8-0.5-1.7-0.9-2.7-1.2L70.6,213.8z"/>
		<path class="st3" d="M70.6,213.8l-0.4,2c-1.1,0.1-2.3,0-3.4-0.2l-11.9,0.2c-0.6,0-1.1-0.1-1.6-0.1c-0.8-0.5-1.7-0.9-2.7-1.2
			L70.6,213.8z"/>
		<path class="st13" d="M66.8,215.3c0,0,5.9,1,6.3-1.5c0.3-2.5-3.1-3.9-5.9-4.1c-2.9-0.2-20.2,1-20.2,1s-3.1,4.1,8,4.8L66.8,215.3z"
			/>
		<path class="st3" d="M69.9,217.4l-0.5,2.9l-5.1,3.6c0,0-0.5-0.4-1.2-1l6.7-5.5L69.9,217.4z"/>
		<path class="st13" d="M103.5,256.3c-0.2-0.1-0.5-0.2-0.7-0.4l-0.6-0.8L94,244.7v0.2c-0.1,1.7-0.6,15.5-5.3,16.8
			c-4.9,1.4-10.9,1.7-13.6-7.5c-2.7-9.2-7.6-29.2-12.7-30.4l7.6-6.2c0,0,5,5.8,7,11.5c-0.1-0.4-3.5-16.5-0.7-19.4h24.8
			c0,0,3.8,10.9,6.5,16.3c2,4.2,5.1,14.1,7.1,20.8C116.6,253.5,109.8,259.3,103.5,256.3z"/>
		<path class="st3" d="M102.8,212.8c-3.8,2.3-20.6,1.3-26.1,1l-1.5-0.1c-0.2,0,0-0.1,0-0.1l0.2-1.5l4.1-10.4l21.8-12.7
			c-0.4,1.3-0.6,3.4-0.6,5.7C100.8,202.2,102.8,212.8,102.8,212.8z"/>
		<path class="st15" d="M102.8,212.3c-3.8,2.3-20.6,1.3-26.1,1l-1.5-0.1H75l0.3-0.1l1.3-0.4l2.9-11.6l21.8-12.7
			c-0.4,1.3-0.6,3.4-0.6,5.7C100.8,201.7,102.8,212.3,102.8,212.3z"/>
		<path class="st3" d="M100.7,194.2c-4.4,1-14.2,4-18,11.3c-2.5,4.8-4.6,6.9-6.1,7.8l-1.5-0.1l0-0.1l1.3-0.4l2.9-11.6l21.8-12.7
			C100.8,189.8,100.7,191.8,100.7,194.2z"/>
		<path class="st3" d="M25.2,197.8l5.1,3.1c-0.5,0.1-1.2,0.6-1.9,1.3c-0.4-1.3-3.1-3-4.3-3.7C24.7,198.1,25.2,197.8,25.2,197.8z"/>
		<path class="st3" d="M74.3,213.3c-0.1,0-0.1,0-0.2,0c-0.1,0-0.1,0-0.2-0.1C74.1,213.3,74.2,213.3,74.3,213.3z"/>
		<path class="st16" d="M85.8,162c0,0-4.6,0.5-7.8-2.9c0,0-13.6,3.9-18.2,12.7C55.2,180.7,24,198,24,198s5.4,3.1,4.9,4.6l20.6-11.9
			c0,0,7.3-5.3,9.3-6.5c2-1.2,13.3-8.5,15.6,11.4c2.4,19.9,0,17.5,0,17.5s3.4,1.2,8.3-8.3c4.9-9.5,20.2-11.7,20.2-11.7l0.8-10
			c0,0,3-6.6,0.7-9.4c-0.7-0.8-1.2-1.8-1.4-2.9c-0.4-2.5,0-6.8,5.4-10.3c8.3-5.4,11.6-9.9,11.6-9.9s0.2-3.2-4.9-4.8
			c-5.1-1.5-25.8-9.9-25.8-9.9l-0.7,2.9l16.3,11.6c0,0-8.2,6.6-14.6,6.5C90.4,156.9,91.6,161.8,85.8,162z"/>
		<path class="st3" d="M89,154c-0.4-1.4-0.7-2.8-0.9-4.2l-9,2.4c0.4,1.7,0.3,3.5-0.2,5.2c1.8,0.5,3.8,0.4,5.6-0.2
			C86.2,156.7,87.8,155.6,89,154L89,154z"/>
		<path class="st12" d="M81.5,157.3c5.3,0,9.7-4.3,9.7-9.7s-4.3-9.7-9.7-9.7c-5.3,0-9.7,4.3-9.7,9.7S76.1,157.3,81.5,157.3z"/>
		<path class="st3" d="M86.6,125.6c2.7,0.3,5.2,1.5,7.9,2.1c0.7,0.2,1.4,0.2,2,0.1c1-0.3,1.9-1.4,2.9-1.4c0.7,0,1.3,0.5,1.8,0.9
			c0.9,0.7,1.7,1.4,2.4,2.2c1.8,2,3,4.7,4.6,6.8c1.7,2.2,4.3,3.8,6.7,2.8c-1.6,6.3-6.9,11-12.6,11.4c-2.3,0.2-4.6-0.3-6.8,0.4
			c-0.5,0.2-1.1,0.4-1.7,0.4c-1.3,0-2.3-1.2-3.1-2.3c-1.9-2.7-3.3-5.7-5.4-8.1c-0.7-0.8-1.5-1.6-2.5-1.7c-1-0.1-1.9,0.3-2.7,0.8
			c-1.4,0.7-2.9,1.5-4,2.8c-1.1,1.3-1.8,3.2-1.4,4.9c0.2,0.9,0.8,1.8,0.8,2.7c0,1.5-1.3,2.7-1.6,4.2c-0.1,0.6-0.1,1.3-0.1,1.9
			c-0.1,2.1-1.5,3.8-2.9,5c-0.5,0.5-1.2,1-1.3,1.8c-0.1,0.5,0,1.1-0.1,1.6c-0.2,1.3-1.5,2-2.7,2.2c-1.4,0.2-2.8,0-4.1-0.5
			c1.7-0.8,2.7-3,2.3-5c-0.5-2.8-3.3-4.7-3.1-7.5c0.1-0.9,0.4-1.7,0.8-2.5c0.6-1.5,1-3.1,1.3-4.7c0.3-1.2,0.2-2.5-0.1-3.8
			c-0.4-1.1-1.1-1.9-1.7-2.9c-0.8-1.2-1.5-2.6-2-4c-0.2-0.4-0.2-0.9-0.2-1.3c0.1-0.5,0.4-1,0.8-1.4c1.5-1.6,3.1-3.2,5.2-3.7
			c1-0.2,1.9-0.2,2.9-0.1c1.7,0.1,3.4,0,5.1-0.2c1.4-0.2,3.8-0.1,4.9-1.1c1.1-0.8,1.7-1.9,3.1-2.4C83.7,125.5,85.2,125.4,86.6,125.6
			z"/>
		<path class="st3" d="M92,225.6c0,0,5.6,11,3.9,14.4L92,225.6z"/>
		<path class="st3" d="M102.2,255.1L94,244.7v0.2c0,0-0.5-3.4,1.1-2.2c3.4,2.5,8.9,6.5,9,7.2C104.2,250.6,103,253.4,102.2,255.1z"/>
		<g class="st5">
			<path class="st3" d="M90.6,156.9c0,0,0.7,2.9-1.5,4.3c3.4-0.6,3.6-3.3,3.5-4.4C91.9,156.8,91.2,156.9,90.6,156.9z"/>
			<path class="st3" d="M26,197.3c0,0,31.3-17.3,35.8-26.2c3.3-6.3,11.2-10.1,15.4-11.8c-3.1,1-13.4,5-17.3,12.5
				c-4.6,8.8-35.8,26.2-35.8,26.2L26,197.3z"/>
			<path class="st3" d="M96.7,155.5c5.3-1.7,10.4-5.8,10.4-5.8l-16.3-11.6l0.4-1.6l-1.6-0.6l-0.7,2.9l16.3,11.6
				C102.6,152.5,99.7,154.2,96.7,155.5z"/>
			<path class="st3" d="M96.8,194.7c2.1-0.7,4.2-1.3,6.4-1.6l0-0.3C101,193.2,98.8,193.9,96.8,194.7z"/>
			<path class="st3" d="M77,212.5h-0.2c-0.1,0-0.1,0-0.2,0c-0.1,0-0.1,0-0.2-0.1c0.1,0,0.2,0,0.4,0c0.6-0.3,1.4-2.9-0.4-17.5
				c-1.9-15.7-9.2-14.4-13.3-12.6c4.1-1.1,9.8-0.2,11.4,13.3c1.8,14.7,0.9,17.2,0.4,17.5C75.7,213.1,76.4,212.9,77,212.5z"/>
			<path class="st3" d="M75,213.2c-0.1,0-0.2,0-0.4,0c0,0,0.1,0.1,0.2,0.1C74.9,213.2,74.9,213.2,75,213.2z"/>
		</g>
		<path class="st14" d="M86.6,125.2c2.7,0.3,5.2,1.5,7.9,2.1c0.7,0.2,1.4,0.2,2,0.1c1-0.3,1.9-1.4,2.9-1.4c0.7,0,1.3,0.5,1.8,0.9
			c0.9,0.7,1.7,1.4,2.4,2.2c1.8,2,3,4.7,4.6,6.8c1.7,2.2,4.3,3.8,6.7,2.8c-1.6,6.3-6.9,11-12.6,11.4c-2.3,0.2-4.6-0.3-6.8,0.4
			c-0.5,0.2-1.1,0.4-1.7,0.4c-1.3,0-2.3-1.2-3.1-2.3c-1.9-2.7-3.3-5.7-5.4-8.1c-0.7-0.8-1.5-1.6-2.5-1.7c-1-0.1-1.9,0.3-2.7,0.8
			c-1.4,0.7-2.9,1.5-4,2.8c-1.1,1.3-1.8,3.2-1.4,4.9c0.2,0.9,0.8,1.8,0.8,2.7c0,1.5-1.3,2.7-1.6,4.2c-0.1,0.6-0.1,1.3-0.1,1.9
			c-0.1,2.1-1.5,3.8-2.9,5c-0.5,0.5-1.2,1-1.3,1.8c-0.1,0.5,0,1.1-0.1,1.6c-0.2,1.3-1.5,2-2.7,2.2c-1.4,0.2-2.8,0-4.1-0.5
			c1.7-0.8,2.7-3,2.3-5c-0.5-2.8-3.3-4.7-3.1-7.5c0.1-0.9,0.4-1.7,0.8-2.5c0.6-1.5,1-3.1,1.3-4.7c0.3-1.2,0.2-2.5-0.1-3.8
			c-0.4-1.1-1.1-1.9-1.7-2.9c-0.8-1.2-1.5-2.6-2-4c-0.2-0.4-0.2-0.9-0.2-1.3c0.1-0.5,0.4-1,0.8-1.4c1.5-1.6,3.1-3.2,5.2-3.7
			c1-0.2,1.9-0.2,2.9-0.1c1.7,0.1,3.4,0,5.1-0.2c1.4-0.2,3.8-0.1,4.9-1.1c1.1-0.8,1.7-1.9,3.1-2.4C83.7,125.2,85.2,125,86.6,125.2z"
			/>
		
			<linearGradient id="SVGID_6_" gradientUnits="userSpaceOnUse" x1="416.6037" y1="-102143.5703" x2="416.6037" y2="-33026.4766" gradientTransform="matrix(1 0 0 -1 -97.6 181.1)">
			<stop  offset="0" style="stop-color:#808080;stop-opacity:0.25"/>
			<stop  offset="0.54" style="stop-color:#808080;stop-opacity:0.12"/>
			<stop  offset="1" style="stop-color:#808080;stop-opacity:0.1"/>
		</linearGradient>
		<path class="st17" d="M363.2,103.5c0-0.1,0-0.1,0-0.2c0-0.1,0-0.1,0-0.2h-0.1c0-0.1,0-0.2,0-0.3c-0.2-3.9-5.5-12.1-7.7-9.7
			c-1.9,2.1,1,7.5,2.4,9.9l0.1,0.2l-0.1,0c0,0-6,17.8-6.7,18.5s-5.6,14.7-12.1,16.3c-1.3,0.3-2.3,0.6-3.2,0.8l0.1-0.2
			c0.4-1.4,0.9-2.7,1.1-4.2c0.2-1.5,0-3.4-0.8-4.1c-0.4-0.4-0.8-0.4-1.1-1c-0.2-0.5-0.3-1.1-0.3-1.6l-0.6-6.8l0.4-0.1
			c2.3-0.7,4.6-2.5,4.8-4.9c-0.1,0-0.2,0.1-0.2,0.1c0-0.1,0.1-0.3,0.1-0.4c-1.9,0.8-3.8-1.3-5.6-2.2c-3.1-1.5-6.6-0.1-9.8,0.3
			c-3.6,0.4-7-1.1-10.7-0.8c-2,0.2-4.2,1.5-4.1,3.5c0.1,1.1,0.8,2,1.2,3.1c0.8,2.5-1,5.1-2.5,7.2c-1,1.4-2,3.1-2.2,4.8
			c-3.6-3.8-7.5-8.1-7.9-9.7l-10.4-17.8c0,0-0.2,0.3-0.6,0.7c-0.1-0.2-0.1-0.4-0.2-0.6c-1.3-3.7-5.1-12.7-9.8-11.1
			c-4.8,1.7,2,10.9,4.9,14.6l0.4,0.5c-0.2,0.1-0.5,0-0.7,0l11.6,19.9c0,0,2.1,3.8,4,4.8c0,0,14.4,18.2,14.6,21.8
			c0.2,3.6,6.5,13.3,6.5,13.3s2.1,15.7-1.6,18.5h0h0h0h0h0.1h0.1h0.1h0.1h0.1h0.1h0c-0.2,0.2-0.4,0.4-0.5,0.6
			c-2.7,3-6.2,9.5-1.5,20.6c7,16.3,8.1,22.6,8.1,22.6s-13.3,0.7-16,1.2c-2.3,0.5-11.4,0.8-13.4,0.8c-0.7-0.9-2.9-2.8-5.9,0
			c-3.7,3.5-6.3,15-6.3,15s-1.4,9.3,3.3,6.9c0,0,5.6-7.8,7.2-8.1c0.8-0.2,1.6-1.3,2.2-2.4l0,0c0,0,0.2-0.1,0.4-0.2
			c1.2-0.5,4.4-1.6,6.9-1c1.4,0.3,7.3,0.4,13.6,0.4c-1.4,3.4-3.9,12.1-3.9,12.1s-1.1,8.1,2.4,7.8c2.5-0.2,6.3-6.6,8.3-10.3
			c1.5-1.1,5.6-4.9,8.7-4.6l20.7-8c0,0,4.9-2.8,2.3-11.9c-2.1-7.3-8-22.2-10.4-28l-0.1-0.2c-0.6-1.4-0.9-2.2-0.9-2.2
			c-1-2.7-1.6-5.4-1.9-8.2c0-0.2,0-0.4-0.1-0.7c0.3-0.1,0.6-0.3,0.8-0.5c0,0-1.9-19.5,0-21.6l0,0v0l0,0l0.1-0.1l0.1-0.1
			c0.1-0.1,0.2-0.3,0.4-0.5c1.1-1.6,3.2-5.3,2.6-9.7c0-0.2-0.1-0.4-0.1-0.6c-0.2-1.2-0.6-2.3-1.2-3.4c-0.1-0.4-0.1-0.9-0.2-1.3
			c0-0.3,0-0.5,0-0.8v-0.1c0-0.1,0-0.2,0-0.2v-0.1c0-0.2,0-0.4,0.1-0.6v-0.1c0-0.1,0-0.2,0-0.2v-0.1c0-0.1,0-0.2,0.1-0.2V148
			c0-0.1,0-0.2,0.1-0.3v-0.1c0-0.1,0.1-0.2,0.1-0.2l0-0.1l0.1-0.2l0-0.1c0-0.1,0.1-0.2,0.1-0.2l0-0.1c0-0.1,0.1-0.2,0.2-0.3l0-0.1
			l0.1-0.2l0.1-0.1l0.1-0.2l0.1-0.1c0.1-0.1,0.2-0.2,0.2-0.2c2.3-2.1,12.5-17.5,12.5-17.5s2.5-3.5,2.5-5.7
			C359.3,122.4,363.6,107.9,363.2,103.5z M335.9,232.7c-0.3-2.4-0.5-5.3-0.7-8.3l4,6.2C339.1,230.6,338.7,232.5,335.9,232.7z"/>
		<path class="st18" d="M294.5,231.4c0,0-2.4-3.8-5.9-0.3c-3.6,3.4-6.1,14.8-6.1,14.8s-1.4,9.2,3.2,6.8c0,0,5.4-7.6,7-8
			c1.5-0.3,3.2-4.6,3.2-4.6L294.5,231.4z"/>
		<path class="st18" d="M319.9,240.6c0,0-3.2-1.5-4.2-0.3c-1,1.2-4.4,13.1-4.4,13.1s-1,7.8,2.4,7.5c3.4-0.3,9.3-12.6,9.3-12.6
			L319.9,240.6z"/>
		<path class="st19" d="M319.9,240.6c0,0-3.2-1.5-4.2-0.3c-1,1.2-4.4,13.1-4.4,13.1s-1,7.8,2.4,7.5c3.4-0.3,9.3-12.6,9.3-12.6
			L319.9,240.6z"/>
		<path class="st20" d="M331.1,217.5l7.3,11.4c0,0-0.5,2.5-4.9,2l-15.1,9.5c0,0-1.3,11.6,2.9,10.5c0.7-0.2,5.4-5.1,8.8-4.8l20.1-7.8
			c0,0,4.8-2.7,2.2-11.7c-2.5-9-11-29.9-11-29.9l-13.3,7.5L331.1,217.5z"/>
		<path class="st19" d="M331.1,217.5l7.3,11.4c0,0-0.5,2.5-4.9,2l-15.1,9.5c0,0-1.3,11.6,2.9,10.5c0.7-0.2,5.4-5.1,8.8-4.8l20.1-7.8
			c0,0,4.8-2.7,2.2-11.7c-2.5-9-11-29.9-11-29.9l-13.3,7.5L331.1,217.5z"/>
		<path class="st20" d="M335.7,234.3c1,6.5-4.8,7-4.8,7s-26,0.5-29.1-0.2s-7.1,1.2-7.1,1.2c-5.3-3.2-1-11.2-1-11.2
			s10.9-0.3,13.4-0.8c2.5-0.5,15.5-1.2,15.5-1.2s-1-6.3-7.8-22.3c-4.6-10.8-1.3-17.2,1.4-20.2c0.7-0.8,1.5-1.5,2.3-2.1l20.9,1
			c0,1.1,0,2.1,0.1,3.2c0.4,3.6,1.3,7.1,2.8,10.4c-1.2,0-8.8,7.1-8.8,7.1S334.7,227.9,335.7,234.3z"/>
		<path class="st3" d="M295.3,231.8c0,0,10.9-0.3,13.4-0.8c2.5-0.5,15.5-1.2,15.5-1.2s-1-6.3-7.8-22.3c-4.6-10.8-1.3-17.2,1.4-20.2
			c0.7-0.8,1.5-1.5,2.3-2.1l19.4,0.9c0-0.2,0-0.4,0-0.6l-20.9-1c-0.9,0.6-1.7,1.3-2.3,2.1c-2.6,3-6,9.4-1.4,20.2
			c6.8,16,7.8,22.2,7.8,22.2s-12.9,0.7-15.5,1.2c-2.5,0.5-13.4,0.8-13.4,0.8s-4.2,8,1,11.2c0,0,0.2-0.1,0.4-0.2
			C291.7,238.5,295.3,231.8,295.3,231.8z"/>
		<path class="st18" d="M326.4,122.2h-10.5v26.7h10.5V122.2z"/>
		<path class="st3" d="M326.4,122.2h-10.5v26.7h10.5V122.2z"/>
		<path class="st18" d="M332.4,118.2c0.4,0.1,0.8,0.1,1,0.6c0.2,0.4,0.2,0.8,0.2,1.3l0.7,8.2c0,0.5,0.1,1.1,0.3,1.6
			c0.3,0.6,0.7,0.6,1.1,1c0.7,0.7,0.9,2.5,0.7,4c-0.2,1.5-0.7,2.7-1.1,4.1c-0.6,1.9-0.9,4.1-1.7,5.7c-0.8,1.6-2.2,2.5-3.2,1.1
			c-0.9-1.4-0.8-4.1-1-6.4c-0.3-3.8-1.8-7-1.9-10.8c-0.1-3.1,0.7-5.9,1.3-8.8c0.4-2,0.4-4.4,0.9-6.2
			C330.3,115.9,331.1,117.9,332.4,118.2z"/>
		<path class="st3" d="M332.4,118.2c0.4,0.1,0.8,0.1,1,0.6c0.2,0.4,0.2,0.8,0.2,1.3l0.7,8.2c0,0.5,0.1,1.1,0.3,1.6
			c0.3,0.6,0.7,0.6,1.1,1c0.7,0.7,0.9,2.5,0.7,4c-0.2,1.5-0.7,2.7-1.1,4.1c-0.6,1.9-0.9,4.1-1.7,5.7c-0.8,1.6-2.2,2.5-3.2,1.1
			c-0.9-1.4-0.8-4.1-1-6.4c-0.3-3.8-1.8-7-1.9-10.8c-0.1-3.1,0.7-5.9,1.3-8.8c0.4-2,0.4-4.4,0.9-6.2
			C330.3,115.9,331.1,117.9,332.4,118.2z"/>
		<path class="st21" d="M287.8,106.5l-4.1,3.4c0,0-0.5-0.6-1.2-1.5c-2.8-3.6-9.3-12.7-4.7-14.3c4.6-1.6,8.2,7.2,9.5,10.9
			C287.7,105.9,287.8,106.5,287.8,106.5z"/>
		<path class="st21" d="M361.4,105.3c-1.7,2.5-4.1,0-4.1,0s-0.3-0.5-0.7-1.2c-1.4-2.4-4.1-7.6-2.3-9.7c2.1-2.4,7.3,5.7,7.4,9.5
			C361.7,104.4,361.6,104.9,361.4,105.3z"/>
		<path class="st21" d="M319.6,132.9c0,0,3.4,10.9,2.4,14.1c-1,3.2,7.3,7,7.3,7h9.5c0,0,3.4-7,2.5-9c-0.9-2-8.2-3.6-8.2-3.6
			s-4.2,0-4.1-11.4L319.6,132.9z"/>
		<path class="st3" d="M287.8,106.5l-4.1,3.4c0,0-0.5-0.6-1.2-1.5c1.5-0.3,3.8-2.4,4.8-3.4C287.7,105.9,287.8,106.5,287.8,106.5z"/>
		<path class="st3" d="M361.4,105.3c-1.7,2.5-4.1,0-4.1,0s-0.3-0.5-0.7-1.2l0.1-0.2c1.1,0.8,4.5,0.1,5,0
			C361.7,104.4,361.6,104.9,361.4,105.3z"/>
		<path class="st3" d="M339.6,188.7c-5.3,2.4-22.3-1.9-23.4-2.1c0.7-0.8,1.5-1.5,2.3-2.1l20.9,1
			C339.4,186.6,339.5,187.6,339.6,188.7z"/>
		<path class="st22" d="M321.8,142.2c0,0-4.1,1.4-9.9-3.9c0,0-12.9-12.7-13.8-15.8l-10-17.5c0,0-4.2,4.6-5.9,3.9l11.2,19.5
			c0,0,2,3.8,3.9,4.8c0,0,13.9,17.8,14.1,21.4c0.2,3.6,6.3,13.1,6.3,13.1s2,15.5-1.5,18.2c0,0,19.9,5.1,24.1,1.7
			c0,0-1.9-19.2,0-21.2c0,0,5.8-6.8,1.9-14.3c0,0-0.8-4.1,1.4-6.1c2.2-2,12.1-17.2,12.1-17.2s2.4-3.4,2.4-5.6c0,0,4.4-15,3.8-18.9
			c0,0-3.9,0.8-5.1,0c0,0-5.8,17.5-6.5,18.2c-0.7,0.7-5.4,14.4-11.7,16c-6.3,1.5-7.3,2.2-7.3,2.2s12.2,7.6,6.3,11
			C331.5,155.1,321.8,142.2,321.8,142.2z"/>
		<path class="st3" d="M329.5,135.5c-0.2-1.6-0.3-3.2-0.2-4.8l-9.5,2.9c0.2,0.6,0.4,1.3,0.6,2c1.1,0.5,2.6,1.6,3.8,1.6
			C326.1,137.2,328,136.6,329.5,135.5z"/>
		<path class="st21" d="M324,136.6c4.9,0,8.8-4,8.8-8.8c0-4.9-4-8.8-8.8-8.8s-8.8,4-8.8,8.8C315.2,132.6,319.1,136.6,324,136.6z"/>
		<path class="st3" d="M313.5,114.1c-1.9,0.2-4.1,1.5-4,3.4c0.1,1.1,0.8,2,1.1,3c0.8,2.5-0.9,5-2.5,7.1c-1.5,2.1-2.9,4.9-1.6,7.2
			c0.4,0.5,0.8,1.1,1.2,1.6c1.6,2.2,1.6,5.1,2.3,7.7c0.9,3.3,3,6.2,6,7.9c2.9,1.8,6.4,2.4,9.8,1.7c-1.3-1.6-1.9-3.6-1.8-5.7
			c0.1-1.5,0.6-3,0-4.4c-0.7-1.8-2.9-2.5-4-4s-1-3.7-0.5-5.5c0.5-1.8,1.5-3.5,1.9-5.4c0.1-0.5,0.2-1.1,0.4-1.6
			c0.8-2.2,3.1-3.5,5.4-4.1c2.3-0.6,4.7-0.6,6.9-1.3c2.2-0.7,4.4-2.4,4.7-4.8c-1.9,0.8-3.6-1.2-5.5-2.1c-3-1.5-6.4-0.1-9.5,0.3
			C320.4,115.3,317.1,113.9,313.5,114.1z"/>
		<path class="st18" d="M313.3,113.8c-1.9,0.2-4.1,1.5-4,3.4c0.1,1.1,0.8,2,1.1,3c0.8,2.5-0.9,5-2.5,7.1c-1.5,2.1-2.9,4.9-1.6,7.2
			c0.4,0.5,0.8,1.1,1.2,1.6c1.6,2.2,1.6,5.1,2.3,7.7c0.9,3.3,3,6.2,6,7.9c2.9,1.8,6.4,2.4,9.8,1.7c-1.3-1.6-1.9-3.6-1.8-5.7
			c0.1-1.5,0.6-3,0-4.4c-0.7-1.8-2.9-2.5-4-4c-1.1-1.5-1-3.7-0.5-5.5c0.5-1.8,1.5-3.5,1.9-5.4c0.1-0.5,0.3-1.1,0.4-1.6
			c0.8-2.2,3.1-3.5,5.4-4.1c2.3-0.6,4.7-0.6,6.9-1.3c2.2-0.7,4.4-2.4,4.7-4.8c-1.9,0.8-3.6-1.2-5.5-2.1c-3-1.5-6.4-0.1-9.5,0.3
			C320.2,115,316.9,113.5,313.3,113.8z"/>
		<path class="st3" d="M332.8,147.4c0,0,3.5,3.2,4.2,4.6L332.8,147.4z"/>
		<path class="st3" d="M340.4,166.3c0,0-4.4,0-6.5,0.5c-2,0.5-7,0-7,0"/>
		<g class="st5">
			<path class="st3" d="M337.4,151.7c-0.4,0.2-0.8,0.4-1.2,0.5c1.1,0.2,2.3,0.1,3.3-0.5c5.9-3.4-6.3-11-6.3-11h-2
				C331.1,140.7,343.4,148.3,337.4,151.7z"/>
			<path class="st3" d="M361.8,104.6c0-0.1,0-0.2,0-0.3c-0.7,0.1-1.4,0.3-2.1,0.3C360.3,104.7,361.1,104.7,361.8,104.6z"/>
			<path class="st3" d="M318.2,185.9c3.6-2.7,1.5-18.2,1.5-18.2s-6.1-9.5-6.3-13.1c-0.2-3.6-14.1-21.4-14.1-21.4
				c-1.9-1-3.9-4.8-3.9-4.8s-11.6-18.9-13.3-19.5l11.2,19.5c0,0,2,3.8,3.9,4.8c0,0,13.9,17.8,14.1,21.4c0.2,3.6,6.3,13.1,6.3,13.1
				s2,15.5-1.5,18.2c0,0,12.2,3.1,19.5,2.8C328.4,188.5,318.2,185.9,318.2,185.9z"/>
			<path class="st3" d="M321.9,142.3l-0.1-0.1c-0.1,0-0.2,0.1-0.4,0.1C321.6,142.3,321.8,142.3,321.9,142.3z"/>
		</g>
		<g class="st5">
			<path class="st3" d="M361.7,104.3l-0.1,0c-0.2,5.2-3.8,17.5-3.8,17.5c0,2.2-2.4,5.6-2.4,5.6s-9.9,15.1-12.1,17.2
				c-2.2,2-1.4,6.1-1.4,6.1l0,0c-0.1-1.4,0.1-3.5,1.5-4.8c2.2-2,12.1-17.2,12.1-17.2s2.4-3.4,2.4-5.6
				C358,123.2,362.4,108.2,361.7,104.3z"/>
			<path class="st3" d="M340.2,165c0.3,1.4,0.1-0.1,0.2,1.4c0,0,4.2-4.9,3-10.9C343.7,160.8,340.2,165,340.2,165z"/>
		</g>
	</g>
</g>
</svg>
