<svg width="241" height="217" viewBox="0 0 241 217" fill="none" xmlns="http://www.w3.org/2000/svg">
<path d="M126.002 217C169.787 217 205.282 211.588 205.282 204.912C205.282 198.236 169.787 192.824 126.002 192.824C82.2174 192.824 46.7227 198.236 46.7227 204.912C46.7227 211.588 82.2174 217 126.002 217Z" fill="#F2F2F2"/>
<path d="M82.6562 61.1351C82.6562 61.1351 112.105 75.8087 117.385 73.7707C122.665 71.7327 124.493 53.5945 124.493 53.5945L102.762 49.5186L82.6562 61.1351Z" fill="#9DCAFF"/>
<path opacity="0.1" d="M82.6562 61.1351C82.6562 61.1351 112.105 75.8087 117.385 73.7707C122.665 71.7327 124.493 53.5945 124.493 53.5945L102.762 49.5186L82.6562 61.1351Z" fill="black"/>
<path d="M143.685 39.2266H124.392V56.1419H143.685V39.2266Z" fill="#FF6584"/>
<path opacity="0.1" d="M143.685 39.2266H124.392V56.1419H143.685V39.2266Z" fill="black"/>
<path d="M106.824 111.27C106.824 111.27 106.012 129 111.495 128.593C116.979 128.185 111.495 111.881 111.495 111.881L106.824 111.27Z" fill="#FBBEBE"/>
<path d="M129.367 41.7742C129.367 41.7742 130.586 49.5185 128.352 50.5375C126.118 51.5565 124.696 52.3717 124.696 52.3717L129.774 55.8363L139.116 56.4477L141.553 54.6135L143.787 52.5755C143.787 52.5755 140.131 51.7603 140.131 49.9261C140.131 48.0919 139.928 42.5894 139.928 42.5894L129.367 41.7742Z" fill="#FBBEBE"/>
<path opacity="0.1" d="M129.367 41.7742C129.367 41.7742 130.586 49.5185 128.352 50.5375C126.118 51.5565 124.696 52.3717 124.696 52.3717L129.774 55.8363L139.116 56.4477L141.553 54.6135L143.787 52.5755C143.787 52.5755 140.131 51.7603 140.131 49.9261C140.131 48.0919 139.928 42.5894 139.928 42.5894L129.367 41.7742Z" fill="black"/>
<path d="M116.573 114.327C116.573 114.327 110.683 133.28 110.683 147.138C110.683 147.138 100.934 169.149 101.341 179.95L98.9036 194.827L102.356 196.05L104.996 193.808C104.996 193.808 105.809 185.86 108.449 181.988C111.089 178.116 117.182 159.774 117.182 159.774C117.182 159.774 133.429 125.536 132.82 120.644C132.211 115.753 116.573 114.327 116.573 114.327Z" fill="#FBBEBE"/>
<path d="M152.52 110.047C152.52 110.047 156.379 111.881 150.895 144.489C150.895 144.489 153.942 166.092 151.301 177.912L150.895 189.732H146.63L145.818 188.51C145.818 188.51 145.615 177.912 144.193 175.059C142.771 172.206 141.553 155.698 141.553 155.698C141.553 155.698 135.054 122.071 136.476 119.218C137.897 116.365 152.52 110.047 152.52 110.047Z" fill="#FBBEBE"/>
<path d="M98.2944 191.363C98.2944 191.363 99.7161 194.624 102.356 193.808C104.996 192.993 105.606 192.993 105.606 192.993C105.606 192.993 103.778 202.368 104.387 206.852C104.997 211.335 103.981 214.188 99.9192 214.188C95.8573 214.188 95.248 209.297 95.248 209.297L97.0759 197.681L98.2944 191.363Z" fill="#2F2E41"/>
<path d="M145.006 186.268C145.006 186.268 146.427 189.121 148.661 188.51C150.895 187.898 151.708 186.879 151.708 186.879C151.708 186.879 151.505 193.197 152.317 196.05C153.129 198.903 154.957 207.055 150.692 207.463C149.521 207.606 148.335 207.366 147.31 206.778C146.286 206.191 145.478 205.287 145.006 204.202V186.268L145.006 186.268Z" fill="#2F2E41"/>
<path d="M134.851 47.0727C139.786 47.0727 143.787 43.058 143.787 38.1056C143.787 33.1532 139.786 29.1384 134.851 29.1384C129.916 29.1384 125.915 33.1532 125.915 38.1056C125.915 43.058 129.916 47.0727 134.851 47.0727Z" fill="#FBBEBE"/>
<path d="M151.302 54.206C151.302 54.206 144.223 51.4169 141.67 51.7925C140.569 52.7308 139.287 53.4297 137.903 53.8451C136.52 54.2606 135.066 54.3835 133.633 54.206C128.758 53.5946 126.852 51.2473 126.852 51.2473C126.852 51.2473 113.729 54.206 114.542 55.4288C115.354 56.6516 119.01 76.6239 119.01 76.6239C119.01 76.6239 121.447 93.9468 118.604 99.857C115.76 105.767 114.339 115.55 115.557 116.365C116.776 117.18 130.383 120.848 132.008 121.867C133.633 122.886 134.242 119.422 135.257 120.033C136.273 120.645 138.507 121.664 139.928 120.848C141.35 120.033 155.16 112.696 154.754 111.27C154.348 109.843 149.068 92.5202 147.24 89.0557C145.412 85.5911 146.834 78.2543 147.849 76.8277C148.864 75.4011 150.895 73.7707 151.302 69.6947C151.708 65.6188 151.302 54.206 151.302 54.206Z" fill="#2F2E41"/>
<path d="M114.989 54.7988C114.989 54.7988 113.323 56.0401 112.714 58.6895C112.104 61.3389 111.292 82.534 111.292 82.534C111.292 82.534 103.778 111.677 105.402 112.289C107.027 112.9 111.698 114.123 112.308 113.511C112.917 112.9 119.822 88.2404 119.213 85.591C118.603 82.9416 120.025 75.1972 120.025 75.1972L114.989 54.7988Z" fill="#2F2E41"/>
<path d="M152.52 92.7239C152.52 92.7239 141.553 87.2213 140.335 90.8897C139.116 94.5581 151.911 98.4303 151.911 98.4303C151.911 98.4303 156.379 96.7999 156.379 95.7809C156.379 94.7619 152.52 92.7239 152.52 92.7239Z" fill="#FBBEBE"/>
<path d="M149.067 55.0212L151.301 54.206C151.301 54.206 152.52 53.3908 153.942 56.4478C155.363 59.5048 170.798 77.4392 167.955 83.1455C165.112 88.8519 155.769 100.468 155.363 99.6533C154.957 98.8381 150.286 92.7241 151.098 92.1127C151.911 91.5013 161.253 83.1455 160.034 81.9227C158.816 80.6999 153.739 70.3062 150.895 69.8986C148.052 69.491 149.067 55.0212 149.067 55.0212Z" fill="#2F2E41"/>
<path d="M125.001 37.8C125.001 37.8 94.0317 25.3044 67.2236 13.2803C67.2236 13.2803 53.2102 9.81569 45.8989 16.3373C45.8989 16.3373 51.9916 15.5221 51.9916 18.9867C51.9916 18.9867 57.272 25.9158 40.8216 27.1386C29.365 27.9902 24.8036 34.8714 23.0899 38.9707C21.7521 42.2614 19.4003 45.0363 16.3784 46.8898C12.4187 49.2646 6.67988 51.0117 0 47.9261C0 47.9261 0.379753 48.512 1.1001 49.4881C13.9973 66.9657 62.0254 82.1765 78.9854 68.6372C89.4668 60.2699 106.083 49.6942 117.994 55.021C136.679 63.3768 140.131 59.7084 140.131 59.7084L140.944 57.4666C140.944 57.4666 122.868 52.5754 122.462 46.2577C122.056 39.9399 125.001 37.8 125.001 37.8Z" fill="#9DCAFF"/>
<path d="M143.076 39.4304C143.076 39.4304 147.443 41.1627 148.255 46.8691C148.255 46.8691 152.926 56.0401 147.646 58.2819C142.365 60.5236 141.35 59.9123 141.35 59.9123V58.8933C141.35 58.8933 147.036 55.4287 145.818 52.7793C144.599 50.1299 143.076 39.4304 143.076 39.4304Z" fill="#9DCAFF"/>
<path d="M135.257 65.4149C135.257 65.4149 136.679 61.7465 136.273 61.7465C135.866 61.7465 137.925 59.4903 138.723 60.3127C139.522 61.1351 140.944 63.5807 139.319 64.1921C137.694 64.8035 135.257 65.4149 135.257 65.4149Z" fill="#9DCAFF"/>
<path d="M145.266 63.2373C145.266 63.2373 141.554 61.9671 141.571 62.3743C141.588 62.7815 139.255 60.813 140.04 59.9777C140.825 59.1423 143.2 57.6136 143.877 59.2167C144.554 60.8198 145.266 63.2373 145.266 63.2373Z" fill="#9DCAFF"/>
<path d="M139.319 57.6704C139.319 57.6704 141.173 56.6261 142.277 58.2691C143.381 59.9122 140.944 62.7654 139.319 62.7654C137.694 62.7654 137.694 59.3008 137.694 59.3008L139.319 57.6704Z" fill="#9DCAFF"/>
<path opacity="0.1" d="M139.319 57.6704C139.319 57.6704 141.173 56.6261 142.277 58.2691C143.381 59.9122 140.944 62.7654 139.319 62.7654C137.694 62.7654 137.694 59.3008 137.694 59.3008L139.319 57.6704Z" fill="black"/>
<path d="M127.103 23.4725C126.033 24.3583 125.017 25.3509 124.351 26.5727C124.002 27.2579 123.71 27.971 123.478 28.7047C122.657 31.0765 120.616 33.4787 121.48 35.8352C121.726 36.5076 122.111 37.2166 121.89 37.8978C121.693 38.5029 121.088 38.856 120.649 39.3159C119.709 40.303 119.551 41.7841 119.493 43.1486C119.388 45.6475 120.757 48.5922 122.412 50.4628C122.771 50.8147 123.104 51.1928 123.407 51.5939C123.612 51.9138 123.746 52.2741 123.8 52.6504C123.854 53.0268 123.826 53.4103 123.719 53.7751L126.129 53.2703C126.216 54.1632 126.244 55.0609 126.211 55.9575C126.782 56.0205 127.358 55.8839 127.841 55.5708C128.324 55.2576 128.684 54.7871 128.862 54.2383C128.998 54.8777 129.221 55.4953 129.524 56.0742C130.231 55.1868 130.773 54.1792 131.125 53.0993C131.586 51.716 131.685 50.237 131.412 48.8043C131.157 47.758 130.81 46.7364 130.374 45.7516C129.523 43.5919 128.827 41.374 128.133 39.1584C127.772 38.0077 127.407 36.8195 127.516 35.6182L128.372 35.5247C128.382 35.0502 128.473 34.581 128.643 34.1378C129.145 34.2444 129.628 34.4267 130.075 34.6787L131.062 32.1649C131.714 32.843 132.649 33.1499 133.544 33.4328L136.948 34.5082L136.968 33.8323C138.405 35.1084 140.041 36.1383 141.811 36.8806C141.711 36.7595 141.638 36.6183 141.597 36.4666C141.556 36.3149 141.547 36.1562 141.572 36.0009C142.411 37.5086 142.075 39.3868 141.558 41.0335C141.04 42.6801 140.353 44.3566 140.562 46.0705C140.718 47.3524 141.372 48.5783 141.251 49.8639C141.191 50.497 140.944 51.0995 140.867 51.7307C140.684 53.2362 141.473 54.6699 142.235 55.98L143.715 53.9395C144.257 53.1928 144.816 52.4297 145.583 51.9192C146.371 51.3952 147.347 51.16 148.033 50.5082C149.259 49.3447 149.103 47.3624 148.705 45.7174C148.493 44.843 148.237 43.9562 148.314 43.0597C148.446 41.5399 149.499 40.2825 150.092 38.8777C150.514 37.8534 150.697 36.7456 150.627 35.6393C150.557 34.533 150.235 33.4575 149.686 32.4954C148.951 31.2295 147.839 30.21 147.146 28.9202C146.456 27.6363 146.193 26.1087 145.248 25.0006C144.786 24.4964 144.249 24.0671 143.656 23.7283C140.97 22.1084 137.952 21.1205 134.83 20.8387C131.87 20.5281 129.372 21.5958 127.103 23.4725Z" fill="#FF6584"/>
</svg>
