<svg width="261" height="219" viewBox="0 0 261 219" fill="none" xmlns="http://www.w3.org/2000/svg">
<path d="M81.8912 218.885C125.776 218.885 161.351 213.463 161.351 206.776C161.351 200.088 125.776 194.667 81.8912 194.667C38.0069 194.667 2.43164 200.088 2.43164 206.776C2.43164 213.463 38.0069 218.885 81.8912 218.885Z" fill="#F2F2F2"/>
<path d="M60.1464 93.2777H60.0946L57.6499 90.1057L53.6935 94.086L54.1312 94.7464L53.6331 94.8681C53.6331 94.8681 61.6178 110.383 62.9481 104.494C64.2784 98.605 60.1464 93.2777 60.1464 93.2777Z" fill="#FDB797"/>
<path d="M76.8151 37.8411C76.8151 37.8411 91.3765 42.2356 111.766 35.6424C132.155 29.0493 174.386 45.1643 174.386 45.1643C174.386 45.1643 207.88 45.1643 257.395 23.9219C257.395 23.9219 234.823 45.8972 250.841 59.0835C266.859 72.2699 252.298 91.3136 233.366 98.6397C214.433 105.966 212.979 120.615 214.433 134.534C215.887 148.453 214.433 135.267 214.433 135.267C214.433 135.267 157.639 125.012 143.074 160.18L70.99 45.9001C70.99 45.9001 66.6218 37.1111 76.8151 37.8411Z" fill="#9DCAFF"/>
<path opacity="0.1" d="M68.4814 42.1777L143.073 159.788L148.341 151.273L155.231 144.38L68.4814 42.1777Z" fill="black"/>
<g opacity="0.1">
<path opacity="0.1" d="M81.0222 48.1801C81.0222 48.1801 95.5837 52.5746 115.973 45.9814C136.363 39.3882 178.587 55.5062 178.587 55.5062C178.587 55.5062 205.683 55.5062 247.158 40.0487C250.438 31.3235 257.954 24.0061 257.954 24.0061C208.427 45.2485 174.944 45.2485 174.944 45.2485C174.944 45.2485 132.711 29.1335 112.325 35.7267C91.9383 42.3198 77.374 37.9253 77.374 37.9253C67.1807 37.1925 71.5488 45.9843 71.5488 45.9843L74.5463 50.738C75.1712 49.1361 76.9132 47.8846 81.0222 48.1801Z" fill="black"/>
<path opacity="0.1" d="M251.409 59.1679C250.66 58.5551 249.961 57.8839 249.318 57.1604C249.151 61.4854 250.634 65.7871 255.048 69.4226C256.225 70.3801 257.303 71.4534 258.268 72.6265C258.409 67.9279 256.384 63.264 251.409 59.1679Z" fill="black"/>
</g>
<path d="M103.252 194.89L101.91 201.642H96.5396L97.8843 192.19L103.252 194.89Z" fill="#FDB797"/>
<path opacity="0.1" d="M103.142 195.822L102.765 196.964L97.4697 195.443L97.8469 194.681L103.142 195.822Z" fill="black"/>
<path d="M68.3613 194.89L69.7032 201.642H75.0705L73.7286 192.19L68.3613 194.89Z" fill="#FDB797"/>
<path opacity="0.1" d="M68.3413 195.822L68.7185 197.343L74.0167 195.443V194.681L68.3413 195.822Z" fill="black"/>
<path d="M114.611 11.15C114.611 11.15 114.461 4.38304 109.736 0.65772C105.011 -3.0676 108.547 14.0382 108.547 14.0382L114.611 11.15Z" fill="#FDB797"/>
<path d="M75.0707 200.292H68.3615L67.0197 204.348C67.0197 204.348 60.1608 204.197 60.3105 205.698C60.4603 207.199 64.1863 209.753 73.7288 207.048L76.4125 204.348C76.4125 204.348 77.7543 202.992 75.0707 200.292Z" fill="#333333"/>
<path d="M96.5398 200.292H103.249L104.591 204.348C104.591 204.348 111.45 204.197 111.3 205.698C111.15 207.199 107.424 209.753 97.8817 207.048L95.198 204.348C95.198 204.348 93.8562 202.992 96.5398 200.292Z" fill="#333333"/>
<path d="M104.585 108.489H67.0195C54.7934 140.89 56.2849 155.742 56.2849 155.742L67.0195 196.243L75.082 194.893L67.0195 154.401C73.7287 148.85 85.808 127.399 85.808 127.399C85.808 127.399 97.8816 148.839 104.585 154.401L96.5225 194.901L104.585 196.251L115.32 155.751C115.32 155.751 116.82 140.89 104.585 108.489Z" fill="#333333"/>
<path opacity="0.1" d="M67.0193 109.013C67.0193 109.013 88.3273 117.124 104.593 109.013H67.0193Z" fill="black"/>
<path d="M65.833 60.0191L55.0984 70.8185L59.1296 92.4201L53.7623 96.4757L44.3695 68.1244C44.3695 68.1244 41.5361 62.8754 45.7113 60.0133L61.8161 43.8114C61.8161 43.8114 68.7269 39.1533 73.478 41.5402C78.2291 43.9272 65.7409 59.8482 65.7409 59.8482" fill="#3AD29F"/>
<path d="M65.6746 59.886L67.0164 108.489C67.0164 108.489 88.3244 116.6 104.59 108.489L103.249 62.7365L102.906 61.2244L103.154 60.4799L119.279 47.027C123.699 44.5792 121.363 39.0868 121.363 39.0868L114.625 9.98242L108.904 13.5108L110.92 35.3934L99.4362 44.9761L99.1483 44.9616V45.034L69.7116 43.687" fill="#3AD29F"/>
<path d="M86.6891 37.01H85.0709C82.5535 37.01 80.5127 39.0631 80.5127 41.5957V44.5736C80.5127 47.1062 82.5535 49.1593 85.0709 49.1593H86.6891C89.2066 49.1593 91.2473 47.1062 91.2473 44.5736V41.5957C91.2473 39.0631 89.2066 37.01 86.6891 37.01Z" fill="#FDB797"/>
<path opacity="0.1" d="M80.8555 42.1982C82.5595 42.7968 84.3753 43.0035 86.1693 42.803C87.9632 42.6024 89.6896 41.9998 91.2215 41.0394C90.8434 39.9982 90.1571 39.0987 89.255 38.4621C88.353 37.8255 87.2786 37.4825 86.1767 37.4792V37.4792C84.872 37.4837 83.6133 37.9647 82.6346 38.8326C81.6558 39.7006 81.0236 40.8965 80.8555 42.1982V42.1982Z" fill="black"/>
<path d="M84.5381 42.4096C91.2078 42.4096 96.6146 36.9702 96.6146 30.2604C96.6146 23.5505 91.2078 18.1111 84.5381 18.1111C77.8685 18.1111 72.4617 23.5505 72.4617 30.2604C72.4617 36.9702 77.8685 42.4096 84.5381 42.4096Z" fill="#FDB797"/>
<path opacity="0.1" d="M76.1501 23.5597C75.3999 23.6549 74.6388 23.6117 73.9041 23.4323C73.1829 23.1687 72.5323 22.7403 72.0036 22.1808C70.4257 20.6571 69.2509 18.6235 69.0983 16.4277C68.9457 14.232 69.9621 11.9058 71.8539 10.8166C74.503 9.29865 77.8806 10.4979 80.4347 12.1723C82.6317 13.6207 85.2549 15.4776 87.6161 14.3275C88.3906 13.951 88.9896 13.2876 89.695 12.7922C92.4219 10.8658 96.4819 11.816 98.7077 14.3102C100.934 16.8043 101.558 20.4138 101.175 23.7451C100.792 27.0765 99.5255 30.2253 98.3622 33.3655C98.1812 33.9851 97.8743 34.5602 97.4609 35.0543C96.0442 36.5172 93.3923 35.3817 92.4593 33.5683C90.8382 30.4136 92.4593 24.9444 88.6296 23.1049C85.5803 21.6449 79.424 23.3454 76.1501 23.5597Z" fill="black"/>
<path d="M76.3317 23.2587C75.5816 23.3539 74.8205 23.3107 74.0857 23.1312C73.3645 22.8677 72.714 22.4393 72.1853 21.8798C70.6073 20.3561 69.4325 18.3225 69.2799 16.1267C69.1273 13.9309 70.1437 11.6048 72.0356 10.5156C74.6847 8.99763 78.0623 10.1969 80.6164 11.8713C82.8134 13.3197 85.4366 15.1766 87.7977 14.0265C88.5723 13.6499 89.1712 12.9866 89.8767 12.4912C92.6036 10.5648 96.6636 11.515 98.8894 14.0091C101.115 16.5033 101.74 20.1127 101.357 23.4441C100.974 26.7754 99.6899 29.9243 98.5381 33.0645C98.3571 33.6841 98.0502 34.2592 97.6369 34.7533C96.2202 36.2162 93.5682 35.0806 92.6352 33.2672C91.0141 30.1126 92.6352 24.6434 88.8056 22.8039C85.7706 21.3439 79.6028 23.0472 76.3317 23.2587Z" fill="#333333"/>
<path d="M91.2471 32.96C91.9882 32.96 92.5889 31.7512 92.5889 30.2601C92.5889 28.7691 91.9882 27.5603 91.2471 27.5603C90.506 27.5603 89.9053 28.7691 89.9053 30.2601C89.9053 31.7512 90.506 32.96 91.2471 32.96Z" fill="#FDB797"/>
<path opacity="0.1" d="M65.6919 59.8801L69.0983 61.485L65.6919 65.6738V59.8801Z" fill="black"/>
<path d="M86.0381 48.0873V50.286C86.0381 50.286 70.1003 47.3573 69.6943 42.96L80.213 43.6929L86.0381 48.0873Z" fill="#9DCAFF"/>
<path d="M86.0383 48.0873V50.286C86.0383 50.286 101.976 47.3573 102.382 42.96L91.8635 43.6929L86.0383 48.0873Z" fill="#9DCAFF"/>
<path d="M69.7434 51.1782C69.7434 51.1782 69.7434 46.5752 72.7956 46.5752C75.8479 46.5752 78.8972 55.7842 78.8972 55.7842L69.7434 51.1782Z" fill="#9DCAFF"/>
</svg>
