<svg width="24" height="24" viewBox="0 0 24 24" fill="none" xmlns="http://www.w3.org/2000/svg">
<g clip-path="url(#clip0)">
<path d="M22.0271 6.21953C21.7971 6.44951 21.558 6.63628 21.3061 6.78459L17.2151 2.69346C17.3634 2.44169 17.55 2.20255 17.7802 1.97239C18.22 1.53257 18.22 0.816811 17.78 0.376808C17.3402 -0.0630113 16.6244 -0.0631944 16.1844 0.376808C14.3534 2.20786 14.3266 4.42125 14.6471 6.41966C12.3207 5.94011 9.74898 5.73613 7.696 7.78893C6.76802 8.71709 6.23445 9.80712 6.06489 11.1216C6.03999 11.3144 6.17622 11.491 6.36903 11.5159C6.56129 11.5408 6.73836 11.4045 6.76308 11.2117C6.91212 10.0574 7.37996 9.10069 8.19386 8.28679C10.0853 6.39531 12.4749 6.66759 14.7826 7.16801C14.8514 7.5128 14.9124 7.78325 14.9796 8.08043C12.6867 7.55894 10.466 7.19035 8.79134 8.88921C5.04792 12.6379 11.4088 19.0333 7.22432 23.2178C7.05897 23.3831 6.78981 23.3831 6.62446 23.2178C6.45894 23.0524 6.45894 22.7833 6.62446 22.6179C9.27785 19.9644 6.907 16.1525 6.72114 12.503C6.71107 12.3089 6.54719 12.1591 6.35164 12.1694C6.15736 12.1792 6.00795 12.3448 6.01784 12.5389C6.05647 13.2958 6.18501 14.0544 6.32655 14.74C4.32814 14.4197 2.11494 14.4465 0.283882 16.2773C-0.157036 16.7181 -0.157219 17.432 0.283882 17.8729C0.724801 18.314 1.43855 18.314 1.87965 17.8729C2.10963 17.6429 2.34876 17.4564 2.60054 17.308L6.69166 21.399C6.54317 21.6509 6.35658 21.8901 6.1266 22.1201C5.6866 22.5599 5.6866 23.2758 6.1266 23.7156C6.56642 24.1556 7.28218 24.1556 7.72218 23.7156C9.55324 21.8846 9.57997 19.6712 9.25954 17.6728C11.9149 18.2201 14.2878 18.2263 16.2106 16.3035C18.2636 14.2505 18.0592 11.6785 17.5797 9.3521C18.2476 9.4583 18.9185 9.52257 19.594 9.50133C19.7883 9.4951 19.9408 9.33251 19.9348 9.13823C19.9286 8.94396 19.7663 8.7907 19.5719 8.79747C18.9409 8.81725 18.2519 8.7581 17.418 8.61107C17.3502 8.31389 17.2843 8.03392 17.2102 7.71202C19.163 8.10515 21.0217 8.22069 22.525 6.71739C22.6903 6.55205 22.9593 6.55205 23.1248 6.71739C23.2907 6.8831 23.2907 7.15153 23.1248 7.31725C22.4662 7.97606 21.7223 8.40379 20.8507 8.6248C20.6623 8.67259 20.5482 8.86394 20.596 9.05254C20.6438 9.24095 20.8353 9.35503 21.0237 9.30724C22.0216 9.05419 22.8718 8.56621 23.6227 7.81511C23.8358 7.60197 23.9532 7.31871 23.9532 7.01732C23.9532 6.01518 22.7337 5.51292 22.0271 6.21953ZM1.38178 17.3751C1.21589 17.5409 0.94764 17.5409 0.781747 17.3751C0.616036 17.2093 0.615853 16.9411 0.781747 16.7752C1.92195 15.635 3.25862 15.292 4.58796 15.292C5.23085 15.292 5.87227 15.3722 6.48878 15.4814C6.55598 15.7769 6.62446 16.0675 6.69661 16.3806C4.74379 15.9873 2.88508 15.8718 1.38178 17.3751ZM3.29212 17.0037C4.24739 16.7102 5.38997 16.8224 6.8647 17.1348C7.17726 18.6096 7.2895 19.7521 6.9958 20.7074L3.29212 17.0037ZM8.75069 15.249C8.48225 14.0898 8.24477 13.0087 8.2552 12.0306L11.969 15.7443C10.9908 15.7548 9.90975 15.5174 8.75069 15.249ZM12.872 15.6518L8.34767 11.1275C8.45955 10.5936 8.68056 10.0977 9.05446 9.64507L14.3543 14.9451C13.9018 15.3191 13.4061 15.54 12.872 15.6518ZM14.8523 14.4474L9.55232 9.14739C10.0048 8.77348 10.5006 8.55248 11.0346 8.4406L15.5589 12.965C15.447 13.4989 15.2262 13.9947 14.8523 14.4474ZM15.1561 8.84343C15.4245 10.0027 15.6618 11.0837 15.6516 12.0619L11.9378 8.34813C12.9158 8.33769 13.997 8.575 15.1561 8.84343ZM15.7127 15.8057C13.8212 17.6971 11.4319 17.4249 9.12404 16.9244C9.07442 16.6769 9.0204 16.4218 8.92702 16.012C11.2493 16.5403 13.4243 16.8942 15.1129 15.2056C18.8314 11.4873 12.5217 5.0352 16.6825 0.874673C16.8478 0.709328 17.1168 0.709145 17.2823 0.874673C17.4477 1.04002 17.4477 1.30918 17.2823 1.47453C13.5426 5.21428 19.896 11.6226 15.7127 15.8057ZM17.0421 6.95763C16.7295 5.48289 16.6173 4.34031 16.911 3.38505L20.6147 7.08873C19.6594 7.38243 18.5168 7.27019 17.0421 6.95763Z" fill="#333333"/>
</g>
<defs>
<clipPath id="clip0">
<rect width="24" height="24" fill="white"/>
</clipPath>
</defs>
</svg>
