<svg width="24" height="20" viewBox="0 0 24 20" fill="none" xmlns="http://www.w3.org/2000/svg">
<path fill-rule="evenodd" clip-rule="evenodd" d="M5.07947 1.12636C7.41368 0.659224 10.4836 0.597913 12.5828 2.69418C12.6505 2.76208 12.7042 2.84268 12.7408 2.93135C12.7774 3.02002 12.7961 3.11503 12.7959 3.21094V19.2687C12.7962 19.4132 12.7535 19.5546 12.6733 19.6749C12.5932 19.7951 12.4791 19.8889 12.3455 19.9442C12.212 19.9996 12.065 20.014 11.9233 19.9858C11.7815 19.9575 11.6514 19.8878 11.5493 19.7854C10.3187 18.5534 8.46181 18.2395 6.48379 18.4424C4.52183 18.6468 2.60074 19.3431 1.44459 19.9212C1.33331 19.9769 1.20962 20.0033 1.08527 19.9978C0.960925 19.9923 0.840055 19.9551 0.734146 19.8897C0.628237 19.8243 0.54081 19.7329 0.480171 19.6242C0.419533 19.5155 0.387699 19.3931 0.387695 19.2687L0.387695 3.21094C0.3877 3.0755 0.425388 2.94274 0.496543 2.8275C0.567697 2.71226 0.669513 2.61909 0.790598 2.55841L1.11759 3.21094L0.790598 2.55841L0.793518 2.55695L0.799357 2.55403L0.818334 2.54528C0.924156 2.49257 1.03124 2.44244 1.13949 2.39492C2.40293 1.82911 3.72465 1.40371 5.08093 1.12636H5.07947ZM1.84749 3.67808V18.1417C3.08247 17.641 4.68533 17.1607 6.33489 16.9914C8.00343 16.8191 9.81942 16.9578 11.3361 17.8089V3.52918C9.78438 2.17303 7.49543 2.13361 5.36559 2.55987C4.15666 2.80721 2.97737 3.18204 1.84749 3.67808Z" fill="#333333"/>
<path fill-rule="evenodd" clip-rule="evenodd" d="M19.0526 1.12636C16.7199 0.659224 13.6485 0.597913 11.5493 2.69418C11.4816 2.76208 11.4279 2.84268 11.3913 2.93135C11.3547 3.02002 11.336 3.11503 11.3362 3.21094V19.2687C11.3359 19.4132 11.3786 19.5546 11.4588 19.6749C11.539 19.7951 11.6531 19.8889 11.7866 19.9442C11.9201 19.9996 12.0671 20.014 12.2088 19.9858C12.3506 19.9575 12.4808 19.8878 12.5828 19.7854C13.8135 18.5534 15.6703 18.2395 17.6483 18.4424C19.6103 18.6468 21.5314 19.3431 22.6875 19.9212C22.7988 19.9769 22.9225 20.0033 23.0468 19.9978C23.1712 19.9923 23.2921 19.9551 23.398 19.8897C23.5039 19.8243 23.5913 19.7329 23.6519 19.6242C23.7126 19.5155 23.7444 19.3931 23.7444 19.2687V3.21094C23.7444 3.0755 23.7067 2.94274 23.6356 2.8275C23.5644 2.71226 23.4626 2.61909 23.3415 2.55841L23.0145 3.21094L23.3415 2.55841L23.3386 2.55695L23.3328 2.55403L23.3138 2.54528L23.2452 2.5117C22.8622 2.33289 22.4732 2.16735 22.0788 2.01537C21.0966 1.63532 20.0844 1.33795 19.0526 1.12636ZM22.2846 3.67808V18.1417C21.0496 17.641 19.4468 17.1607 17.7972 16.9914C16.1287 16.8191 14.3127 16.9578 12.796 17.8089V3.52918C14.3477 2.17303 16.6367 2.13361 18.7665 2.55987C19.9755 2.80719 21.1548 3.18202 22.2846 3.67808Z" fill="#333333"/>
</svg>
