<svg width="19" height="21" viewBox="0 0 19 21" fill="none" xmlns="http://www.w3.org/2000/svg">
<path d="M2.11111 21H16.8889C18.0532 21 19 20.0582 19 18.9V9.45012C19.0001 9.31222 18.9729 9.17564 18.9198 9.04825C18.8667 8.92086 18.7889 8.80515 18.6907 8.70777L10.2463 0.307858C10.1483 0.210266 10.032 0.132842 9.90395 0.0800163C9.7759 0.0271906 9.63863 0 9.5 0C9.36137 0 9.2241 0.0271906 9.09605 0.0800163C8.96799 0.132842 8.85166 0.210266 8.75372 0.307858L0.309278 8.70777C0.211114 8.80515 0.133257 8.92086 0.0801817 9.04825C0.0271062 9.17564 -0.000142649 9.31222 5.61573e-07 9.45012V18.9C5.61573e-07 20.0582 0.946833 21 2.11111 21ZM7.38889 18.9V13.6501H11.6111V18.9H7.38889ZM2.11111 9.88481L9.5 2.53489L16.8889 9.88481L16.8899 18.9H13.7222V13.6501C13.7222 12.4919 12.7754 11.5501 11.6111 11.5501H7.38889C6.22461 11.5501 5.27778 12.4919 5.27778 13.6501V18.9H2.11111V9.88481Z" fill="#333333"/>
</svg>
