<svg width="32" height="32" viewBox="0 0 32 32" fill="none" xmlns="http://www.w3.org/2000/svg">
<g clip-path="url(#clip0)">
<path d="M30.1829 13.6334C29.689 13.2702 29.0755 12.8166 28.9947 12.5161C28.9071 12.1878 29.2201 11.4643 29.4733 10.8841C29.9061 9.88793 30.354 8.85697 29.8573 7.99715C29.3551 7.12617 28.2267 6.99958 27.1373 6.87717C26.5154 6.80758 25.7419 6.72136 25.5109 6.489C25.2785 6.25806 25.1923 5.48445 25.1227 4.86254C25.0003 3.77315 24.8736 2.64619 24.0027 2.14252C23.2459 1.70289 22.1245 2.08689 21.1157 2.52652C20.5578 2.76861 19.9763 2.99954 19.4824 3.00515C19.1819 2.92585 18.7297 2.31091 18.3651 1.81696C17.7377 0.965543 17.0267 0 16 0C14.9746 0 14.2623 0.965543 13.6347 1.81565C13.2702 2.30954 12.818 2.92454 12.3923 3.01911C12.018 3.01911 11.442 2.76867 10.8841 2.52659C9.87267 2.08696 8.74988 1.70713 7.99858 2.14259C7.12623 2.64626 6.99965 3.77321 6.87717 4.86261C6.80902 5.48452 6.72136 6.25669 6.49037 6.48906C6.258 6.72143 5.48445 6.80765 4.86391 6.87723C3.77315 6.99965 2.64476 7.12767 2.14252 7.99721C1.64583 8.85567 2.0938 9.88662 2.52652 10.8842C2.77976 11.4644 3.09417 12.1878 3.00652 12.5162C2.92585 12.8167 2.31085 13.2703 1.81832 13.6334C0.965543 14.2609 0 14.9732 0 16C0 17.0267 0.965543 17.7391 1.81702 18.3666C2.31091 18.7297 2.92448 19.1833 3.00522 19.4838C3.09287 19.8122 2.77982 20.5356 2.52659 21.1158C2.09387 22.112 1.64589 23.143 2.14259 24.0028C2.64482 24.8738 3.77321 25.0004 4.86261 25.1228C5.48452 25.1924 6.25806 25.2786 6.48906 25.5109C6.72143 25.7419 6.80765 26.5155 6.87723 27.1374C6.99965 28.2268 7.1263 29.3537 7.99721 29.8574C8.75132 30.2957 9.87267 29.913 10.8842 29.4734C11.4421 29.2313 12.0125 28.9864 12.5176 28.9948C12.8181 29.0741 13.2702 29.689 13.6348 30.183C14.2623 31.0345 14.9733 32 16 32C17.0254 32 17.7377 31.0345 18.3638 30.1843C18.7283 29.6905 19.1806 29.0755 19.6063 28.9809C19.9819 28.9809 20.5579 29.2313 21.1144 29.4734C22.1273 29.9145 23.2487 30.2943 24 29.8588C24.8723 29.3551 24.9989 28.2282 25.1214 27.1374C25.1895 26.5155 25.2772 25.7433 25.5082 25.5109C25.7406 25.2786 26.5141 25.1924 27.1347 25.1228C28.2254 25.0004 29.3538 24.8723 29.856 24.0028C30.3541 23.1443 29.9061 22.1134 29.472 21.1158C29.2188 20.5356 28.9058 19.8136 28.9934 19.4838C29.0741 19.1833 29.6891 18.7297 30.1816 18.3666C31.0345 17.7391 32.0001 17.0267 32.0001 16C32.0001 14.9732 31.0344 14.2609 30.1829 13.6334ZM29.3593 17.2438C28.6205 17.7878 27.8567 18.3499 27.6508 19.1207C27.4379 19.9193 27.8247 20.8083 28.1989 21.6681C28.4382 22.2191 28.8 23.0511 28.6553 23.3029C28.5036 23.5659 27.5895 23.6689 26.9829 23.737C26.0591 23.8414 25.1033 23.9485 24.5273 24.5245C23.9513 25.1005 23.8441 26.0564 23.7412 26.9802C23.673 27.5854 23.5701 28.5008 23.3057 28.6525C23.2654 28.6762 23.1986 28.6817 23.1499 28.6817C22.7882 28.6817 22.2205 28.4341 21.671 28.1962C20.8084 27.8219 19.8651 27.4491 19.1249 27.6494C18.3527 27.8553 17.7906 28.6191 17.2453 29.3579C16.878 29.856 16.3229 30.6087 16.0001 30.6087C15.6773 30.6087 15.1208 29.856 14.7549 29.3579C14.2109 28.6205 13.6488 27.8567 12.8766 27.6508C12.725 27.6104 12.5622 27.5895 12.3911 27.5895C11.7274 27.5895 11.0165 27.8984 10.3292 28.1989C9.78104 28.4368 9.21338 28.6845 8.85025 28.6845C8.80154 28.6845 8.73475 28.6789 8.69445 28.6553C8.43012 28.5022 8.32852 27.5881 8.26036 26.9829C8.15602 26.0591 8.04886 25.1033 7.47286 24.5273C6.89823 23.9513 5.94104 23.8441 5.01724 23.7398C4.41339 23.6716 3.49793 23.5686 3.3463 23.3057C3.20022 23.0552 3.56335 22.2218 3.80263 21.6709C4.17691 20.8111 4.56365 19.922 4.35078 19.1234C4.14345 18.3526 3.37963 17.7906 2.64228 17.2465C2.14422 16.8779 1.39148 16.3227 1.39148 15.9999C1.39148 15.6771 2.14415 15.122 2.64228 14.7533C3.38106 14.2093 4.14489 13.6472 4.35078 12.8764C4.56365 12.0778 4.17685 11.1888 3.80263 10.3289C3.56471 9.77797 3.20158 8.94599 3.3463 8.69412C3.49937 8.43117 4.41345 8.32819 5.01867 8.26141C5.94247 8.15706 6.8983 8.04991 7.4743 7.47391C8.0503 6.89791 8.15745 5.94208 8.2618 5.01828C8.32858 4.41306 8.43156 3.49898 8.69589 3.34591C8.73625 3.32224 8.80304 3.31669 8.85169 3.31669C9.21345 3.31669 9.7811 3.56432 10.3293 3.80367C11.1919 4.17795 12.1338 4.55217 12.8753 4.35045C13.6475 4.14456 14.2096 3.38074 14.755 2.64195C15.1223 2.14389 15.6774 1.39115 16.0002 1.39115C16.3229 1.39115 16.8795 2.14382 17.2468 2.64052C17.7908 3.37793 18.3529 4.14176 19.1251 4.34765C19.8597 4.54382 20.8085 4.17652 21.6711 3.80087C22.2193 3.56295 22.7869 3.31532 23.1501 3.31532C23.1988 3.31532 23.2656 3.32087 23.3059 3.34454C23.5702 3.49761 23.6718 4.41169 23.74 5.01691C23.8443 5.94071 23.9515 6.89654 24.5275 7.47254C25.1021 8.04854 26.0593 8.15569 26.9831 8.26004C27.5869 8.32819 28.5024 8.43117 28.654 8.69412C28.8001 8.94456 28.437 9.77797 28.1977 10.3289C27.8234 11.1888 27.4367 12.0778 27.6495 12.8764C27.8569 13.6472 28.6207 14.2092 29.358 14.7533C29.8561 15.1219 30.6088 15.6771 30.6088 15.9999C30.6088 16.3227 29.856 16.8779 29.3593 17.2438Z" fill="#333333"/>
<path d="M11.8256 12.5216C11.4416 12.5216 11.13 12.8333 11.13 13.2173V16.6955L8.20823 12.7999C8.02875 12.5606 7.71434 12.4618 7.43188 12.5578C7.14805 12.6525 6.95605 12.9181 6.95605 13.2173V18.7825C6.95605 19.1665 7.26773 19.4782 7.65173 19.4782C8.03573 19.4782 8.3474 19.1665 8.3474 18.7825V15.3043L11.2691 19.1999C11.4027 19.378 11.6114 19.4782 11.8256 19.4782C11.8994 19.4782 11.9731 19.467 12.0455 19.442C12.3293 19.3473 12.5213 19.0816 12.5213 18.7825V13.2173C12.5213 12.8333 12.2096 12.5216 11.8256 12.5216Z" fill="#333333"/>
<path d="M17.3914 18.0867H15.3044V13.9128H17.3914C17.7754 13.9128 18.087 13.6011 18.087 13.2171C18.087 12.8331 17.7754 12.5215 17.3914 12.5215H14.6088C14.2248 12.5215 13.9131 12.8332 13.9131 13.2172V18.7824C13.9131 19.1663 14.2248 19.478 14.6088 19.478H17.3914C17.7754 19.478 18.087 19.1663 18.087 18.7824C18.087 18.3984 17.7754 18.0867 17.3914 18.0867Z" fill="#333333"/>
<path d="M17.3914 15.3047H14.6088C14.2248 15.3047 13.9131 15.6164 13.9131 16.0004C13.9131 16.3844 14.2248 16.696 14.6088 16.696H17.3914C17.7754 16.696 18.087 16.3843 18.087 16.0003C18.087 15.6163 17.7754 15.3047 17.3914 15.3047Z" fill="#333333"/>
<path d="M25.9058 12.542C25.5302 12.4488 25.1545 12.6742 25.0627 13.0484L24.2516 16.2957L23.6158 14.3882C23.4266 13.8206 22.486 13.8206 22.2955 14.3882L21.6596 16.2957L20.8485 13.0484C20.7553 12.6741 20.3713 12.4474 20.0054 12.542C19.6326 12.6352 19.4072 13.0123 19.499 13.3851L20.8903 18.9503C20.9654 19.2495 21.2297 19.4651 21.5386 19.4762C21.8878 19.4901 22.1285 19.294 22.2259 19.0018L22.9564 16.8077L23.6868 19.0018C23.7828 19.287 24.0486 19.4776 24.3476 19.4776C24.356 19.4776 24.3657 19.4776 24.3727 19.4762C24.6816 19.4651 24.9459 19.2509 25.021 18.9503L26.4123 13.3851C26.5054 13.0123 26.28 12.6352 25.9058 12.542Z" fill="#333333"/>
</g>
<defs>
<clipPath id="clip0">
<rect width="32" height="32" fill="white"/>
</clipPath>
</defs>
</svg>
