<svg width="24" height="25" viewBox="0 0 24 25" fill="none" xmlns="http://www.w3.org/2000/svg">
<path d="M21.1836 13.6346V12.9803V12.3173L22.8367 10.8708C23.1414 10.6022 23.3414 10.2346 23.4013 9.83281C23.4612 9.43105 23.3771 9.02105 23.1639 8.67529L21.1319 5.2313C20.981 4.96979 20.7639 4.75257 20.5024 4.60145C20.241 4.45033 19.9444 4.37062 19.6424 4.37031C19.4553 4.36888 19.2692 4.39796 19.0914 4.45641L16.9992 5.16243C16.6379 4.92239 16.2611 4.70666 15.8713 4.51668L15.4322 2.34697C15.3534 1.95057 15.1378 1.59449 14.823 1.34107C14.5082 1.08765 14.1142 0.953022 13.7102 0.960766H9.6807C9.27664 0.953022 8.88272 1.08765 8.56791 1.34107C8.25309 1.59449 8.03745 1.95057 7.95871 2.34697L7.5196 4.51668C7.12693 4.70661 6.74726 4.92233 6.38309 5.16243L4.33392 4.42197C4.15423 4.37515 3.96815 4.35771 3.78288 4.37031C3.48091 4.37062 3.18433 4.45033 2.92289 4.60145C2.66145 4.75257 2.44435 4.96979 2.29336 5.2313L0.261409 8.67529C0.0604418 9.02054 -0.014237 9.42492 0.0501634 9.81917C0.114564 10.2134 0.314036 10.573 0.614418 10.8364L2.2417 12.3259V13.6432L0.614418 15.0897C0.305552 15.3549 0.100623 15.7209 0.0359995 16.1229C-0.0286241 16.5248 0.0512367 16.9366 0.261409 17.2852L2.29336 20.7292C2.44435 20.9907 2.66145 21.208 2.92289 21.3591C3.18433 21.5102 3.48091 21.5899 3.78288 21.5902C3.97002 21.5917 4.15614 21.5626 4.33392 21.5041L6.42614 20.7981C6.78736 21.0381 7.16416 21.2539 7.55404 21.4439L7.99315 23.6136C8.07189 24.01 8.28753 24.366 8.60235 24.6195C8.91716 24.8729 9.31108 25.0075 9.71514 24.9998H13.779C14.1831 25.0075 14.577 24.8729 14.8918 24.6195C15.2067 24.366 15.4223 24.01 15.501 23.6136L15.9401 21.4439C16.3328 21.2539 16.7125 21.0382 17.0767 20.7981L19.1603 21.5041C19.338 21.5626 19.5242 21.5917 19.7113 21.5902C20.0133 21.5899 20.3099 21.5102 20.5713 21.3591C20.8327 21.208 21.0498 20.9907 21.2008 20.7292L23.1639 17.2852C23.3649 16.94 23.4395 16.5356 23.3751 16.1414C23.3107 15.7471 23.1113 15.3875 22.8109 15.1241L21.1836 13.6346ZM19.6424 19.8682L16.6892 18.8695C15.9979 19.455 15.2078 19.9128 14.3559 20.2212L13.7446 23.3122H9.6807L9.0694 20.2557C8.22426 19.9385 7.43843 19.4815 6.74471 18.9039L3.78288 19.8682L1.75093 16.4242L4.09284 14.3579C3.93364 13.4666 3.93364 12.5542 4.09284 11.6629L1.75093 9.53628L3.78288 6.0923L6.7361 7.09106C7.42742 6.50549 8.21753 6.04775 9.0694 5.73929L9.6807 2.64832H13.7446L14.3559 5.70485C15.201 6.02206 15.9869 6.47901 16.6806 7.05662L19.6424 6.0923L21.6744 9.53628L19.3325 11.6027C19.4917 12.4939 19.4917 13.4063 19.3325 14.2976L21.6744 16.4242L19.6424 19.8682Z" fill="#333333"/>
<path d="M11.7126 18.1464C10.6909 18.1464 9.69209 17.8434 8.84255 17.2758C7.99301 16.7081 7.33087 15.9013 6.93987 14.9574C6.54887 14.0134 6.44657 12.9747 6.6459 11.9726C6.84523 10.9705 7.33724 10.05 8.05971 9.32753C8.78219 8.60506 9.70268 8.11305 10.7048 7.91372C11.7069 7.71439 12.7456 7.81669 13.6895 8.20769C14.6335 8.59869 15.4403 9.26083 16.008 10.1104C16.5756 10.9599 16.8786 11.9587 16.8786 12.9804C16.8855 13.6608 16.7566 14.3356 16.4994 14.9655C16.2422 15.5954 15.862 16.1676 15.3809 16.6487C14.8998 17.1298 14.3276 17.5101 13.6977 17.7672C13.0678 18.0244 12.3929 18.1533 11.7126 18.1464ZM11.7126 9.53645C11.2574 9.52584 10.8048 9.60768 10.3822 9.777C9.95957 9.94632 9.57568 10.1996 9.25373 10.5216C8.93179 10.8435 8.6785 11.2274 8.50918 11.65C8.33986 12.0727 8.25802 12.5253 8.26862 12.9804C8.25802 13.4356 8.33986 13.8882 8.50918 14.3108C8.6785 14.7335 8.93179 15.1174 9.25373 15.4393C9.57568 15.7612 9.95957 16.0145 10.3822 16.1839C10.8048 16.3532 11.2574 16.435 11.7126 16.4244C12.1678 16.435 12.6204 16.3532 13.043 16.1839C13.4656 16.0145 13.8495 15.7612 14.1715 15.4393C14.4934 15.1174 14.7467 14.7335 14.916 14.3108C15.0854 13.8882 15.1672 13.4356 15.1566 12.9804C15.1672 12.5253 15.0854 12.0727 14.916 11.65C14.7467 11.2274 14.4934 10.8435 14.1715 10.5216C13.8495 10.1996 13.4656 9.94632 13.043 9.777C12.6204 9.60768 12.1678 9.52584 11.7126 9.53645Z" fill="#333333"/>
</svg>
